<?xml version="1.0" encoding="UTF-8" standalone="no"?>
<!-- Created with Inkscape (http://www.inkscape.org/) -->

<svg
   xmlns:dc="http://purl.org/dc/elements/1.1/"
   xmlns:cc="http://creativecommons.org/ns#"
   xmlns:rdf="http://www.w3.org/1999/02/22-rdf-syntax-ns#"
   xmlns:svg="http://www.w3.org/2000/svg"
   xmlns="http://www.w3.org/2000/svg"
   xmlns:sodipodi="http://sodipodi.sourceforge.net/DTD/sodipodi-0.dtd"
   xmlns:inkscape="http://www.inkscape.org/namespaces/inkscape"
   width="216mm"
   height="279mm"
   viewBox="0 0 215.99999 278.99999"
   version="1.1"
   id="svg2107"
   inkscape:version="0.92.3 (2405546, 2018-03-11)"
   sodipodi:docname="middle-1-deep.svg"
   inkscape:export-filename="/home/hxr/arbeit/thesis/frontmatter/images/cover-puzzle.png"
   inkscape:export-xdpi="359.96991"
   inkscape:export-ydpi="359.96991">
  <sodipodi:namedview
     id="base"
     pagecolor="#ffffff"
     bordercolor="#666666"
     borderopacity="1.0"
     inkscape:pageopacity="0.0"
     inkscape:pageshadow="2"
     inkscape:zoom="0.5"
     inkscape:cx="174.7179"
     inkscape:cy="574.49379"
     inkscape:document-units="mm"
     inkscape:current-layer="layer1"
     showgrid="false"
     inkscape:window-width="1916"
     inkscape:window-height="1076"
     inkscape:window-x="0"
     inkscape:window-y="0"
     inkscape:window-maximized="1"
     fit-margin-top="5"
     fit-margin-left="5"
     fit-margin-right="5"
     fit-margin-bottom="5"
     inkscape:lockguides="false"
     inkscape:measure-start="0,0"
     inkscape:measure-end="0,0"
     showguides="true"
     inkscape:guide-bbox="true"
     units="mm"
     width="1e-05mm"
     inkscape:snap-global="false">
    <sodipodi:guide
       position="0,0"
       orientation="0,1"
       id="guide15638"
       inkscape:locked="false"
       inkscape:label=""
       inkscape:color="rgb(0,0,255)" />
    <sodipodi:guide
       position="0,51.858333"
       orientation="1,0"
       id="guide15640"
       inkscape:locked="false"
       inkscape:label=""
       inkscape:color="rgb(0,0,255)" />
    <sodipodi:guide
       position="216,279"
       orientation="0,1"
       id="guide15642"
       inkscape:locked="false"
       inkscape:label=""
       inkscape:color="rgb(0,0,255)" />
    <sodipodi:guide
       position="216,279"
       orientation="1,0"
       id="guide21820"
       inkscape:locked="false" />
    <sodipodi:guide
       position="-36.5125,223.30833"
       orientation="0,1"
       id="guide22602"
       inkscape:locked="false" />
    <sodipodi:guide
       position="47.146344,264.1692"
       orientation="0,1"
       id="guide22604"
       inkscape:locked="false" />
    <sodipodi:guide
       position="-69.056249,53.710416"
       orientation="0,1"
       id="guide22606"
       inkscape:locked="false" />
    <sodipodi:guide
       position="252.14791,14.022917"
       orientation="2.031472e-09,-1"
       id="guide22608"
       inkscape:locked="false" />
  </sodipodi:namedview>
  <defs
     id="defs2101">
    <marker
       inkscape:stockid="Arrow1Lend"
       orient="auto"
       refY="0.0"
       refX="0.0"
       id="marker6394"
       style="overflow:visible;"
       inkscape:isstock="true">
      <path
         id="path6392"
         d="M 0.0,0.0 L 5.0,-5.0 L -12.5,0.0 L 5.0,5.0 L 0.0,0.0 z "
         style="fill-rule:evenodd;stroke:#ffffff;stroke-width:1pt;stroke-opacity:1;fill:#ffffff;fill-opacity:1"
         transform="scale(0.8) rotate(180) translate(12.5,0)" />
    </marker>
    <marker
       inkscape:stockid="Arrow1Lstart"
       orient="auto"
       refY="0.0"
       refX="0.0"
       id="Arrow1Lstart"
       style="overflow:visible"
       inkscape:isstock="true">
      <path
         id="path5902"
         d="M 0.0,0.0 L 5.0,-5.0 L -12.5,0.0 L 5.0,5.0 L 0.0,0.0 z "
         style="fill-rule:evenodd;stroke:#000000;stroke-width:1pt;stroke-opacity:1;fill:#000000;fill-opacity:1"
         transform="scale(0.8) translate(12.5,0)" />
    </marker>
    <marker
       inkscape:stockid="Arrow1Lend"
       orient="auto"
       refY="0.0"
       refX="0.0"
       id="Arrow1Lend"
       style="overflow:visible;"
       inkscape:isstock="true">
      <path
         id="path5905"
         d="M 0.0,0.0 L 5.0,-5.0 L -12.5,0.0 L 5.0,5.0 L 0.0,0.0 z "
         style="fill-rule:evenodd;stroke:#ffffff;stroke-width:1pt;stroke-opacity:1;fill:#ffffff;fill-opacity:1"
         transform="scale(0.8) rotate(180) translate(12.5,0)" />
    </marker>
    <marker
       inkscape:stockid="Arrow1Lend"
       orient="auto"
       refY="0"
       refX="0"
       id="Arrow1Lend-3"
       style="overflow:visible"
       inkscape:isstock="true">
      <path
         inkscape:connector-curvature="0"
         id="path5905-1"
         d="M 0,0 5,-5 -12.5,0 5,5 Z"
         style="fill:#ffffff;fill-opacity:1;fill-rule:evenodd;stroke:#ffffff;stroke-width:1.00000003pt;stroke-opacity:1"
         transform="matrix(-0.8,0,0,-0.8,-10,0)" />
    </marker>
    <marker
       inkscape:stockid="Arrow1Lend"
       orient="auto"
       refY="0"
       refX="0"
       id="Arrow1Lend-3-5"
       style="overflow:visible"
       inkscape:isstock="true">
      <path
         inkscape:connector-curvature="0"
         id="path5905-1-9"
         d="M 0,0 5,-5 -12.5,0 5,5 Z"
         style="fill:#ffffff;fill-opacity:1;fill-rule:evenodd;stroke:#ffffff;stroke-width:1.00000003pt;stroke-opacity:1"
         transform="matrix(-0.8,0,0,-0.8,-10,0)" />
    </marker>
    <marker
       inkscape:stockid="Arrow1Lend"
       orient="auto"
       refY="0"
       refX="0"
       id="Arrow1Lend-2"
       style="overflow:visible"
       inkscape:isstock="true">
      <path
         inkscape:connector-curvature="0"
         id="path5905-17"
         d="M 0,0 5,-5 -12.5,0 5,5 Z"
         style="fill:#ffffff;fill-opacity:1;fill-rule:evenodd;stroke:#ffffff;stroke-width:1.00000003pt;stroke-opacity:1"
         transform="matrix(-0.8,0,0,-0.8,-10,0)" />
    </marker>
    <marker
       inkscape:stockid="Arrow1Lend"
       orient="auto"
       refY="0"
       refX="0"
       id="Arrow1Lend-5"
       style="overflow:visible"
       inkscape:isstock="true">
      <path
         inkscape:connector-curvature="0"
         id="path5905-7"
         d="M 0,0 5,-5 -12.5,0 5,5 Z"
         style="fill:#ffffff;fill-opacity:1;fill-rule:evenodd;stroke:#ffffff;stroke-width:1.00000003pt;stroke-opacity:1"
         transform="matrix(-0.8,0,0,-0.8,-10,0)" />
    </marker>
  </defs>
  <metadata
     id="metadata2104">
    <rdf:RDF>
      <cc:Work
         rdf:about="">
        <dc:format>image/svg+xml</dc:format>
        <dc:type
           rdf:resource="http://purl.org/dc/dcmitype/StillImage" />
        <dc:title></dc:title>
        <dc:creator>
          <cc:Agent>
            <dc:title>Galactic Girlfriends</dc:title>
          </cc:Agent>
        </dc:creator>
      </cc:Work>
    </rdf:RDF>
  </metadata>
  <g
     style="display:inline"
     transform="translate(-28.864056,161.86521)"
     id="layer1"
     inkscape:groupmode="layer"
     inkscape:label="pieces">
    <path
       inkscape:connector-curvature="0"
       d="m 28.760394,-142.74829 a 2.9471207,2.9471207 0 0 0 2.947455,-2.94694 2.9471207,2.9471207 0 0 0 -0.755396,-1.96514 h 7.631588 v -7.63159 a 2.9471207,2.9471207 0 0 0 1.96514,0.7554 2.9471207,2.9471207 0 0 0 2.946934,-2.94745 2.9471207,2.9471207 0 0 0 -2.946934,-2.94694 2.9471207,2.9471207 0 0 0 -1.96514,0.75539 v -7.63209 h -7.631077 a 2.9471207,2.9471207 0 0 0 0.754885,-1.96463 2.9471207,2.9471207 0 0 0 -2.947455,-2.94744 2.9471207,2.9471207 0 0 0 -2.946934,2.94744 2.9471207,2.9471207 0 0 0 0.755387,1.96463 h -7.632092 v 7.63108 a 2.9471207,2.9471207 0 0 0 -1.964629,-0.75438 2.9471207,2.9471207 0 0 0 -2.947448,2.94694 2.9471207,2.9471207 0 0 0 2.947448,2.94745 2.9471207,2.9471207 0 0 0 1.964629,-0.7554 v 7.63159 h 7.631591 a 2.9471207,2.9471207 0 0 0 -0.754886,1.96514 2.9471207,2.9471207 0 0 0 2.946934,2.94694 z"
       style="fill:#ff0000;stroke:#ff0000;stroke-width:0.25991964;fill-opacity:1;stroke-opacity:1"
       id="path4244" />
    <path
       inkscape:connector-curvature="0"
       d="m 58.231325,-147.66037 v -7.63107 a 2.9471207,2.9471207 0 0 1 -1.964629,0.75488 2.9471207,2.9471207 0 0 1 -2.946934,-2.94745 2.9471207,2.9471207 0 0 1 2.946934,-2.94694 2.9471207,2.9471207 0 0 1 1.964629,0.75438 v -7.63108 h -7.631588 a 2.9471207,2.9471207 0 0 1 0.755396,1.96463 2.9471207,2.9471207 0 0 1 -2.947445,2.94744 2.9471207,2.9471207 0 0 1 -2.946944,-2.94744 2.9471207,2.9471207 0 0 1 0.754375,-1.96463 h -7.631078 v 7.63209 a 2.9471207,2.9471207 0 0 1 1.964629,-0.75539 2.9471207,2.9471207 0 0 1 2.947445,2.94694 2.9471207,2.9471207 0 0 1 -2.947445,2.94745 2.9471207,2.9471207 0 0 1 -1.964629,-0.75488 v 7.63107 h 7.631589 a 2.9471207,2.9471207 0 0 1 -0.754886,-1.96463 2.9471207,2.9471207 0 0 1 2.946944,-2.94693 2.9471207,2.9471207 0 0 1 2.947445,2.94693 2.9471207,2.9471207 0 0 1 -0.754885,1.96463 z"
       style="fill:#ff0000;stroke:#ff0000;stroke-width:0.25991964;fill-opacity:1;stroke-opacity:1"
       id="path4246" />
    <path
       inkscape:connector-curvature="0"
       d="m 68.052261,-172.22244 a 2.9471207,2.9471207 0 0 0 -2.947455,2.94694 2.9471207,2.9471207 0 0 0 0.755396,1.96514 h -7.631588 v 7.63159 a 2.9471207,2.9471207 0 0 0 -1.96513,-0.7554 2.9471207,2.9471207 0 0 0 -2.946944,2.94745 2.9471207,2.9471207 0 0 0 2.946944,2.94694 2.9471207,2.9471207 0 0 0 1.96513,-0.75539 v 7.63209 h 7.631077 a 2.9471207,2.9471207 0 0 0 -0.754885,1.96463 2.9471207,2.9471207 0 0 0 2.947455,2.94745 2.9471207,2.9471207 0 0 0 2.946934,-2.94745 2.9471207,2.9471207 0 0 0 -0.755387,-1.96463 h 7.63209 v -7.63108 a 2.9471207,2.9471207 0 0 0 1.964629,0.75438 2.9471207,2.9471207 0 0 0 2.947455,-2.94694 2.9471207,2.9471207 0 0 0 -2.947455,-2.94745 2.9471207,2.9471207 0 0 0 -1.964629,0.7554 v -7.63159 h -7.631589 a 2.9471207,2.9471207 0 0 0 0.754886,-1.96514 2.9471207,2.9471207 0 0 0 -2.946934,-2.94694 z"
       style="fill:#ff0000;stroke:#ff0000;stroke-width:0.25991964;fill-opacity:1;stroke-opacity:1"
       id="path4248" />
    <path
       inkscape:connector-curvature="0"
       d="m 97.525875,-167.31036 h -7.63105 a 2.9471207,2.9471207 0 0 1 0.754876,1.96463 2.9471207,2.9471207 0 0 1 -2.947445,2.94693 2.9471207,2.9471207 0 0 1 -2.946944,-2.94693 2.9471207,2.9471207 0 0 1 0.754385,-1.96463 h -7.631078 v 7.63159 a 2.9471207,2.9471207 0 0 1 1.964619,-0.7554 2.9471207,2.9471207 0 0 1 2.947455,2.94745 2.9471207,2.9471207 0 0 1 -2.947455,2.94694 2.9471207,2.9471207 0 0 1 -1.964619,-0.75438 v 7.63108 h 7.632089 a 2.9471207,2.9471207 0 0 1 -0.755396,-1.96463 2.9471207,2.9471207 0 0 1 2.946944,-2.94744 2.9471207,2.9471207 0 0 1 2.947445,2.94744 2.9471207,2.9471207 0 0 1 -0.754876,1.96463 h 7.63105 v -7.63159 a 2.9471207,2.9471207 0 0 1 -1.964617,0.75489 2.9471207,2.9471207 0 0 1 -2.946931,-2.94694 2.9471207,2.9471207 0 0 1 2.946931,-2.94745 2.9471207,2.9471207 0 0 1 1.964617,0.75489 z"
       style="fill:#ff0000;stroke:#ff0000;stroke-width:0.25991964;fill-opacity:1;stroke-opacity:1"
       id="path4250" />
    <path
       inkscape:connector-curvature="0"
       d="m 122.08523,-157.48672 a 2.9471207,2.9471207 0 0 0 -2.94695,-2.94745 2.9471207,2.9471207 0 0 0 -1.96513,0.7554 v -7.63159 h -7.63107 a 2.9471207,2.9471207 0 0 1 0.75488,1.96463 2.9471207,2.9471207 0 0 1 -2.94745,2.94693 2.9471207,2.9471207 0 0 1 -2.94694,-2.94693 2.9471207,2.9471207 0 0 1 0.75438,-1.96463 h -7.631075 v 7.63108 a 2.9471207,2.9471207 0 0 0 -1.964617,-0.75489 2.9471207,2.9471207 0 0 0 -2.947432,2.94745 2.9471207,2.9471207 0 0 0 2.947432,2.94694 2.9471207,2.9471207 0 0 0 1.964617,-0.75539 v 7.63209 h 7.632085 a 2.9471207,2.9471207 0 0 1 -0.75539,-1.96463 2.9471207,2.9471207 0 0 1 2.94694,-2.94744 2.9471207,2.9471207 0 0 1 2.94745,2.94744 2.9471207,2.9471207 0 0 1 -0.75488,1.96463 h 7.63107 v -7.63159 a 2.9471207,2.9471207 0 0 0 1.96513,0.75489 2.9471207,2.9471207 0 0 0 2.94695,-2.94694 z"
       style="fill:#ff0000;stroke:#ff0000;stroke-width:0.25991964;fill-opacity:1;stroke-opacity:1"
       id="path4252" />
    <path
       inkscape:connector-curvature="0"
       d="m 141.73251,-157.48672 a 2.9471207,2.9471207 0 0 0 -2.94693,-2.94745 2.9471207,2.9471207 0 0 0 -1.96514,0.7554 v -7.63159 h -7.63108 a 2.9471207,2.9471207 0 0 1 0.75489,1.96463 2.9471207,2.9471207 0 0 1 -2.94745,2.94693 2.9471207,2.9471207 0 0 1 -2.94694,-2.94693 2.9471207,2.9471207 0 0 1 0.75437,-1.96463 h -7.63108 v 7.63159 a 2.9471207,2.9471207 0 0 1 1.96463,-0.7554 2.9471207,2.9471207 0 0 1 2.94745,2.94745 2.9471207,2.9471207 0 0 1 -2.94745,2.94694 2.9471207,2.9471207 0 0 1 -1.96463,-0.75438 v 7.63108 h 7.63209 a 2.9471207,2.9471207 0 0 1 -0.75538,-1.96463 2.9471207,2.9471207 0 0 1 2.94694,-2.94744 2.9471207,2.9471207 0 0 1 2.94745,2.94744 2.9471207,2.9471207 0 0 1 -0.75489,1.96463 h 7.63108 v -7.63159 a 2.9471207,2.9471207 0 0 0 1.96514,0.75489 2.9471207,2.9471207 0 0 0 2.94693,-2.94694 z"
       style="fill:#ff0000;stroke:#ff0000;stroke-width:0.25991964;fill-opacity:1;stroke-opacity:1"
       id="path4254" />
    <path
       inkscape:connector-curvature="0"
       d="m 136.81773,-147.66037 h 7.63158 a 2.9471207,2.9471207 0 0 0 -0.75538,1.96514 2.9471207,2.9471207 0 0 0 2.94744,2.94695 2.9471207,2.9471207 0 0 0 2.94695,-2.94695 2.9471207,2.9471207 0 0 0 -0.7554,-1.96514 h 7.6321 v -7.63107 a 2.9471207,2.9471207 0 0 0 1.96463,0.75488 2.9471207,2.9471207 0 0 0 2.94744,-2.94744 2.9471207,2.9471207 0 0 0 -2.94744,-2.94695 2.9471207,2.9471207 0 0 0 -1.96463,0.7554 v -7.6321 h -7.6321 a 2.9471207,2.9471207 0 0 1 0.7554,1.96463 2.9471207,2.9471207 0 0 1 -2.94695,2.94744 2.9471207,2.9471207 0 0 1 -2.94744,-2.94744 2.9471207,2.9471207 0 0 1 0.75487,-1.96463 h -7.63107 v 7.63159 a 2.9471207,2.9471207 0 0 1 1.96463,-0.75489 2.9471207,2.9471207 0 0 1 2.94694,2.94695 2.9471207,2.9471207 0 0 1 -2.94694,2.94744 2.9471207,2.9471207 0 0 1 -1.96463,-0.75488 z"
       style="fill:#ff0000;stroke:#ff0000;stroke-width:0.25991964;fill-opacity:1;stroke-opacity:1"
       id="path4256" />
    <path
       inkscape:connector-curvature="0"
       d="m 166.29137,-142.74829 a 2.9471207,2.9471207 0 0 0 2.94744,-2.94694 2.9471207,2.9471207 0 0 0 -0.75538,-1.96514 h 7.63159 v -7.63107 a 2.9471207,2.9471207 0 0 1 -1.96463,0.75488 2.9471207,2.9471207 0 0 1 -2.94695,-2.94745 2.9471207,2.9471207 0 0 1 2.94695,-2.94694 2.9471207,2.9471207 0 0 1 1.96463,0.75438 v -7.63108 h -7.63159 a 2.9471207,2.9471207 0 0 1 0.75538,1.96463 2.9471207,2.9471207 0 0 1 -2.94744,2.94744 2.9471207,2.9471207 0 0 1 -2.94695,-2.94744 2.9471207,2.9471207 0 0 1 0.75439,-1.96463 h -7.63108 v 7.63209 a 2.9471207,2.9471207 0 0 1 1.96462,-0.75539 2.9471207,2.9471207 0 0 1 2.94746,2.94694 2.9471207,2.9471207 0 0 1 -2.94746,2.94745 2.9471207,2.9471207 0 0 1 -1.96462,-0.75488 v 7.63107 h 7.63158 a 2.9471207,2.9471207 0 0 0 -0.75489,1.96514 2.9471207,2.9471207 0 0 0 2.94695,2.94694 z"
       style="fill:#ff0000;stroke:#ff0000;stroke-width:0.25991964;fill-opacity:1;stroke-opacity:1"
       id="path4258" />
    <path
       inkscape:connector-curvature="0"
       d="m 185.93865,-142.74829 a 2.9471207,2.9471207 0 0 0 2.94746,-2.94694 2.9471207,2.9471207 0 0 0 -0.7554,-1.96514 h 7.63159 v -7.63159 a 2.9471207,2.9471207 0 0 0 1.96513,0.7554 2.9471207,2.9471207 0 0 0 2.94694,-2.94745 2.9471207,2.9471207 0 0 0 -2.94694,-2.94694 2.9471207,2.9471207 0 0 0 -1.96513,0.75539 v -7.63209 h -7.63108 a 2.9471207,2.9471207 0 0 0 0.75489,-1.96463 2.9471207,2.9471207 0 0 0 -2.94746,-2.94744 2.9471207,2.9471207 0 0 0 -2.94693,2.94744 2.9471207,2.9471207 0 0 0 0.75538,1.96463 h -7.63208 v 7.63108 a 2.9471207,2.9471207 0 0 0 -1.96463,-0.75438 2.9471207,2.9471207 0 0 0 -2.94745,2.94694 2.9471207,2.9471207 0 0 0 2.94745,2.94745 2.9471207,2.9471207 0 0 0 1.96463,-0.7554 v 7.63159 h 7.63158 a 2.9471207,2.9471207 0 0 0 -0.75488,1.96514 2.9471207,2.9471207 0 0 0 2.94693,2.94694 z"
       style="fill:#ff0000;stroke:#ff0000;stroke-width:0.25991964;fill-opacity:1;stroke-opacity:1"
       id="path4260" />
    <path
       inkscape:connector-curvature="0"
       d="m 205.58595,-142.74829 a 2.9471207,2.9471207 0 0 0 2.94744,-2.94694 2.9471207,2.9471207 0 0 0 -0.7554,-1.96514 h 7.63159 v -7.63107 a 2.9471207,2.9471207 0 0 1 -1.96463,0.75488 2.9471207,2.9471207 0 0 1 -2.94693,-2.94745 2.9471207,2.9471207 0 0 1 2.94693,-2.94694 2.9471207,2.9471207 0 0 1 1.96463,0.75438 v -7.63108 h -7.63107 a 2.9471207,2.9471207 0 0 0 0.75488,-1.96463 2.9471207,2.9471207 0 0 0 -2.94744,-2.94744 2.9471207,2.9471207 0 0 0 -2.94695,2.94744 2.9471207,2.9471207 0 0 0 0.75539,1.96463 h -7.63209 v 7.63209 a 2.9471207,2.9471207 0 0 1 1.96463,-0.75539 2.9471207,2.9471207 0 0 1 2.94744,2.94694 2.9471207,2.9471207 0 0 1 -2.94744,2.94745 2.9471207,2.9471207 0 0 1 -1.96463,-0.75488 v 7.63107 h 7.63159 a 2.9471207,2.9471207 0 0 0 -0.75489,1.96514 2.9471207,2.9471207 0 0 0 2.94695,2.94694 z"
       style="fill:#ff0000;stroke:#ff0000;stroke-width:0.25991964;fill-opacity:1;stroke-opacity:1"
       id="path4262" />
    <path
       inkscape:connector-curvature="0"
       d="m 225.23051,-172.22244 a 2.9471207,2.9471207 0 0 0 -2.94744,2.94694 2.9471207,2.9471207 0 0 0 0.75538,1.96514 h -7.63158 v 7.63159 a 2.9471207,2.9471207 0 0 0 -1.96513,-0.7554 2.9471207,2.9471207 0 0 0 -2.94694,2.94745 2.9471207,2.9471207 0 0 0 2.94694,2.94694 2.9471207,2.9471207 0 0 0 1.96513,-0.75539 v 7.63209 h 7.63109 a 2.9471207,2.9471207 0 0 0 -0.75489,1.96463 2.9471207,2.9471207 0 0 0 2.94744,2.94745 2.9471207,2.9471207 0 0 0 2.94694,-2.94745 2.9471207,2.9471207 0 0 0 -0.75537,-1.96463 h 7.63208 v -7.63209 a 2.9471207,2.9471207 0 0 1 -1.96463,0.75539 2.9471207,2.9471207 0 0 1 -2.94745,-2.94694 2.9471207,2.9471207 0 0 1 2.94745,-2.94745 2.9471207,2.9471207 0 0 1 1.96463,0.75489 v -7.63108 h -7.63159 a 2.9471207,2.9471207 0 0 0 0.75488,-1.96514 2.9471207,2.9471207 0 0 0 -2.94694,-2.94694 z"
       style="fill:#ff0000;stroke:#ff0000;stroke-width:0.25991964;fill-opacity:1;stroke-opacity:1"
       id="path4264" />
    <path
       inkscape:connector-curvature="0"
       d="m 230.14208,-157.48401 a 2.9471207,2.9471207 0 0 0 2.94695,2.94745 2.9471207,2.9471207 0 0 0 1.96513,-0.7554 v 7.63159 h 7.63159 a 2.9471207,2.9471207 0 0 0 -0.7554,1.96514 2.9471207,2.9471207 0 0 0 2.94746,2.94694 2.9471207,2.9471207 0 0 0 2.94695,-2.94694 2.9471207,2.9471207 0 0 0 -0.75541,-1.96514 h 7.6321 v -7.63107 a 2.9471207,2.9471207 0 0 0 1.96463,0.75488 2.9471207,2.9471207 0 0 0 2.94743,-2.94745 2.9471207,2.9471207 0 0 0 -2.94743,-2.94694 2.9471207,2.9471207 0 0 0 -1.96463,0.75539 v -7.63209 h -7.63108 a 2.9471207,2.9471207 0 0 0 0.75439,-1.96463 2.9471207,2.9471207 0 0 0 -2.94695,-2.94744 2.9471207,2.9471207 0 0 0 -2.94746,2.94744 2.9471207,2.9471207 0 0 0 0.7554,1.96463 h -7.63159 v 7.63159 a 2.9471207,2.9471207 0 0 0 -1.96513,-0.75489 2.9471207,2.9471207 0 0 0 -2.94695,2.94694 z"
       style="fill:#ff0000;stroke:#ff0000;stroke-width:0.25991964;fill-opacity:1;stroke-opacity:1"
       id="path4266" />
    <path
       inkscape:connector-curvature="0"
       d="m 38.584041,-128.01308 v -7.63108 a 2.9471207,2.9471207 0 0 1 -1.964629,0.75488 2.9471207,2.9471207 0 0 1 -2.946934,-2.94744 2.9471207,2.9471207 0 0 1 2.946934,-2.94694 2.9471207,2.9471207 0 0 1 1.964629,0.75437 v -7.63108 h -7.631588 a 2.9471207,2.9471207 0 0 1 0.755396,1.96463 2.9471207,2.9471207 0 0 1 -2.947455,2.94745 2.9471207,2.9471207 0 0 1 -2.946934,-2.94745 2.9471207,2.9471207 0 0 1 0.754375,-1.96463 h -7.63108 v 7.6321 a 2.9471207,2.9471207 0 0 1 1.964627,-0.75539 2.9471207,2.9471207 0 0 1 2.947449,2.94694 2.9471207,2.9471207 0 0 1 -2.947449,2.94744 2.9471207,2.9471207 0 0 1 -1.964627,-0.75488 v 7.63108 h 7.631591 a 2.9471207,2.9471207 0 0 1 -0.754886,-1.96462 2.9471207,2.9471207 0 0 1 2.946934,-2.94695 2.9471207,2.9471207 0 0 1 2.947455,2.94695 2.9471207,2.9471207 0 0 1 -0.754885,1.96462 z"
       style="fill:#ff0000;stroke:#ff0000;stroke-width:0.25991964;fill-opacity:1;stroke-opacity:1"
       id="path4284" />
    <path
       inkscape:connector-curvature="0"
       d="m 230.14208,-137.83672 a 2.9471207,2.9471207 0 0 0 2.94695,2.94744 2.9471207,2.9471207 0 0 0 1.96513,-0.75539 v 7.63159 h 7.63107 a 2.9471207,2.9471207 0 0 1 -0.75488,-1.96462 2.9471207,2.9471207 0 0 1 2.94746,-2.94695 2.9471207,2.9471207 0 0 1 2.94695,2.94695 2.9471207,2.9471207 0 0 1 -0.75439,1.96462 h 7.63108 v -7.63108 a 2.9471207,2.9471207 0 0 0 1.96463,0.75488 2.9471207,2.9471207 0 0 0 2.94743,-2.94744 2.9471207,2.9471207 0 0 0 -2.94743,-2.94694 2.9471207,2.9471207 0 0 0 -1.96463,0.75539 v -7.6321 h -7.6321 a 2.9471207,2.9471207 0 0 1 0.75541,1.96463 2.9471207,2.9471207 0 0 1 -2.94695,2.94745 2.9471207,2.9471207 0 0 1 -2.94746,-2.94745 2.9471207,2.9471207 0 0 1 0.75488,-1.96463 h -7.63107 v 7.63159 a 2.9471207,2.9471207 0 0 0 -1.96513,-0.75488 2.9471207,2.9471207 0 0 0 -2.94695,2.94694 z"
       style="fill:#ff0000;stroke:#ff0000;stroke-width:0.25991964;fill-opacity:1;stroke-opacity:1"
       id="path4306" />
    <path
       inkscape:connector-curvature="0"
       d="m 38.584041,-108.3658 v -7.63158 a 2.9471207,2.9471207 0 0 0 1.96514,0.75539 2.9471207,2.9471207 0 0 0 2.946934,-2.94745 2.9471207,2.9471207 0 0 0 -2.946934,-2.94694 2.9471207,2.9471207 0 0 0 -1.96514,0.7554 v -7.6321 h -7.631077 a 2.9471207,2.9471207 0 0 0 0.754885,-1.96463 2.9471207,2.9471207 0 0 0 -2.947455,-2.94745 2.9471207,2.9471207 0 0 0 -2.946934,2.94745 2.9471207,2.9471207 0 0 0 0.755387,1.96463 h -7.632092 v 7.6321 a 2.9471207,2.9471207 0 0 1 1.964627,-0.7554 2.9471207,2.9471207 0 0 1 2.947449,2.94694 2.9471207,2.9471207 0 0 1 -2.947449,2.94745 2.9471207,2.9471207 0 0 1 -1.964627,-0.75489 v 7.63108 h 7.631591 a 2.9471207,2.9471207 0 0 1 -0.754886,-1.96462 2.9471207,2.9471207 0 0 1 2.946934,-2.94694 2.9471207,2.9471207 0 0 1 2.947455,2.94694 2.9471207,2.9471207 0 0 1 -0.754885,1.96462 z"
       style="fill:#ff0000;stroke:#ff0000;stroke-width:0.25991964;fill-opacity:1;stroke-opacity:1"
       id="path4324" />
    <path
       inkscape:connector-curvature="0"
       d="m 230.14208,-118.18944 a 2.9471207,2.9471207 0 0 0 2.94695,2.94745 2.9471207,2.9471207 0 0 0 1.96513,-0.75539 v 7.63159 h 7.63159 a 2.9471207,2.9471207 0 0 0 -0.7554,1.96513 2.9471207,2.9471207 0 0 0 2.94746,2.94694 2.9471207,2.9471207 0 0 0 2.94695,-2.94694 2.9471207,2.9471207 0 0 0 -0.75541,-1.96513 h 7.6321 v -7.63108 a 2.9471207,2.9471207 0 0 0 1.96463,0.75488 2.9471207,2.9471207 0 0 0 2.94743,-2.94745 2.9471207,2.9471207 0 0 0 -2.94743,-2.94694 2.9471207,2.9471207 0 0 0 -1.96463,0.7554 v -7.63209 h -7.63108 a 2.9471207,2.9471207 0 0 0 0.75439,-1.96463 2.9471207,2.9471207 0 0 0 -2.94695,-2.94746 2.9471207,2.9471207 0 0 0 -2.94746,2.94746 2.9471207,2.9471207 0 0 0 0.7554,1.96463 h -7.63159 v 7.63158 a 2.9471207,2.9471207 0 0 0 -1.96513,-0.75489 2.9471207,2.9471207 0 0 0 -2.94695,2.94694 z"
       style="fill:#ff0000;stroke:#ff0000;stroke-width:0.25991964;fill-opacity:1;stroke-opacity:1"
       id="path4346" />
    <path
       inkscape:connector-curvature="0"
       d="m 38.584041,-88.71853 v -7.631564 a 2.9471207,2.9471207 0 0 0 1.96514,0.755393 2.9471207,2.9471207 0 0 0 2.946934,-2.947441 2.9471207,2.9471207 0 0 0 -2.946934,-2.946948 2.9471207,2.9471207 0 0 0 -1.96514,0.75539 v -7.63209 h -7.631077 a 2.9471207,2.9471207 0 0 0 0.754885,-1.96463 2.9471207,2.9471207 0 0 0 -2.947455,-2.94744 2.9471207,2.9471207 0 0 0 -2.946934,2.94744 2.9471207,2.9471207 0 0 0 0.755387,1.96463 h -7.632092 v 7.63209 a 2.9471207,2.9471207 0 0 1 1.964627,-0.75539 2.9471207,2.9471207 0 0 1 2.947449,2.946948 2.9471207,2.9471207 0 0 1 -2.947449,2.947441 2.9471207,2.9471207 0 0 1 -1.964627,-0.754882 v 7.631053 h 7.631591 a 2.9471207,2.9471207 0 0 1 -0.754886,-1.964632 2.9471207,2.9471207 0 0 1 2.946934,-2.946921 2.9471207,2.9471207 0 0 1 2.947455,2.946921 2.9471207,2.9471207 0 0 1 -0.754885,1.964632 z"
       style="fill:#ff0000;stroke:#ff0000;stroke-width:0.25991964;fill-opacity:1;stroke-opacity:1"
       id="path4364" />
    <path
       inkscape:connector-curvature="0"
       d="m 259.61624,-98.544864 a 2.9471207,2.9471207 0 0 0 -2.94694,-2.947446 2.9471207,2.9471207 0 0 0 -1.96515,0.7554 v -7.63159 h -7.63108 a 2.9471207,2.9471207 0 0 1 0.75489,1.96462 2.9471207,2.9471207 0 0 1 -2.94745,2.94694 2.9471207,2.9471207 0 0 1 -2.94694,-2.94694 2.9471207,2.9471207 0 0 1 0.75439,-1.96462 h -7.63108 v 7.63159 a 2.9471207,2.9471207 0 0 1 1.96463,-0.7554 2.9471207,2.9471207 0 0 1 2.94744,2.947446 2.9471207,2.9471207 0 0 1 -2.94744,2.946941 2.9471207,2.9471207 0 0 1 -1.96463,-0.754371 v 7.631053 h 7.6321 a 2.9471207,2.9471207 0 0 1 -0.75541,-1.964632 2.9471207,2.9471207 0 0 1 2.94694,-2.947432 2.9471207,2.9471207 0 0 1 2.94745,2.947432 2.9471207,2.9471207 0 0 1 -0.75489,1.964632 h 7.63108 v -7.631564 a 2.9471207,2.9471207 0 0 0 1.96515,0.754882 2.9471207,2.9471207 0 0 0 2.94694,-2.946941 z"
       style="fill:#ff0000;stroke:#ff0000;stroke-width:0.25991964;fill-opacity:1;stroke-opacity:1"
       id="path4386" />
    <path
       inkscape:connector-curvature="0"
       d="m 28.757683,-93.633305 a 2.9471207,2.9471207 0 0 0 -2.947445,2.946921 2.9471207,2.9471207 0 0 0 0.755396,1.965143 h -7.63159 v 7.631077 a 2.9471207,2.9471207 0 0 1 1.964626,-0.754885 2.9471207,2.9471207 0 0 1 2.946941,2.94745 2.9471207,2.9471207 0 0 1 -2.946941,2.946941 2.9471207,2.9471207 0 0 1 -1.964626,-0.754376 v 7.631078 h 7.63159 a 2.9471207,2.9471207 0 0 1 -0.755396,-1.964627 2.9471207,2.9471207 0 0 1 2.947445,-2.94745 2.9471207,2.9471207 0 0 1 2.946944,2.94745 2.9471207,2.9471207 0 0 1 -0.754375,1.964627 h 7.631078 v -7.632095 a 2.9471207,2.9471207 0 0 1 -1.964629,0.755393 2.9471207,2.9471207 0 0 1 -2.947445,-2.946941 2.9471207,2.9471207 0 0 1 2.947445,-2.94745 2.9471207,2.9471207 0 0 1 1.964629,0.754885 v -7.631077 h -7.631589 a 2.9471207,2.9471207 0 0 0 0.754886,-1.965143 2.9471207,2.9471207 0 0 0 -2.946944,-2.946921 z"
       style="fill:#ff0000;stroke:#ff0000;stroke-width:0.25991964;fill-opacity:1;stroke-opacity:1"
       id="path4404" />
    <path
       inkscape:connector-curvature="0"
       d="m 244.87781,-93.633305 a 2.9471207,2.9471207 0 0 0 -2.94746,2.946921 2.9471207,2.9471207 0 0 0 0.7554,1.965143 h -7.63159 v 7.631077 a 2.9471207,2.9471207 0 0 1 1.96462,-0.754885 2.9471207,2.9471207 0 0 1 2.94694,2.94745 2.9471207,2.9471207 0 0 1 -2.94694,2.946941 2.9471207,2.9471207 0 0 1 -1.96462,-0.754376 v 7.631078 h 7.63107 a 2.9471207,2.9471207 0 0 0 -0.75488,1.964628 2.9471207,2.9471207 0 0 0 2.94746,2.947448 2.9471207,2.9471207 0 0 0 2.94695,-2.947448 2.9471207,2.9471207 0 0 0 -0.75541,-1.964628 h 7.6321 v -7.632095 a 2.9471207,2.9471207 0 0 1 -1.96463,0.755393 2.9471207,2.9471207 0 0 1 -2.94745,-2.946941 2.9471207,2.9471207 0 0 1 2.94745,-2.94745 2.9471207,2.9471207 0 0 1 1.96463,0.754885 v -7.631077 h -7.63158 a 2.9471207,2.9471207 0 0 0 0.75489,-1.965143 2.9471207,2.9471207 0 0 0 -2.94695,-2.946921 z"
       style="fill:#ff0000;stroke:#ff0000;stroke-width:0.25991964;fill-opacity:1;stroke-opacity:1"
       id="path4426" />
    <path
       inkscape:connector-curvature="0"
       d="m 28.757683,-73.98603 a 2.9471207,2.9471207 0 0 0 -2.947445,2.946941 2.9471207,2.9471207 0 0 0 0.755396,1.965135 h -7.63159 v 7.631077 a 2.9471207,2.9471207 0 0 1 1.964626,-0.754881 2.9471207,2.9471207 0 0 1 2.946941,2.947447 2.9471207,2.9471207 0 0 1 -2.946941,2.94694 2.9471207,2.9471207 0 0 1 -1.964626,-0.754375 v 7.631078 h 7.63159 a 2.9471207,2.9471207 0 0 1 -0.755396,-1.964627 2.9471207,2.9471207 0 0 1 2.947445,-2.947449 2.9471207,2.9471207 0 0 1 2.946944,2.947449 2.9471207,2.9471207 0 0 1 -0.754375,1.964627 h 7.631078 v -7.632094 a 2.9471207,2.9471207 0 0 1 -1.964629,0.755391 2.9471207,2.9471207 0 0 1 -2.947445,-2.94694 2.9471207,2.9471207 0 0 1 2.947445,-2.947447 2.9471207,2.9471207 0 0 1 1.964629,0.754881 v -7.631077 h -7.631589 a 2.9471207,2.9471207 0 0 0 0.754886,-1.965135 2.9471207,2.9471207 0 0 0 -2.946944,-2.946941 z"
       style="fill:#ff0000;stroke:#ff0000;stroke-width:0.25991964;fill-opacity:1;stroke-opacity:1"
       id="path4444" />
    <path
       inkscape:connector-curvature="0"
       d="m 235.05416,-49.423957 h 7.63159 a 2.9471207,2.9471207 0 0 0 -0.7554,1.965135 2.9471207,2.9471207 0 0 0 2.94746,2.946941 2.9471207,2.9471207 0 0 0 2.94695,-2.946941 2.9471207,2.9471207 0 0 0 -0.75541,-1.965135 h 7.6321 v -7.631078 a 2.9471207,2.9471207 0 0 0 1.96463,0.754883 2.9471207,2.9471207 0 0 0 2.94743,-2.947448 2.9471207,2.9471207 0 0 0 -2.94743,-2.946941 2.9471207,2.9471207 0 0 0 -1.96463,0.755391 v -7.632093 h -7.6321 a 2.9471207,2.9471207 0 0 1 0.75541,1.964626 2.9471207,2.9471207 0 0 1 -2.94695,2.94745 2.9471207,2.9471207 0 0 1 -2.94746,-2.94745 2.9471207,2.9471207 0 0 1 0.75488,-1.964626 h -7.63107 v 7.631587 a 2.9471207,2.9471207 0 0 1 1.96462,-0.754885 2.9471207,2.9471207 0 0 1 2.94694,2.946941 2.9471207,2.9471207 0 0 1 -2.94694,2.947448 2.9471207,2.9471207 0 0 1 -1.96462,-0.754883 z"
       style="fill:#ff0000;stroke:#ff0000;stroke-width:0.25991964;fill-opacity:1;stroke-opacity:1"
       id="path4466" />
    <path
       inkscape:connector-curvature="0"
       d="m 28.760394,-24.864595 a 2.9471207,2.9471207 0 0 0 2.947455,-2.946941 2.9471207,2.9471207 0 0 0 -0.755396,-1.965135 h 7.631588 v -7.631078 a 2.9471207,2.9471207 0 0 1 -1.964629,0.754882 2.9471207,2.9471207 0 0 1 -2.946934,-2.947447 2.9471207,2.9471207 0 0 1 2.946934,-2.946941 2.9471207,2.9471207 0 0 1 1.964629,0.754376 v -7.631078 h -7.631077 a 2.9471207,2.9471207 0 0 0 0.754885,-1.964629 2.9471207,2.9471207 0 0 0 -2.947455,-2.947447 2.9471207,2.9471207 0 0 0 -2.946934,2.947447 2.9471207,2.9471207 0 0 0 0.755387,1.964629 h -7.632092 v 7.632093 a 2.9471207,2.9471207 0 0 1 1.964627,-0.755391 2.9471207,2.9471207 0 0 1 2.947449,2.946941 2.9471207,2.9471207 0 0 1 -2.947449,2.947447 2.9471207,2.9471207 0 0 1 -1.964627,-0.754882 v 7.631078 h 7.631591 a 2.9471207,2.9471207 0 0 0 -0.754886,1.965135 2.9471207,2.9471207 0 0 0 2.946934,2.946941 z"
       style="fill:#ff0000;stroke:#ff0000;stroke-width:0.25991964;fill-opacity:1;stroke-opacity:1"
       id="path4484" />
    <path
       inkscape:connector-curvature="0"
       d="m 235.05416,-29.776671 h 7.63159 a 2.9471207,2.9471207 0 0 0 -0.7554,1.965135 2.9471207,2.9471207 0 0 0 2.94746,2.946941 2.9471207,2.9471207 0 0 0 2.94695,-2.946941 2.9471207,2.9471207 0 0 0 -0.75541,-1.965135 h 7.6321 v -7.631078 a 2.9471207,2.9471207 0 0 0 1.96463,0.754882 2.9471207,2.9471207 0 0 0 2.94743,-2.947447 2.9471207,2.9471207 0 0 0 -2.94743,-2.946941 2.9471207,2.9471207 0 0 0 -1.96463,0.755391 v -7.632093 h -7.6321 a 2.9471207,2.9471207 0 0 1 0.75541,1.964626 2.9471207,2.9471207 0 0 1 -2.94695,2.94745 2.9471207,2.9471207 0 0 1 -2.94746,-2.94745 2.9471207,2.9471207 0 0 1 0.75488,-1.964626 h -7.63107 v 7.631586 a 2.9471207,2.9471207 0 0 1 1.96462,-0.754884 2.9471207,2.9471207 0 0 1 2.94694,2.946941 2.9471207,2.9471207 0 0 1 -2.94694,2.947447 2.9471207,2.9471207 0 0 1 -1.96462,-0.754882 z"
       style="fill:#ff0000;stroke:#ff0000;stroke-width:0.25991964;fill-opacity:1;stroke-opacity:1"
       id="path4506" />
    <path
       inkscape:connector-curvature="0"
       d="m 14.021968,-19.953026 a 2.9471207,2.9471207 0 0 0 2.946941,2.947448 2.9471207,2.9471207 0 0 0 1.965135,-0.755392 v 7.631587 h 7.63108 a 2.9471207,2.9471207 0 0 1 -0.754886,-1.964626 2.9471207,2.9471207 0 0 1 2.947445,-2.946941 2.9471207,2.9471207 0 0 1 2.946944,2.946941 2.9471207,2.9471207 0 0 1 -0.754375,1.964626 h 7.631078 v -7.631078 a 2.9471207,2.9471207 0 0 0 1.964629,0.754883 2.9471207,2.9471207 0 0 0 2.947445,-2.947448 2.9471207,2.9471207 0 0 0 -2.947445,-2.946941 2.9471207,2.9471207 0 0 0 -1.964629,0.755392 v -7.632094 h -7.63209 a 2.9471207,2.9471207 0 0 1 0.755387,1.964626 2.9471207,2.9471207 0 0 1 -2.946944,2.947451 2.9471207,2.9471207 0 0 1 -2.947445,-2.947451 2.9471207,2.9471207 0 0 1 0.754886,-1.964626 h -7.63108 v 7.631587 a 2.9471207,2.9471207 0 0 0 -1.965135,-0.754885 2.9471207,2.9471207 0 0 0 -2.946941,2.946941 z"
       style="fill:#ff0000;stroke:#ff0000;stroke-width:0.25991964;fill-opacity:1;stroke-opacity:1"
       id="path4524" />
    <path
       inkscape:connector-curvature="0"
       d="m 235.05416,-29.779382 v 7.631077 a 2.9471207,2.9471207 0 0 1 1.96462,-0.754882 2.9471207,2.9471207 0 0 1 2.94694,2.947447 2.9471207,2.9471207 0 0 1 -2.94694,2.946941 2.9471207,2.9471207 0 0 1 -1.96462,-0.754375 v 7.631077 h 7.63159 a 2.9471207,2.9471207 0 0 1 -0.7554,-1.964626 2.9471207,2.9471207 0 0 1 2.94746,-2.947449 2.9471207,2.9471207 0 0 1 2.94695,2.947449 2.9471207,2.9471207 0 0 1 -0.75439,1.964626 h 7.63108 v -7.632094 a 2.9471207,2.9471207 0 0 1 -1.96463,0.755392 2.9471207,2.9471207 0 0 1 -2.94745,-2.946941 2.9471207,2.9471207 0 0 1 2.94745,-2.947447 2.9471207,2.9471207 0 0 1 1.96463,0.754882 v -7.631077 h -7.63158 a 2.9471207,2.9471207 0 0 1 0.75489,1.964626 2.9471207,2.9471207 0 0 1 -2.94695,2.946941 2.9471207,2.9471207 0 0 1 -2.94746,-2.946941 2.9471207,2.9471207 0 0 1 0.75488,-1.964626 z"
       style="fill:#ff0000;stroke:#ff0000;stroke-width:0.25991964;fill-opacity:1;stroke-opacity:1"
       id="path4546" />
    <path
       inkscape:connector-curvature="0"
       d="M 14.021968,-0.30574345 A 2.9471207,2.9471207 0 0 0 16.968909,2.6417042 2.9471207,2.9471207 0 0 0 18.934044,1.886312 v 7.6315801 h 7.63159 a 2.9471207,2.9471207 0 0 0 -0.755396,1.9651499 2.9471207,2.9471207 0 0 0 2.947445,2.946944 2.9471207,2.9471207 0 0 0 2.946944,-2.946944 2.9471207,2.9471207 0 0 0 -0.755387,-1.9651499 h 7.63209 V 1.8868219 a 2.9471207,2.9471207 0 0 0 1.964629,0.7548823 2.9471207,2.9471207 0 0 0 2.947445,-2.94744765 2.9471207,2.9471207 0 0 0 -2.947445,-2.94694035 2.9471207,2.9471207 0 0 0 -1.964629,0.7553919 v -7.6320911 h -7.631078 a 2.9471207,2.9471207 0 0 0 0.754375,-1.964628 2.9471207,2.9471207 0 0 0 -2.946944,-2.947448 2.9471207,2.9471207 0 0 0 -2.947445,2.947448 2.9471207,2.9471207 0 0 0 0.755396,1.964628 h -7.63159 v 7.6315842 a 2.9471207,2.9471207 0 0 0 -1.965135,-0.754885 2.9471207,2.9471207 0 0 0 -2.946941,2.94694035 z"
       style="fill:#ff0000;stroke:#ff0000;stroke-width:0.25991964;fill-opacity:1;stroke-opacity:1"
       id="path4564" />
    <path
       inkscape:connector-curvature="0"
       d="m 244.88051,14.429986 a 2.9471207,2.9471207 0 0 0 2.94745,-2.946944 2.9471207,2.9471207 0 0 0 -0.75539,-1.9651499 h 7.63158 v -7.631582 a 2.9471207,2.9471207 0 0 0 1.96515,0.7553911 2.9471207,2.9471207 0 0 0 2.94694,-2.9474476 2.9471207,2.9471207 0 0 0 -2.94694,-2.9469393 2.9471207,2.9471207 0 0 0 -1.96515,0.7553909 v -7.6320912 h -7.63108 a 2.9471207,2.9471207 0 0 0 0.75489,-1.964628 2.9471207,2.9471207 0 0 0 -2.94745,-2.947448 2.9471207,2.9471207 0 0 0 -2.94694,2.947448 2.9471207,2.9471207 0 0 0 0.75541,1.964628 h -7.6321 v 7.6310744 a 2.9471207,2.9471207 0 0 0 -1.96463,-0.7543741 2.9471207,2.9471207 0 0 0 -2.94746,2.9469393 2.9471207,2.9471207 0 0 0 2.94746,2.9474476 2.9471207,2.9471207 0 0 0 1.96463,-0.7553911 v 7.631582 h 7.63158 a 2.9471207,2.9471207 0 0 0 -0.75489,1.9651499 2.9471207,2.9471207 0 0 0 2.94694,2.946944 z"
       style="fill:#ff0000;stroke:#ff0000;stroke-width:0.25991964;fill-opacity:1;stroke-opacity:1"
       id="path4586" />
    <path
       inkscape:connector-curvature="0"
       d="m 43.496115,19.338831 a 2.9471207,2.9471207 0 0 0 -2.946934,-2.947436 2.9471207,2.9471207 0 0 0 -1.96514,0.755377 V 9.5151906 H 30.952964 A 2.9471207,2.9471207 0 0 1 31.707849,11.47982 2.9471207,2.9471207 0 0 1 28.760394,14.426764 2.9471207,2.9471207 0 0 1 25.81346,11.47982 2.9471207,2.9471207 0 0 1 26.567835,9.5151906 h -7.63108 v 7.6310904 a 2.9471207,2.9471207 0 0 0 -1.964629,-0.754886 2.9471207,2.9471207 0 0 0 -2.947448,2.947436 2.9471207,2.9471207 0 0 0 2.947448,2.946944 2.9471207,2.9471207 0 0 0 1.964629,-0.755376 v 7.632068 h 7.632092 a 2.9471207,2.9471207 0 0 1 -0.755387,-1.964628 2.9471207,2.9471207 0 0 1 2.946934,-2.947435 2.9471207,2.9471207 0 0 1 2.947455,2.947435 2.9471207,2.9471207 0 0 1 -0.754885,1.964628 h 7.631077 V 21.53089 a 2.9471207,2.9471207 0 0 0 1.96514,0.754885 2.9471207,2.9471207 0 0 0 2.946934,-2.946944 z"
       style="fill:#ff0000;stroke:#ff0000;stroke-width:0.25991964;fill-opacity:1;stroke-opacity:1"
       id="path4604" />
    <path
       inkscape:connector-curvature="0"
       d="m 259.61624,19.338861 a 2.9471207,2.9471207 0 0 0 -2.94694,-2.947466 2.9471207,2.9471207 0 0 0 -1.96512,0.755406 V 9.5151906 h -7.63109 a 2.9471207,2.9471207 0 0 1 0.75489,1.9646294 2.9471207,2.9471207 0 0 1 -2.94747,2.946944 2.9471207,2.9471207 0 0 1 -2.94694,-2.946944 2.9471207,2.9471207 0 0 1 0.75439,-1.9646294 h -7.63108 v 7.6316104 a 2.9471207,2.9471207 0 0 1 1.96463,-0.755406 2.9471207,2.9471207 0 0 1 2.94746,2.947466 2.9471207,2.9471207 0 0 1 -2.94746,2.946934 2.9471207,2.9471207 0 0 1 -1.96463,-0.754385 v 7.631087 h 7.6321 a 2.9471207,2.9471207 0 0 1 -0.75541,-1.964628 2.9471207,2.9471207 0 0 1 2.94694,-2.947465 2.9471207,2.9471207 0 0 1 2.94747,2.947465 2.9471207,2.9471207 0 0 1 -0.75489,1.964628 h 7.63109 v -7.631578 a 2.9471207,2.9471207 0 0 0 1.96512,0.754876 2.9471207,2.9471207 0 0 0 2.94694,-2.946934 z"
       style="fill:#ff0000;stroke:#ff0000;stroke-width:0.25991964;fill-opacity:1;stroke-opacity:1"
       id="path4626" />
    <path
       inkscape:connector-curvature="0"
       d="m 14.021968,38.988835 a 2.9471207,2.9471207 0 0 0 2.946941,2.947435 2.9471207,2.9471207 0 0 0 1.965135,-0.755376 v 7.631579 h 7.63159 a 2.9471207,2.9471207 0 0 0 -0.755396,1.965149 2.9471207,2.9471207 0 0 0 2.947445,2.946944 2.9471207,2.9471207 0 0 0 2.946944,-2.946944 2.9471207,2.9471207 0 0 0 -0.755387,-1.965149 h 7.63209 v -7.631088 a 2.9471207,2.9471207 0 0 0 1.964629,0.754885 2.9471207,2.9471207 0 0 0 2.947445,-2.947435 2.9471207,2.9471207 0 0 0 -2.947445,-2.946943 2.9471207,2.9471207 0 0 0 -1.964629,0.755406 v -7.6321 h -7.631078 a 2.9471207,2.9471207 0 0 0 0.754375,-1.964628 2.9471207,2.9471207 0 0 0 -2.946944,-2.947464 2.9471207,2.9471207 0 0 0 -2.947445,2.947464 2.9471207,2.9471207 0 0 0 0.755396,1.964628 h -7.63159 v 7.631579 a 2.9471207,2.9471207 0 0 0 -1.965135,-0.754885 2.9471207,2.9471207 0 0 0 -2.946941,2.946943 z"
       style="fill:#ff0000;stroke:#ff0000;stroke-width:0.25991964;fill-opacity:1;stroke-opacity:1"
       id="path4644" />
    <path
       inkscape:connector-curvature="0"
       d="m 244.87781,24.250404 a 2.9471207,2.9471207 0 0 0 -2.94746,2.946944 2.9471207,2.9471207 0 0 0 0.7554,1.965119 h -7.63159 v 7.631088 a 2.9471207,2.9471207 0 0 1 1.96462,-0.754885 2.9471207,2.9471207 0 0 1 2.94694,2.947464 2.9471207,2.9471207 0 0 1 -2.94694,2.946944 2.9471207,2.9471207 0 0 1 -1.96462,-0.754394 v 7.631087 h 7.63107 a 2.9471207,2.9471207 0 0 0 -0.75488,1.964629 2.9471207,2.9471207 0 0 0 2.94746,2.947435 2.9471207,2.9471207 0 0 0 2.94695,-2.947435 2.9471207,2.9471207 0 0 0 -0.75541,-1.964629 h 7.6321 v -7.632099 a 2.9471207,2.9471207 0 0 1 -1.96463,0.755406 2.9471207,2.9471207 0 0 1 -2.94745,-2.946944 2.9471207,2.9471207 0 0 1 2.94745,-2.947464 2.9471207,2.9471207 0 0 1 1.96463,0.754885 v -7.631088 h -7.63158 a 2.9471207,2.9471207 0 0 0 0.75489,-1.965119 2.9471207,2.9471207 0 0 0 -2.94695,-2.946944 z"
       style="fill:#ff0000;stroke:#ff0000;stroke-width:0.25991964;fill-opacity:1;stroke-opacity:1"
       id="path4666" />
    <path
       inkscape:connector-curvature="0"
       d="m 43.496115,58.633408 a 2.9471207,2.9471207 0 0 0 -2.946934,-2.947435 2.9471207,2.9471207 0 0 0 -1.96514,0.755377 V 48.809771 H 30.952964 A 2.9471207,2.9471207 0 0 1 31.707849,50.7744 2.9471207,2.9471207 0 0 1 28.760394,53.721344 2.9471207,2.9471207 0 0 1 25.81346,50.7744 2.9471207,2.9471207 0 0 1 26.567835,48.809771 h -7.63108 v 7.631087 a 2.9471207,2.9471207 0 0 0 -1.964629,-0.754885 2.9471207,2.9471207 0 0 0 -2.947448,2.947435 2.9471207,2.9471207 0 0 0 2.947448,2.946944 2.9471207,2.9471207 0 0 0 1.964629,-0.755406 v 7.632099 h 7.632092 a 2.9471207,2.9471207 0 0 1 -0.755387,-1.964629 2.9471207,2.9471207 0 0 1 2.946934,-2.947435 2.9471207,2.9471207 0 0 1 2.947455,2.947435 2.9471207,2.9471207 0 0 1 -0.754885,1.964629 h 7.631077 v -7.631578 a 2.9471207,2.9471207 0 0 0 1.96514,0.754885 2.9471207,2.9471207 0 0 0 2.946934,-2.946944 z"
       style="fill:#ff0000;stroke:#ff0000;stroke-width:0.25991964;fill-opacity:1;stroke-opacity:1"
       id="path4684" />
    <path
       inkscape:connector-curvature="0"
       d="m 230.14208,58.63611 a 2.9471207,2.9471207 0 0 0 2.94695,2.947464 2.9471207,2.9471207 0 0 0 1.96513,-0.755406 v 7.631608 h 7.63107 a 2.9471207,2.9471207 0 0 1 -0.75488,-1.964629 2.9471207,2.9471207 0 0 1 2.94746,-2.946944 2.9471207,2.9471207 0 0 1 2.94695,2.946944 2.9471207,2.9471207 0 0 1 -0.75439,1.964629 h 7.63108 v -7.631608 a 2.9471207,2.9471207 0 0 1 -1.96463,0.755406 2.9471207,2.9471207 0 0 1 -2.94745,-2.947464 2.9471207,2.9471207 0 0 1 2.94745,-2.946944 2.9471207,2.9471207 0 0 1 1.96463,0.754394 v -7.631087 h -7.6321 a 2.9471207,2.9471207 0 0 1 0.75541,1.964629 2.9471207,2.9471207 0 0 1 -2.94695,2.947464 2.9471207,2.9471207 0 0 1 -2.94746,-2.947464 2.9471207,2.9471207 0 0 1 0.75488,-1.964629 h -7.63107 v 7.631578 a 2.9471207,2.9471207 0 0 0 -1.96513,-0.754885 2.9471207,2.9471207 0 0 0 -2.94695,2.946944 z"
       style="fill:#ff0000;stroke:#ff0000;stroke-width:0.25991964;fill-opacity:1;stroke-opacity:1"
       id="path4706" />
    <path
       inkscape:connector-curvature="0"
       d="m 14.021965,78.283413 a 2.9471207,2.9471207 0 0 0 2.946941,2.947435 2.9471207,2.9471207 0 0 0 1.965135,-0.755376 v 7.631578 h 7.631584 a 2.9471207,2.9471207 0 0 0 -0.755387,1.965121 2.9471207,2.9471207 0 0 0 2.947445,2.946943 2.9471207,2.9471207 0 0 0 2.946944,-2.946943 2.9471207,2.9471207 0 0 0 -0.755396,-1.965121 h 7.632099 v -7.631087 a 2.9471207,2.9471207 0 0 0 1.964629,0.754885 2.9471207,2.9471207 0 0 0 2.947445,-2.947435 2.9471207,2.9471207 0 0 0 -2.947445,-2.946944 2.9471207,2.9471207 0 0 0 -1.964629,0.755377 v -7.63207 h -7.631078 a 2.9471207,2.9471207 0 0 0 0.754375,-1.964629 2.9471207,2.9471207 0 0 0 -2.946944,-2.947464 2.9471207,2.9471207 0 0 0 -2.947445,2.947464 2.9471207,2.9471207 0 0 0 0.755387,1.964629 h -7.631584 v 7.631579 a 2.9471207,2.9471207 0 0 0 -1.965135,-0.754886 2.9471207,2.9471207 0 0 0 -2.946941,2.946944 z"
       style="fill:#ff0000;stroke:#ff0000;stroke-width:0.25991964;fill-opacity:1;stroke-opacity:1"
       id="path4724" />
    <path
       inkscape:connector-curvature="0"
       d="m 244.87781,63.544981 a 2.9471207,2.9471207 0 0 0 -2.94746,2.946944 2.9471207,2.9471207 0 0 0 0.7554,1.96512 h -7.63159 v 7.631608 a 2.9471207,2.9471207 0 0 0 -1.96513,-0.755406 2.9471207,2.9471207 0 0 0 -2.94695,2.947465 2.9471207,2.9471207 0 0 0 2.94695,2.946934 2.9471207,2.9471207 0 0 0 1.96513,-0.755397 v 7.6321 h 7.63107 a 2.9471207,2.9471207 0 0 0 -0.75488,1.964629 2.9471207,2.9471207 0 0 0 2.94746,2.947435 2.9471207,2.9471207 0 0 0 2.94695,-2.947435 2.9471207,2.9471207 0 0 0 -0.75541,-1.964629 h 7.6321 v -7.631088 a 2.9471207,2.9471207 0 0 0 1.96463,0.754385 2.9471207,2.9471207 0 0 0 2.94743,-2.946934 2.9471207,2.9471207 0 0 0 -2.94743,-2.947465 2.9471207,2.9471207 0 0 0 -1.96463,0.755406 v -7.631608 h -7.63158 a 2.9471207,2.9471207 0 0 0 0.75489,-1.96512 2.9471207,2.9471207 0 0 0 -2.94695,-2.946944 z"
       style="fill:#ff0000;stroke:#ff0000;stroke-width:0.25991964;fill-opacity:1;stroke-opacity:1"
       id="path4746" />
    <path
       inkscape:connector-curvature="0"
       d="m 14.021968,97.930687 a 2.9471207,2.9471207 0 0 0 2.946941,2.947463 2.9471207,2.9471207 0 0 0 1.965135,-0.7554 v 7.63163 h 7.63159 a 2.9471207,2.9471207 0 0 0 -0.755396,1.96512 2.9471207,2.9471207 0 0 0 2.947445,2.94695 2.9471207,2.9471207 0 0 0 2.946944,-2.94695 2.9471207,2.9471207 0 0 0 -0.755387,-1.96512 h 7.63209 v -7.63111 a 2.9471207,2.9471207 0 0 0 1.964629,0.75488 2.9471207,2.9471207 0 0 0 2.947445,-2.947463 2.9471207,2.9471207 0 0 0 -2.947445,-2.946943 2.9471207,2.9471207 0 0 0 -1.964629,0.755405 V 88.10705 h -7.63209 a 2.9471207,2.9471207 0 0 1 0.755387,1.964629 2.9471207,2.9471207 0 0 1 -2.946944,2.947435 2.9471207,2.9471207 0 0 1 -2.947445,-2.947435 2.9471207,2.9471207 0 0 1 0.754886,-1.964629 h -7.63108 v 7.631579 a 2.9471207,2.9471207 0 0 0 -1.965135,-0.754885 2.9471207,2.9471207 0 0 0 -2.946941,2.946943 z"
       style="fill:#ff0000;stroke:#ff0000;stroke-width:0.25991964;fill-opacity:1;stroke-opacity:1"
       id="path4764" />
    <path
       inkscape:connector-curvature="0"
       d="m 235.05416,107.75435 h 7.63107 a 2.9471207,2.9471207 0 0 1 -0.75488,-1.96463 2.9471207,2.9471207 0 0 1 2.94744,-2.94696 2.9471207,2.9471207 0 0 1 2.94695,2.94696 2.9471207,2.9471207 0 0 1 -0.75437,1.96463 h 7.63106 v -7.6316 a 2.9471207,2.9471207 0 0 1 -1.96463,0.75537 2.9471207,2.9471207 0 0 1 -2.94743,-2.947433 2.9471207,2.9471207 0 0 1 2.94743,-2.946943 2.9471207,2.9471207 0 0 1 1.96463,0.754364 V 88.10705 h -7.63208 a 2.9471207,2.9471207 0 0 1 0.75539,1.964629 2.9471207,2.9471207 0 0 1 -2.94695,2.947435 2.9471207,2.9471207 0 0 1 -2.94744,-2.947435 2.9471207,2.9471207 0 0 1 0.75488,-1.964629 h -7.63107 v 7.631579 a 2.9471207,2.9471207 0 0 1 1.96462,-0.754885 2.9471207,2.9471207 0 0 1 2.94694,2.946943 2.9471207,2.9471207 0 0 1 -2.94694,2.947433 2.9471207,2.9471207 0 0 1 -1.96462,-0.75488 z"
       style="fill:#ff0000;stroke:#ff0000;stroke-width:0.25991964;fill-opacity:1;stroke-opacity:1"
       id="path4786" />
    <path
       inkscape:connector-curvature="0"
       d="m 28.760394,132.31372 a 2.9471207,2.9471207 0 0 0 2.947455,-2.94694 2.9471207,2.9471207 0 0 0 -0.755396,-1.96512 h 7.631588 v -7.63109 a 2.9471207,2.9471207 0 0 1 -1.964629,0.75489 2.9471207,2.9471207 0 0 1 -2.946934,-2.94744 2.9471207,2.9471207 0 0 1 2.946934,-2.94694 2.9471207,2.9471207 0 0 1 1.964629,0.75436 v -7.63109 h -7.631588 a 2.9471207,2.9471207 0 0 1 0.755396,1.96463 2.9471207,2.9471207 0 0 1 -2.947455,2.94747 2.9471207,2.9471207 0 0 1 -2.946934,-2.94747 2.9471207,2.9471207 0 0 1 0.754375,-1.96463 h -7.63108 v 7.6321 a 2.9471207,2.9471207 0 0 1 1.964627,-0.75537 2.9471207,2.9471207 0 0 1 2.947449,2.94694 2.9471207,2.9471207 0 0 1 -2.947449,2.94744 2.9471207,2.9471207 0 0 1 -1.964627,-0.75489 v 7.63109 h 7.631591 a 2.9471207,2.9471207 0 0 0 -0.754886,1.96512 2.9471207,2.9471207 0 0 0 2.946934,2.94694 z"
       style="fill:#ff0000;stroke:#ff0000;stroke-width:0.25991964;fill-opacity:1;stroke-opacity:1"
       id="path4804" />
    <path
       inkscape:connector-curvature="0"
       d="m 63.143399,117.57529 a 2.9471207,2.9471207 0 0 0 -2.946934,-2.94744 2.9471207,2.9471207 0 0 0 -1.96514,0.75538 v -7.63158 h -7.631588 a 2.9471207,2.9471207 0 0 0 0.755396,-1.96512 2.9471207,2.9471207 0 0 0 -2.947445,-2.94696 2.9471207,2.9471207 0 0 0 -2.946944,2.94696 2.9471207,2.9471207 0 0 0 0.755387,1.96512 h -7.63209 v 7.63109 a 2.9471207,2.9471207 0 0 0 -1.964629,-0.75489 2.9471207,2.9471207 0 0 0 -2.947445,2.94744 2.9471207,2.9471207 0 0 0 2.947445,2.94694 2.9471207,2.9471207 0 0 0 1.964629,-0.75537 v 7.6321 h 7.63209 a 2.9471207,2.9471207 0 0 1 -0.755387,-1.96463 2.9471207,2.9471207 0 0 1 2.946944,-2.94747 2.9471207,2.9471207 0 0 1 2.947445,2.94747 2.9471207,2.9471207 0 0 1 -0.754885,1.96463 h 7.631077 v -7.63161 a 2.9471207,2.9471207 0 0 0 1.96514,0.75488 2.9471207,2.9471207 0 0 0 2.946934,-2.94694 z"
       style="fill:#ff0000;stroke:#ff0000;stroke-width:0.25991964;fill-opacity:1;stroke-opacity:1"
       id="path4806" />
    <path
       inkscape:connector-curvature="0"
       d="m 68.052261,102.83957 a 2.9471207,2.9471207 0 0 0 -2.947455,2.94696 2.9471207,2.9471207 0 0 0 0.755396,1.96512 h -7.631588 v 7.63109 a 2.9471207,2.9471207 0 0 1 1.964629,-0.75489 2.9471207,2.9471207 0 0 1 2.946944,2.94746 2.9471207,2.9471207 0 0 1 -2.946944,2.94694 2.9471207,2.9471207 0 0 1 -1.964629,-0.75438 v 7.63109 h 7.631077 a 2.9471207,2.9471207 0 0 0 -0.754885,1.96462 2.9471207,2.9471207 0 0 0 2.947455,2.94744 2.9471207,2.9471207 0 0 0 2.946934,-2.94744 2.9471207,2.9471207 0 0 0 -0.755387,-1.96462 h 7.63209 v -7.6321 a 2.9471207,2.9471207 0 0 1 -1.96462,0.75539 2.9471207,2.9471207 0 0 1 -2.947454,-2.94694 2.9471207,2.9471207 0 0 1 2.947454,-2.94746 2.9471207,2.9471207 0 0 1 1.96462,0.75489 v -7.63109 h -7.631589 a 2.9471207,2.9471207 0 0 0 0.754886,-1.96512 2.9471207,2.9471207 0 0 0 -2.946934,-2.94696 z"
       style="fill:#ff0000;stroke:#ff0000;stroke-width:0.25991964;fill-opacity:1;stroke-opacity:1"
       id="path4808" />
    <path
       inkscape:connector-curvature="0"
       d="m 72.963824,117.57802 a 2.9471207,2.9471207 0 0 0 2.946944,2.94744 2.9471207,2.9471207 0 0 0 1.96514,-0.75538 v 7.63158 h 7.631077 a 2.9471207,2.9471207 0 0 1 -0.754885,-1.96463 2.9471207,2.9471207 0 0 1 2.947445,-2.94695 2.9471207,2.9471207 0 0 1 2.946943,2.94695 2.9471207,2.9471207 0 0 1 -0.754374,1.96463 h 7.63105 v -7.63158 a 2.9471207,2.9471207 0 0 1 -1.964617,0.75538 2.9471207,2.9471207 0 0 1 -2.947432,-2.94744 2.9471207,2.9471207 0 0 1 2.947432,-2.94694 2.9471207,2.9471207 0 0 1 1.964617,0.75436 v -7.63109 h -7.632072 a 2.9471207,2.9471207 0 0 1 0.755396,1.96463 2.9471207,2.9471207 0 0 1 -2.946943,2.94747 2.9471207,2.9471207 0 0 1 -2.947445,-2.94747 2.9471207,2.9471207 0 0 1 0.754885,-1.96463 h -7.631077 v 7.63161 a 2.9471207,2.9471207 0 0 0 -1.96514,-0.75488 2.9471207,2.9471207 0 0 0 -2.946944,2.94694 z"
       style="fill:#ff0000;stroke:#ff0000;stroke-width:0.25991964;fill-opacity:1;stroke-opacity:1"
       id="path4810" />
    <path
       inkscape:connector-curvature="0"
       d="m 92.611105,117.57802 a 2.9471207,2.9471207 0 0 0 2.946931,2.94744 2.9471207,2.9471207 0 0 0 1.965128,-0.75541 v 7.63161 h 7.631076 a 2.9471207,2.9471207 0 0 1 -0.75489,-1.96463 2.9471207,2.9471207 0 0 1 2.94745,-2.94695 2.9471207,2.9471207 0 0 1 2.94694,2.94695 2.9471207,2.9471207 0 0 1 -0.75438,1.96463 h 7.63108 v -7.63109 a 2.9471207,2.9471207 0 0 0 1.96463,0.75489 2.9471207,2.9471207 0 0 0 2.94745,-2.94744 2.9471207,2.9471207 0 0 0 -2.94745,-2.94694 2.9471207,2.9471207 0 0 0 -1.96463,0.75537 v -7.6321 h -7.6321 a 2.9471207,2.9471207 0 0 1 0.7554,1.96463 2.9471207,2.9471207 0 0 1 -2.94694,2.94747 2.9471207,2.9471207 0 0 1 -2.94745,-2.94747 2.9471207,2.9471207 0 0 1 0.75489,-1.96463 h -7.631076 v 7.63161 a 2.9471207,2.9471207 0 0 0 -1.965128,-0.75488 2.9471207,2.9471207 0 0 0 -2.946931,2.94694 z"
       style="fill:#ff0000;stroke:#ff0000;stroke-width:0.25991964;fill-opacity:1;stroke-opacity:1"
       id="path4812" />
    <path
       inkscape:connector-curvature="0"
       d="m 136.82043,107.75165 h -7.63108 a 2.9471207,2.9471207 0 0 1 0.75489,1.96463 2.9471207,2.9471207 0 0 1 -2.94745,2.94695 2.9471207,2.9471207 0 0 1 -2.94694,-2.94695 2.9471207,2.9471207 0 0 1 0.75437,-1.96463 h -7.63108 v 7.63158 a 2.9471207,2.9471207 0 0 1 1.96463,-0.75538 2.9471207,2.9471207 0 0 1 2.94745,2.94744 2.9471207,2.9471207 0 0 1 -2.94745,2.94694 2.9471207,2.9471207 0 0 1 -1.96463,-0.75439 v 7.63109 h 7.6321 a 2.9471207,2.9471207 0 0 1 -0.75539,-1.96463 2.9471207,2.9471207 0 0 1 2.94694,-2.94744 2.9471207,2.9471207 0 0 1 2.94745,2.94744 2.9471207,2.9471207 0 0 1 -0.75489,1.96463 h 7.63108 v -7.63158 a 2.9471207,2.9471207 0 0 1 -1.96462,0.75488 2.9471207,2.9471207 0 0 1 -2.94695,-2.94694 2.9471207,2.9471207 0 0 1 2.94695,-2.94744 2.9471207,2.9471207 0 0 1 1.96462,0.75489 z"
       style="fill:#ff0000;stroke:#ff0000;stroke-width:0.25991964;fill-opacity:1;stroke-opacity:1"
       id="path4814" />
    <path
       inkscape:connector-curvature="0"
       d="m 131.90566,117.57802 a 2.9471207,2.9471207 0 0 0 2.94695,2.94745 2.9471207,2.9471207 0 0 0 1.96513,-0.75539 v 7.63158 h 7.63158 a 2.9471207,2.9471207 0 0 0 -0.75538,1.96515 2.9471207,2.9471207 0 0 0 2.94744,2.94693 2.9471207,2.9471207 0 0 0 2.94695,-2.94693 2.9471207,2.9471207 0 0 0 -0.7554,-1.96515 h 7.6321 v -7.63106 a 2.9471207,2.9471207 0 0 0 1.96463,0.75487 2.9471207,2.9471207 0 0 0 2.94744,-2.94745 2.9471207,2.9471207 0 0 0 -2.94744,-2.94694 2.9471207,2.9471207 0 0 0 -1.96463,0.7554 v -7.6321 h -7.63108 a 2.9471207,2.9471207 0 0 0 0.75438,-1.96463 2.9471207,2.9471207 0 0 0 -2.94695,-2.94746 2.9471207,2.9471207 0 0 0 -2.94744,2.94746 2.9471207,2.9471207 0 0 0 0.75538,1.96463 h -7.63158 v 7.63158 a 2.9471207,2.9471207 0 0 0 -1.96513,-0.75488 2.9471207,2.9471207 0 0 0 -2.94695,2.94694 z"
       style="fill:#ff0000;stroke:#ff0000;stroke-width:0.25991964;fill-opacity:1;stroke-opacity:1"
       id="path4816" />
    <path
       inkscape:connector-curvature="0"
       d="m 156.46502,127.40166 h 7.63108 a 2.9471207,2.9471207 0 0 1 -0.75489,-1.96463 2.9471207,2.9471207 0 0 1 2.94746,-2.94695 2.9471207,2.9471207 0 0 1 2.94693,2.94695 2.9471207,2.9471207 0 0 1 -0.75437,1.96463 h 7.63107 v -7.63158 a 2.9471207,2.9471207 0 0 1 -1.96462,0.75538 2.9471207,2.9471207 0 0 1 -2.94745,-2.94744 2.9471207,2.9471207 0 0 1 2.94745,-2.94694 2.9471207,2.9471207 0 0 1 1.96462,0.75436 v -7.63106 h -7.63209 a 2.9471207,2.9471207 0 0 1 0.75539,1.96463 2.9471207,2.9471207 0 0 1 -2.94693,2.94744 2.9471207,2.9471207 0 0 1 -2.94746,-2.94744 2.9471207,2.9471207 0 0 1 0.75489,-1.96463 h -7.63108 v 7.63158 a 2.9471207,2.9471207 0 0 1 1.96463,-0.75488 2.9471207,2.9471207 0 0 1 2.94694,2.94694 2.9471207,2.9471207 0 0 1 -2.94694,2.94744 2.9471207,2.9471207 0 0 1 -1.96463,-0.75489 z"
       style="fill:#ff0000;stroke:#ff0000;stroke-width:0.25991964;fill-opacity:1;stroke-opacity:1"
       id="path4818" />
    <path
       inkscape:connector-curvature="0"
       d="m 171.20023,117.57802 a 2.9471207,2.9471207 0 0 0 2.94693,2.94744 2.9471207,2.9471207 0 0 0 1.96514,-0.75538 v 7.63158 h 7.63108 a 2.9471207,2.9471207 0 0 1 -0.75488,-1.96463 2.9471207,2.9471207 0 0 1 2.94744,-2.94695 2.9471207,2.9471207 0 0 1 2.94694,2.94695 2.9471207,2.9471207 0 0 1 -0.75437,1.96463 h 7.63108 v -7.63109 a 2.9471207,2.9471207 0 0 0 1.96463,0.75489 2.9471207,2.9471207 0 0 0 2.94744,-2.94744 2.9471207,2.9471207 0 0 0 -2.94744,-2.94694 2.9471207,2.9471207 0 0 0 -1.96463,0.75537 v -7.6321 h -7.63209 a 2.9471207,2.9471207 0 0 1 0.75538,1.96463 2.9471207,2.9471207 0 0 1 -2.94694,2.94747 2.9471207,2.9471207 0 0 1 -2.94744,-2.94747 2.9471207,2.9471207 0 0 1 0.75488,-1.96463 h -7.63108 v 7.63161 a 2.9471207,2.9471207 0 0 0 -1.96514,-0.75488 2.9471207,2.9471207 0 0 0 -2.94693,2.94694 z"
       style="fill:#ff0000;stroke:#ff0000;stroke-width:0.25991964;fill-opacity:1;stroke-opacity:1"
       id="path4820" />
    <path
       inkscape:connector-curvature="0"
       d="m 205.58323,102.83957 a 2.9471207,2.9471207 0 0 0 -2.94744,2.94696 2.9471207,2.9471207 0 0 0 0.75539,1.96512 h -7.63159 v 7.63109 a 2.9471207,2.9471207 0 0 1 1.96463,-0.75489 2.9471207,2.9471207 0 0 1 2.94694,2.94746 2.9471207,2.9471207 0 0 1 -2.94694,2.94694 2.9471207,2.9471207 0 0 1 -1.96463,-0.75438 v 7.63109 h 7.63159 a 2.9471207,2.9471207 0 0 1 -0.75539,-1.96463 2.9471207,2.9471207 0 0 1 2.94744,-2.94747 2.9471207,2.9471207 0 0 1 2.94695,2.94747 2.9471207,2.9471207 0 0 1 -0.75439,1.96463 h 7.63108 v -7.6321 a 2.9471207,2.9471207 0 0 1 -1.96462,0.75539 2.9471207,2.9471207 0 0 1 -2.94745,-2.94694 2.9471207,2.9471207 0 0 1 2.94745,-2.94746 2.9471207,2.9471207 0 0 1 1.96462,0.75489 v -7.63109 h -7.63158 a 2.9471207,2.9471207 0 0 0 0.75489,-1.96512 2.9471207,2.9471207 0 0 0 -2.94695,-2.94696 z"
       style="fill:#ff0000;stroke:#ff0000;stroke-width:0.25991964;fill-opacity:1;stroke-opacity:1"
       id="path4822" />
    <path
       inkscape:connector-curvature="0"
       d="m 210.49479,117.57799 a 2.9471207,2.9471207 0 0 0 2.94694,2.94747 2.9471207,2.9471207 0 0 0 1.96514,-0.75541 v 7.63158 h 7.63107 a 2.9471207,2.9471207 0 0 1 -0.75489,-1.96463 2.9471207,2.9471207 0 0 1 2.94746,-2.94692 2.9471207,2.9471207 0 0 1 2.94694,2.94692 2.9471207,2.9471207 0 0 1 -0.75438,1.96463 h 7.63109 v -7.63158 a 2.9471207,2.9471207 0 0 1 -1.96463,0.75541 2.9471207,2.9471207 0 0 1 -2.94745,-2.94747 2.9471207,2.9471207 0 0 1 2.94745,-2.94694 2.9471207,2.9471207 0 0 1 1.96463,0.75439 v -7.63109 h -7.6321 a 2.9471207,2.9471207 0 0 1 0.75539,1.96463 2.9471207,2.9471207 0 0 1 -2.94694,2.94744 2.9471207,2.9471207 0 0 1 -2.94746,-2.94744 2.9471207,2.9471207 0 0 1 0.75489,-1.96463 h -7.63107 v 7.63158 a 2.9471207,2.9471207 0 0 0 -1.96514,-0.75488 2.9471207,2.9471207 0 0 0 -2.94694,2.94694 z"
       style="fill:#ff0000;stroke:#ff0000;stroke-width:0.25991964;fill-opacity:1;stroke-opacity:1"
       id="path4824" />
    <path
       inkscape:connector-curvature="0"
       d="m 244.87781,102.83957 a 2.9471207,2.9471207 0 0 0 -2.94746,2.94696 2.9471207,2.9471207 0 0 0 0.7554,1.96512 h -7.63159 v 7.6316 a 2.9471207,2.9471207 0 0 0 -1.96513,-0.7554 2.9471207,2.9471207 0 0 0 -2.94695,2.94746 2.9471207,2.9471207 0 0 0 2.94695,2.94694 2.9471207,2.9471207 0 0 0 1.96513,-0.75539 v 7.6321 h 7.63107 a 2.9471207,2.9471207 0 0 0 -0.75488,1.96462 2.9471207,2.9471207 0 0 0 2.94746,2.94744 2.9471207,2.9471207 0 0 0 2.94695,-2.94744 2.9471207,2.9471207 0 0 0 -0.75541,-1.96462 h 7.6321 v -7.6321 a 2.9471207,2.9471207 0 0 1 -1.96463,0.75539 2.9471207,2.9471207 0 0 1 -2.94745,-2.94694 2.9471207,2.9471207 0 0 1 2.94745,-2.94746 2.9471207,2.9471207 0 0 1 1.96463,0.75489 v -7.63109 h -7.63158 a 2.9471207,2.9471207 0 0 0 0.75489,-1.96512 2.9471207,2.9471207 0 0 0 -2.94695,-2.94696 z"
       style="fill:#ff0000;stroke:#ff0000;stroke-width:0.25991964;fill-opacity:1;stroke-opacity:1"
       id="path4826" />
  </g>
</svg>
