<?xml version="1.0" encoding="UTF-8" standalone="no"?>
<!-- Created with Inkscape (http://www.inkscape.org/) -->

<svg
   xmlns:dc="http://purl.org/dc/elements/1.1/"
   xmlns:cc="http://creativecommons.org/ns#"
   xmlns:rdf="http://www.w3.org/1999/02/22-rdf-syntax-ns#"
   xmlns:svg="http://www.w3.org/2000/svg"
   xmlns="http://www.w3.org/2000/svg"
   xmlns:sodipodi="http://sodipodi.sourceforge.net/DTD/sodipodi-0.dtd"
   xmlns:inkscape="http://www.inkscape.org/namespaces/inkscape"
   width="29.021231mm"
   height="33.999569mm"
   viewBox="0 0 29.021231 33.999569"
   version="1.1"
   id="svg985"
   inkscape:version="0.92.3 (2405546, 2018-03-11)"
   sodipodi:docname="chapter-header-base-tools.svg">
  <defs
     id="defs979">
    <inkscape:tag
       id="Set 1"
       inkscape:expanded="true" />
    <inkscape:perspective
       sodipodi:type="inkscape:persp3d"
       inkscape:vp_x="0 : 12.006548 : 1"
       inkscape:vp_y="0 : 1000 : 0"
       inkscape:vp_z="34.001523 : 12.006548 : 1"
       inkscape:persp3d-origin="17.000762 : 8.0043653 : 1"
       id="perspective842" />
  </defs>
  <sodipodi:namedview
     id="base"
     pagecolor="#ffffff"
     bordercolor="#666666"
     borderopacity="1.0"
     inkscape:pageopacity="0.0"
     inkscape:pageshadow="2"
     inkscape:zoom="4.88"
     inkscape:cx="71.124461"
     inkscape:cy="69.104403"
     inkscape:document-units="mm"
     inkscape:current-layer="layer1"
     showgrid="false"
     showguides="true"
     inkscape:guide-bbox="true"
     fit-margin-top="2"
     fit-margin-left="2"
     fit-margin-right="2"
     fit-margin-bottom="2"
     inkscape:window-width="1209"
     inkscape:window-height="760"
     inkscape:window-x="590"
     inkscape:window-y="287"
     inkscape:window-maximized="0" />
  <metadata
     id="metadata982">
    <rdf:RDF>
      <cc:Work
         rdf:about="">
        <dc:format>image/svg+xml</dc:format>
        <dc:type
           rdf:resource="http://purl.org/dc/dcmitype/StillImage" />
        <dc:title />
      </cc:Work>
    </rdf:RDF>
  </metadata>
  <g
     inkscape:label="Layer 1"
     inkscape:groupmode="layer"
     id="layer1"
     transform="translate(-2.3322603,-55.14571)"
     style="opacity:0.99900004">
    <g
       style="opacity:0.99900004"
       id="g6036"
       transform="rotate(1.5,-532.61226,539.23782)">
      <path
         inkscape:connector-curvature="0"
         style="display:inline;fill:#ff0000;fill-rule:evenodd;stroke:none;stroke-width:0.40000001;stroke-linecap:butt;stroke-linejoin:miter;stroke-miterlimit:4;stroke-dasharray:none;stroke-opacity:1"
         d="m 6.4925885,42.863502 a 3.0000001,3.0000001 0 0 0 -0.2116,0.013 3.0000001,3.0000001 0 0 0 -0.29651,0.04462 3.0000001,3.0000001 0 0 0 -0.29103,0.07387 3.0000001,3.0000001 0 0 0 -0.28143,0.102614 3.0000001,3.0000001 0 0 0 -0.2703,0.130179 3.0000001,3.0000001 0 0 0 -0.25559,0.156643 3.0000001,3.0000001 0 0 0 -0.23889,0.18098 3.0000001,3.0000001 0 0 0 -0.21962,0.204244 3.0000001,3.0000001 0 0 0 -0.19832,0.225309 3.0000001,3.0000001 0 0 0 -0.17455,0.243802 3.0000001,3.0000001 0 0 0 -0.14927,0.260133 3.0000001,3.0000001 0 0 0 -0.12305,0.273346 3.0000001,3.0000001 0 0 0 -0.0948,0.28444 3.0000001,3.0000001 0 0 0 -0.0656,0.292916 3.0000001,3.0000001 0 0 0 -0.0366,0.297256 3.0000001,3.0000001 0 0 0 -0.007,0.300025 3.0000001,3.0000001 0 0 0 0.013,0.212116 3.0000001,3.0000001 0 0 0 0.0446,0.296515 3.0000001,3.0000001 0 0 0 0.0738,0.290495 3.0000001,3.0000001 0 0 0 0.10263,0.281946 3.0000001,3.0000001 0 0 0 0.13017,0.269791 3.0000001,3.0000001 0 0 0 0.15665,0.256125 3.0000001,3.0000001 0 0 0 0.18151,0.238844 3.0000001,3.0000001 0 0 0 0.12211,0.131473 l -7.7653601,0.220066 0.2200499,7.764892 a 3.0000001,3.0000001 0 0 0 -0.069,-0.06057 3.0000001,3.0000001 0 0 0 -0.24379,-0.174564 3.0000001,3.0000001 0 0 0 -0.2601201,-0.149271 3.0000001,3.0000001 0 0 0 -0.2733501,-0.123036 3.0000001,3.0000001 0 0 0 -0.2849599,-0.09481 3.0000001,3.0000001 0 0 0 -0.29239,-0.06564 3.0000001,3.0000001 0 0 0 -0.2977801,-0.03658 3.0000001,3.0000001 0 0 0 -0.2995199,-0.0066 3.0000001,3.0000001 0 0 0 -0.21208,0.01401 3.0000001,3.0000001 0 0 0 -0.29651,0.04412 3.0000001,3.0000001 0 0 0 -0.2905,0.07436 3.0000001,3.0000001 0 0 0 -0.28195,0.102628 3.0000001,3.0000001 0 0 0 -0.26979,0.130155 3.0000001,3.0000001 0 0 0 -0.25613,0.156149 3.0000001,3.0000001 0 0 0 -0.23886,0.181519 3.0000001,3.0000001 0 0 0 -0.21962,0.204223 3.0000001,3.0000001 0 0 0 -0.19783,0.224784 3.0000001,3.0000001 0 0 0 -0.17506,0.243817 3.0000001,3.0000001 0 0 0 -0.14927,0.260133 3.0000001,3.0000001 0 0 0 -0.12253,0.273851 3.0000001,3.0000001 0 0 0 -0.0948,0.28443 3.0000001,3.0000001 0 0 0 -0.0661,0.292431 3.0000001,3.0000001 0 0 0 -0.0366,0.297766 3.0000001,3.0000001 0 0 0 -0.007,0.299494 3.0000001,3.0000001 0 0 0 0.014,0.212109 3.0000001,3.0000001 0 0 0 0.0446,0.296515 3.0000001,3.0000001 0 0 0 0.0739,0.290484 3.0000001,3.0000001 0 0 0 0.10263,0.281956 3.0000001,3.0000001 0 0 0 0.13018,0.270321 3.0000001,3.0000001 0 0 0 0.15665,0.255574 3.0000001,3.0000001 0 0 0 0.18099,0.238899 3.0000001,3.0000001 0 0 0 0.20422,0.219593 3.0000001,3.0000001 0 0 0 0.22534,0.198357 3.0000001,3.0000001 0 0 0 0.24379,0.174534 3.0000001,3.0000001 0 0 0 0.26012,0.149271 3.0000001,3.0000001 0 0 0 0.27334,0.122536 3.0000001,3.0000001 0 0 0 0.28443,0.09481 3.0000001,3.0000001 0 0 0 0.29293,0.06613 3.0000001,3.0000001 0 0 0 0.2972699,0.03659 3.0000001,3.0000001 0 0 0 0.3000301,0.0066 3.0000001,3.0000001 0 0 0 0.2120799,-0.01401 3.0000001,3.0000001 0 0 0 0.2965,-0.04462 3.0000001,3.0000001 0 0 0 0.2905101,-0.07386 3.0000001,3.0000001 0 0 0 0.2814299,-0.102613 3.0000001,3.0000001 0 0 0 0.27031,-0.13018 3.0000001,3.0000001 0 0 0 0.2556002,-0.156634 3.0000001,3.0000001 0 0 0 0.2394,-0.181004 3.0000001,3.0000001 0 0 0 0.1314498,-0.122654 l 0.2200802,7.765922 7.7648802,-0.220052 a 3.0000001,3.0000001 0 0 0 -0.0606,0.06894 3.0000001,3.0000001 0 0 0 -0.17455,0.243802 3.0000001,3.0000001 0 0 0 -0.14926,0.260132 3.0000001,3.0000001 0 0 0 -0.12305,0.273337 3.0000001,3.0000001 0 0 0 -0.0948,0.284429 3.0000001,3.0000001 0 0 0 -0.0656,0.292409 3.0000001,3.0000001 0 0 0 -0.0366,0.297783 3.0000001,3.0000001 0 0 0 -0.007,0.300027 3.0000001,3.0000001 0 0 0 0.013,0.211585 3.0000001,3.0000001 0 0 0 0.0446,0.296526 3.0000001,3.0000001 0 0 0 0.0739,0.291013 3.0000001,3.0000001 0 0 0 0.10261,0.281427 3.0000001,3.0000001 0 0 0 0.13018,0.270311 3.0000001,3.0000001 0 0 0 0.15665,0.255593 3.0000001,3.0000001 0 0 0 0.18151,0.238887 3.0000001,3.0000001 0 0 0 0.20422,0.219591 3.0000001,3.0000001 0 0 0 0.22481,0.198361 3.0000001,3.0000001 0 0 0 0.2438,0.174545 3.0000001,3.0000001 0 0 0 0.26013,0.14927 3.0000001,3.0000001 0 0 0 0.27385,0.123042 3.0000001,3.0000001 0 0 0 0.28444,0.09479 3.0000001,3.0000001 0 0 0 0.2924,0.06564 3.0000001,3.0000001 0 0 0 0.29779,0.03658 3.0000001,3.0000001 0 0 0 0.29951,0.0066 3.0000001,3.0000001 0 0 0 0.2121,-0.01302 3.0000001,3.0000001 0 0 0 0.29652,-0.04462 3.0000001,3.0000001 0 0 0 0.29052,-0.07386 3.0000001,3.0000001 0 0 0 0.28194,-0.102629 3.0000001,3.0000001 0 0 0 0.27031,-0.130177 3.0000001,3.0000001 0 0 0 0.2556,-0.156665 3.0000001,3.0000001 0 0 0 0.23887,-0.181489 3.0000001,3.0000001 0 0 0 0.21961,-0.204245 3.0000001,3.0000001 0 0 0 0.19784,-0.224793 3.0000001,3.0000001 0 0 0 0.17506,-0.243776 3.0000001,3.0000001 0 0 0 0.14927,-0.260144 3.0000001,3.0000001 0 0 0 0.1225105,-0.273849 3.0000001,3.0000001 0 0 0 0.0948,-0.284443 3.0000001,3.0000001 0 0 0 0.0661,-0.292409 3.0000001,3.0000001 0 0 0 0.0366,-0.297776 3.0000001,3.0000001 0 0 0 0.007,-0.299524 3.0000001,3.0000001 0 0 0 -0.014,-0.212069 3.0000001,3.0000001 0 0 0 -0.0446,-0.296516 3.0000001,3.0000001 0 0 0 -0.0739,-0.290524 3.0000001,3.0000001 0 0 0 -0.10262,-0.281946 3.0000001,3.0000001 0 0 0 -0.1301805,-0.27029 3.0000001,3.0000001 0 0 0 -0.15666,-0.255595 3.0000001,3.0000001 0 0 0 -0.18099,-0.238889 3.0000001,3.0000001 0 0 0 -0.12211,-0.131474 l 7.7648425,-0.220055 -0.22006,-7.765442 a 3.0000001,3.0000001 0 0 1 -0.13147,0.122124 3.0000001,3.0000001 0 0 1 -0.23889,0.180989 3.0000001,3.0000001 0 0 1 -0.25611,0.156649 3.0000001,3.0000001 0 0 1 -0.26978,0.130164 3.0000001,3.0000001 0 0 1 -0.28194,0.102628 3.0000001,3.0000001 0 0 1 -0.29051,0.07386 3.0000001,3.0000001 0 0 1 -0.29652,0.04462 3.0000001,3.0000001 0 0 1 -0.21208,0.01401 3.0000001,3.0000001 0 0 1 -0.2995,-0.0066 3.0000001,3.0000001 0 0 1 -0.29778,-0.03658 3.0000001,3.0000001 0 0 1 -0.29241,-0.06614 3.0000001,3.0000001 0 0 1 -0.28443,-0.09482 3.0000001,3.0000001 0 0 1 -0.27385,-0.122522 3.0000001,3.0000001 0 0 1 -0.26013,-0.14927 3.0000001,3.0000001 0 0 1 -0.24379,-0.174535 3.0000001,3.0000001 0 0 1 -0.22481,-0.198371 3.0000001,3.0000001 0 0 1 -0.20422,-0.219593 3.0000001,3.0000001 0 0 1 -0.18151,-0.238874 3.0000001,3.0000001 0 0 1 -0.15664,-0.255595 3.0000001,3.0000001 0 0 1 -0.13019,-0.27031 3.0000001,3.0000001 0 0 1 -0.10263,-0.281956 3.0000001,3.0000001 0 0 1 -0.0739,-0.290495 3.0000001,3.0000001 0 0 1 -0.0446,-0.296505 3.0000001,3.0000001 0 0 1 -0.013,-0.212126 3.0000001,3.0000001 0 0 1 0.007,-0.299495 3.0000001,3.0000001 0 0 1 0.0366,-0.297786 3.0000001,3.0000001 0 0 1 0.0656,-0.292407 3.0000001,3.0000001 0 0 1 0.0948,-0.28442 3.0000001,3.0000001 0 0 1 0.12303,-0.273865 3.0000001,3.0000001 0 0 1 0.14927,-0.260133 3.0000001,3.0000001 0 0 1 0.17456,-0.243803 3.0000001,3.0000001 0 0 1 0.19833,-0.224808 3.0000001,3.0000001 0 0 1 0.21961,-0.204213 3.0000001,3.0000001 0 0 1 0.23887,-0.181519 3.0000001,3.0000001 0 0 1 0.25562,-0.156134 3.0000001,3.0000001 0 0 1 0.2703,-0.130179 3.0000001,3.0000001 0 0 1 0.28142,-0.102614 3.0000001,3.0000001 0 0 1 0.29049,-0.07436 3.0000001,3.0000001 0 0 1 0.29704,-0.04413 3.0000001,3.0000001 0 0 1 0.21157,-0.014 3.0000001,3.0000001 0 0 1 0.30004,0.0066 3.0000001,3.0000001 0 0 1 0.29776,0.03658 3.0000001,3.0000001 0 0 1 0.29241,0.06564 3.0000001,3.0000001 0 0 1 0.28443,0.09482 3.0000001,3.0000001 0 0 1 0.27333,0.123036 3.0000001,3.0000001 0 0 1 0.26014,0.149271 3.0000001,3.0000001 0 0 1 0.24379,0.174564 3.0000001,3.0000001 0 0 1 0.0689,0.06057 l -0.220052,-7.764894 -7.7647105,0.220047 a 3.0000001,3.0000001 0 0 0 0.0606,-0.06894 3.0000001,3.0000001 0 0 0 0.17506,-0.243787 3.0000001,3.0000001 0 0 0 0.14928,-0.260133 3.0000001,3.0000001 0 0 0 0.12253,-0.27335 3.0000001,3.0000001 0 0 0 0.0948,-0.28442 3.0000001,3.0000001 0 0 0 0.0661,-0.292931 3.0000001,3.0000001 0 0 0 0.0366,-0.297776 3.0000001,3.0000001 0 0 0 0.007,-0.299526 3.0000001,3.0000001 0 0 0 -0.014,-0.212067 3.0000001,3.0000001 0 0 0 -0.0445,-0.296518 3.0000001,3.0000001 0 0 0 -0.0739,-0.290514 3.0000001,3.0000001 0 0 0 -0.10263,-0.281956 3.0000001,3.0000001 0 0 0 -0.13017,-0.269791 3.0000001,3.0000001 0 0 0 -0.15666,-0.256095 3.0000001,3.0000001 0 0 0 -0.18099,-0.238879 3.0000001,3.0000001 0 0 0 -0.20425,-0.219622 3.0000001,3.0000001 0 0 0 -0.22531,-0.197827 3.0000001,3.0000001 0 0 0 -0.2438,-0.174534 3.0000001,3.0000001 0 0 0 -0.25962,-0.149816 3.0000001,3.0000001 0 0 0 -0.27385,-0.122491 3.0000001,3.0000001 0 0 0 -0.28444,-0.09483 3.0000001,3.0000001 0 0 0 -0.29241,-0.06614 3.0000001,3.0000001 0 0 0 -0.29777,-0.03598 3.0000001,3.0000001 0 0 0 -0.30003,-0.0066 z"
         id="path1627-0" />
    </g>
    <g
       style="display:inline;stroke:#ffffff;stroke-width:0.54208553;stroke-miterlimit:4;stroke-dasharray:none;stroke-opacity:1"
       id="g3737"
       transform="matrix(0.57842976,-4.5909958e-4,3.7656216e-4,0.70521386,-85.777982,42.00129)">
      <rect
         style="opacity:1;fill:#ffffff;fill-opacity:1;fill-rule:nonzero;stroke-width:0.34676161"
         id="rect860"
         width="15.086714"
         height="1.0084522"
         x="171.79321"
         y="43.300934"
         transform="rotate(0.03729998)"
         rx="0"
         ry="0" />
      <rect
         style="display:inline;opacity:1;fill:#ffffff;fill-opacity:1;fill-rule:nonzero;stroke:#ffffff;stroke-width:0.34676161;stroke-miterlimit:4;stroke-dasharray:none;stroke-opacity:1"
         id="rect860-3"
         width="15.086713"
         height="1.0084522"
         x="171.79321"
         y="45.360245"
         rx="0"
         ry="0"
         transform="rotate(0.03729998)" />
      <rect
         style="display:inline;opacity:1;fill:#ffffff;fill-opacity:1;fill-rule:nonzero;stroke:#ffffff;stroke-width:0.34676161;stroke-miterlimit:4;stroke-dasharray:none;stroke-opacity:1"
         id="rect860-6"
         width="15.086713"
         height="1.0084522"
         x="171.79321"
         y="47.419556"
         rx="0"
         ry="0"
         transform="rotate(0.03729998)" />
    </g>
    <rect
       style="opacity:1;fill:#ffffff;fill-opacity:1;fill-rule:nonzero;stroke-width:0.23013972"
       id="rect4591"
       width="1.0579393"
       height="2.9079442"
       x="39.33773"
       y="62.091938"
       transform="matrix(0.96445633,0.2642423,-0.27771123,0.9606646,0,0)"
       inkscape:transform-center-x="7.7467717"
       inkscape:transform-center-y="-4.2979588" />
    <path
       style="opacity:1;fill:#ffffff;fill-opacity:1;fill-rule:nonzero;stroke-width:0.24240063"
       d="m 21.314735,67.643153 a 1.2579487,1.3948411 0 0 0 -1.085094,1.380177 1.2579487,1.3948411 0 0 0 1.257743,1.394446 1.2579487,1.3948411 0 0 0 1.257744,-1.394446 1.2579487,1.3948411 0 0 0 -0.271045,-0.865009 l -0.422741,1.440698 -1.191235,-0.407411 z"
       id="path4593"
       inkscape:connector-curvature="0" />
    <g
       id="g4674"
       transform="matrix(0.02944901,0,0,0.03180875,17.430327,46.69621)">
      <g
         transform="matrix(-1.2657903,-0.30958714,-0.30958714,1.2657903,373.65134,413.13677)"
         id="g3057"
         style="fill:#f9f9f9">
	<path
   style="fill:#f9f9f9"
   inkscape:connector-curvature="0"
   id="path3059"
   d="m 313.699,314.8 14.399,14.8 -64.398,71.199 c 0,0 -18.6,-18.8 0,0 l -18.6,-8 c 0,-10.8 -3,-7.8 0,-10.8 z m 60.4,15.2 -10.8,11 c -2.2,2.2 -5.601,2.2 -8,0 l -2.4,-2.6 c -1.8,-1.6 -2.6,-4.6 -1.6,-6 1.8,-1.2 1.2,-4.8 -2.2,-8 -4.8,-5 -11,-5.2 -13.399,-2.6 -1,0.8 -4.2,4.2 -4.2,4.2 l -14.8,-14.6 2.4,-2.4 c 0,0 0.6,-0.6 1.8,-2 4.6,-4.6 -0.2,-9.8 -0.2,-9.8 -13,-12.8 -31.199,-12.6 -31.199,-12.6 l -0.2,-4.6 c 36.6,-9.4 50.399,6.6 55.399,11.6 l 10.6,10.6 c 2.6,2.6 0,10 3.8,14.2 1.8,1.8 4.2,2.6 6,2.6 2,-1.8 5.2,-1.2 6.8,0.6 l 2.2,2.4 c 2.199,2.2 2.199,5.6 -0.001,8 z"
   sodipodi:nodetypes="cccccccccccccccccccccssccccc" />

</g>
    </g>
    <rect
       style="opacity:1;fill:#f9f9f9;fill-opacity:1;fill-rule:nonzero;stroke-width:0.19655047"
       id="rect4696"
       width="0.96967465"
       height="1.387295"
       x="17.085165"
       y="67.878799" />
    <rect
       style="opacity:1;fill:#f9f9f9;fill-opacity:1;fill-rule:nonzero;stroke-width:0.26725167"
       id="rect4700"
       width="0.42332125"
       height="2.3289721"
       x="17.351385"
       y="69.579231" />
    <rect
       style="opacity:1;fill:#f9f9f9;fill-opacity:1;fill-rule:nonzero;stroke-width:0.18968713"
       id="rect4707"
       width="0.72989619"
       height="0.73811358"
       x="56.753178"
       y="38.387787"
       transform="matrix(0.73122193,0.68213964,-0.62450404,0.78102158,0,0)" />
    <rect
       style="opacity:1;fill:#f9f9f9;fill-opacity:1;fill-rule:nonzero;stroke-width:0.26607314"
       id="rect4712"
       width="1.4055154"
       height="1.5029949"
       x="16.882921"
       y="71.281502" />
  </g>
</svg>
