<?xml version="1.0" encoding="UTF-8" standalone="no"?>
<!-- Created with Inkscape (http://www.inkscape.org/) -->

<svg
   xmlns:dc="http://purl.org/dc/elements/1.1/"
   xmlns:cc="http://creativecommons.org/ns#"
   xmlns:rdf="http://www.w3.org/1999/02/22-rdf-syntax-ns#"
   xmlns:svg="http://www.w3.org/2000/svg"
   xmlns="http://www.w3.org/2000/svg"
   xmlns:xlink="http://www.w3.org/1999/xlink"
   xmlns:sodipodi="http://sodipodi.sourceforge.net/DTD/sodipodi-0.dtd"
   xmlns:inkscape="http://www.inkscape.org/namespaces/inkscape"
   width="29.108919mm"
   height="34.099346mm"
   viewBox="0 0 29.108919 34.099346"
   version="1.1"
   id="svg985"
   inkscape:version="0.92.3 (2405546, 2018-03-11)"
   sodipodi:docname="chapter-header-base-galaxy.svg">
  <defs
     id="defs979">
    <linearGradient
       y2="292.63223"
       x2="468.7327"
       y1="292.63223"
       x1="152.55157"
       gradientTransform="matrix(0.59895839,0,0,1,-409.8734,305.655)"
       gradientUnits="userSpaceOnUse"
       id="linearGradient7794"
       xlink:href="#linearGradient4303"
       inkscape:collect="always" />
    <linearGradient
       id="linearGradient4303"
       inkscape:collect="always">
      <stop
         id="stop4305"
         offset="0"
         style="stop-color:#d0bd2a;stop-opacity:1;" />
      <stop
         id="stop4307"
         offset="1"
         style="stop-color:#d0bd2a;stop-opacity:0;" />
    </linearGradient>
  </defs>
  <sodipodi:namedview
     id="base"
     pagecolor="#ffffff"
     bordercolor="#666666"
     borderopacity="1.0"
     inkscape:pageopacity="0.0"
     inkscape:pageshadow="2"
     inkscape:zoom="2.8"
     inkscape:cx="17.723794"
     inkscape:cy="17.385751"
     inkscape:document-units="mm"
     inkscape:current-layer="layer1"
     showgrid="false"
     showguides="true"
     inkscape:guide-bbox="true"
     fit-margin-top="2"
     fit-margin-left="2"
     fit-margin-right="2"
     fit-margin-bottom="2"
     inkscape:window-width="1920"
     inkscape:window-height="1120"
     inkscape:window-x="0"
     inkscape:window-y="25"
     inkscape:window-maximized="1" />
  <metadata
     id="metadata982">
    <rdf:RDF>
      <cc:Work
         rdf:about="">
        <dc:format>image/svg+xml</dc:format>
        <dc:type
           rdf:resource="http://purl.org/dc/dcmitype/StillImage" />
        <dc:title></dc:title>
      </cc:Work>
    </rdf:RDF>
  </metadata>
  <g
     inkscape:label="Layer 1"
     inkscape:groupmode="layer"
     id="layer1"
     transform="translate(34.428887,-56.453162)"
     style="opacity:0.99900004">
    <path
       inkscape:connector-curvature="0"
       id="path1627"
       d="m -22.383081,88.502491 a 3.0000001,3.0000001 0 0 0 0.211887,-0.0068 3.0000001,3.0000001 0 0 0 0.297688,-0.03594 3.0000001,3.0000001 0 0 0 0.293041,-0.06538 3.0000001,3.0000001 0 0 0 0.284312,-0.09434 3.0000001,3.0000001 0 0 0 0.273995,-0.122232 3.0000001,3.0000001 0 0 0 0.260067,-0.149098 3.0000001,3.0000001 0 0 0 0.244053,-0.173945 3.0000001,3.0000001 0 0 0 0.225485,-0.197747 3.0000001,3.0000001 0 0 0 0.204828,-0.219411 3.0000001,3.0000001 0 0 0 0.181598,-0.238605 3.0000001,3.0000001 0 0 0 0.156803,-0.255664 3.0000001,3.0000001 0 0 0 0.130975,-0.269626 3.0000001,3.0000001 0 0 0 0.10308,-0.28157 3.0000001,3.0000001 0 0 0 0.07415,-0.290865 3.0000001,3.0000001 0 0 0 0.04526,-0.296051 3.0000001,3.0000001 0 0 0 0.01534,-0.299727 3.0000001,3.0000001 0 0 0 -0.0068,-0.212404 3.0000001,3.0000001 0 0 0 -0.03593,-0.297705 3.0000001,3.0000001 0 0 0 -0.06565,-0.292449 3.0000001,3.0000001 0 0 0 -0.09435,-0.284822 3.0000001,3.0000001 0 0 0 -0.122225,-0.273479 3.0000001,3.0000001 0 0 0 -0.149182,-0.260564 3.0000001,3.0000001 0 0 0 -0.174465,-0.24404 3.0000001,3.0000001 0 0 0 -0.118273,-0.134979 l 7.768475,0.0067 0.0067,-7.767997 a 3.0000001,3.0000001 0 0 0 0.06717,0.06255 3.0000001,3.0000001 0 0 0 0.2386,0.181594 3.0000001,3.0000001 0 0 0 0.255657,0.156804 3.0000001,3.0000001 0 0 0 0.269645,0.130972 3.0000001,3.0000001 0 0 0 0.282051,0.103087 3.0000001,3.0000001 0 0 0 0.290365,0.07415 3.0000001,3.0000001 0 0 0 0.296586,0.04526 3.0000001,3.0000001 0 0 0 0.299185,0.01526 3.0000001,3.0000001 0 0 0 0.212399,-0.0078 3.0000001,3.0000001 0 0 0 0.2976886,-0.03544 3.0000001,3.0000001 0 0 0 0.292546,-0.06588 3.0000001,3.0000001 0 0 0 0.284804,-0.09435 3.0000001,3.0000001 0 0 0 0.273475,-0.122244 3.0000001,3.0000001 0 0 0 0.260583,-0.14861 3.0000001,3.0000001 0 0 0 0.2440684,-0.174458 3.0000001,3.0000001 0 0 0 0.225473,-0.197713 3.0000001,3.0000001 0 0 0 0.204309,-0.218933 3.0000001,3.0000001 0 0 0 0.182124,-0.238605 3.0000001,3.0000001 0 0 0 0.156796,-0.255652 3.0000001,3.0000001 0 0 0 0.13046,-0.270157 3.0000001,3.0000001 0 0 0 0.103086,-0.281541 3.0000001,3.0000001 0 0 0 0.07465,-0.290367 3.0000001,3.0000001 0 0 0 0.04526,-0.296579 3.0000001,3.0000001 0 0 0 0.01527,-0.299181 3.0000001,3.0000001 0 0 0 -0.0078,-0.212427 3.0000001,3.0000001 0 0 0 -0.03593,-0.297692 3.0000001,3.0000001 0 0 0 -0.06565,-0.292451 3.0000001,3.0000001 0 0 0 -0.09435,-0.284822 3.0000001,3.0000001 0 0 0 -0.122257,-0.274012 3.0000001,3.0000001 0 0 0 -0.149153,-0.26004 3.0000001,3.0000001 0 0 0 -0.173946,-0.244071 3.0000001,3.0000001 0 0 0 -0.197722,-0.225462 3.0000001,3.0000001 0 0 0 -0.219452,-0.204839 3.0000001,3.0000001 0 0 0 -0.2385784,-0.181589 3.0000001,3.0000001 0 0 0 -0.255666,-0.156801 3.0000001,3.0000001 0 0 0 -0.269638,-0.130454 3.0000001,3.0000001 0 0 0 -0.281547,-0.103096 3.0000001,3.0000001 0 0 0 -0.290874,-0.07465 3.0000001,3.0000001 0 0 0 -0.2960696,-0.04525 3.0000001,3.0000001 0 0 0 -0.299702,-0.01526 3.0000001,3.0000001 0 0 0 -0.212398,0.0078 3.0000001,3.0000001 0 0 0 -0.297688,0.03594 3.0000001,3.0000001 0 0 0 -0.292542,0.06536 3.0000001,3.0000001 0 0 0 -0.2843,0.09435 3.0000001,3.0000001 0 0 0 -0.274001,0.122243 3.0000001,3.0000001 0 0 0 -0.260056,0.149105 3.0000001,3.0000001 0 0 0 -0.24458,0.173938 3.0000001,3.0000001 0 0 0 -0.134979,0.118758 l 0.0067,-7.769036 -7.76801,-0.0067 a 3.0000001,3.0000001 0 0 0 0.06256,-0.06714 3.0000001,3.0000001 0 0 0 0.181589,-0.238602 3.0000001,3.0000001 0 0 0 0.156803,-0.255665 3.0000001,3.0000001 0 0 0 0.130975,-0.269626 3.0000001,3.0000001 0 0 0 0.103086,-0.281541 3.0000001,3.0000001 0 0 0 0.07414,-0.290364 3.0000001,3.0000001 0 0 0 0.04526,-0.296581 3.0000001,3.0000001 0 0 0 0.01524,-0.2997 3.0000001,3.0000001 0 0 0 -0.0068,-0.211887 3.0000001,3.0000001 0 0 0 -0.03593,-0.297694 3.0000001,3.0000001 0 0 0 -0.06577,-0.292949 3.0000001,3.0000001 0 0 0 -0.09432,-0.284298 3.0000001,3.0000001 0 0 0 -0.122253,-0.274002 3.0000001,3.0000001 0 0 0 -0.149156,-0.260052 3.0000001,3.0000001 0 0 0 -0.174462,-0.244069 3.0000001,3.0000001 0 0 0 -0.197722,-0.225462 3.0000001,3.0000001 0 0 0 -0.218936,-0.20484 3.0000001,3.0000001 0 0 0 -0.238578,-0.181587 3.0000001,3.0000001 0 0 0 -0.255667,-0.156804 3.0000001,3.0000001 0 0 0 -0.270153,-0.130984 3.0000001,3.0000001 0 0 0 -0.28155,-0.103063 3.0000001,3.0000001 0 0 0 -0.290355,-0.07415 3.0000001,3.0000001 0 0 0 -0.296577,-0.04526 3.0000001,3.0000001 0 0 0 -0.299195,-0.01526 3.0000001,3.0000001 0 0 0 -0.212403,0.0068 3.0000001,3.0000001 0 0 0 -0.297686,0.03595 3.0000001,3.0000001 0 0 0 -0.292542,0.06536 3.0000001,3.0000001 0 0 0 -0.284814,0.09435 3.0000001,3.0000001 0 0 0 -0.273992,0.122241 3.0000001,3.0000001 0 0 0 -0.26007,0.149129 3.0000001,3.0000001 0 0 0 -0.244061,0.174438 3.0000001,3.0000001 0 0 0 -0.225478,0.197735 3.0000001,3.0000001 0 0 0 -0.204315,0.218914 3.0000001,3.0000001 0 0 0 -0.182107,0.238592 3.0000001,3.0000001 0 0 0 -0.156803,0.255663 3.0000001,3.0000001 0 0 0 -0.13046,0.270155 3.0000001,3.0000001 0 0 0 -0.10308,0.281564 3.0000001,3.0000001 0 0 0 -0.07464,0.290343 3.0000001,3.0000001 0 0 0 -0.04526,0.296581 3.0000001,3.0000001 0 0 0 -0.01526,0.299208 3.0000001,3.0000001 0 0 0 0.0078,0.212396 3.0000001,3.0000001 0 0 0 0.03593,0.297686 3.0000001,3.0000001 0 0 0 0.06565,0.292469 3.0000001,3.0000001 0 0 0 0.09436,0.284826 3.0000001,3.0000001 0 0 0 0.122246,0.273973 3.0000001,3.0000001 0 0 0 0.149151,0.260031 3.0000001,3.0000001 0 0 0 0.173947,0.24408 3.0000001,3.0000001 0 0 0 0.118177,0.135005 l -7.768001,-0.0067 -0.0067,7.768498 a 3.0000001,3.0000001 0 0 1 0.134969,-0.118229 3.0000001,3.0000001 0 0 1 0.244064,-0.17394 3.0000001,3.0000001 0 0 1 0.260592,-0.149107 3.0000001,3.0000001 0 0 1 0.273465,-0.122242 3.0000001,3.0000001 0 0 1 0.284823,-0.09435 3.0000001,3.0000001 0 0 1 0.292543,-0.06536 3.0000001,3.0000001 0 0 1 0.297676,-0.03594 3.0000001,3.0000001 0 0 1 0.212408,-0.0078 3.0000001,3.0000001 0 0 1 0.299185,0.01526 3.0000001,3.0000001 0 0 1 0.296586,0.04526 3.0000001,3.0000001 0 0 1 0.290358,0.07465 3.0000001,3.0000001 0 0 1 0.28156,0.103103 3.0000001,3.0000001 0 0 1 0.270153,0.130455 3.0000001,3.0000001 0 0 1 0.255656,0.156801 3.0000001,3.0000001 0 0 1 0.238589,0.181588 3.0000001,3.0000001 0 0 1 0.218936,0.20484 3.0000001,3.0000001 0 0 1 0.197722,0.225462 3.0000001,3.0000001 0 0 1 0.174452,0.244071 3.0000001,3.0000001 0 0 1 0.149156,0.260053 3.0000001,3.0000001 0 0 1 0.122253,0.273998 3.0000001,3.0000001 0 0 1 0.09435,0.284817 3.0000001,3.0000001 0 0 1 0.06565,0.292443 3.0000001,3.0000001 0 0 1 0.03593,0.297701 3.0000001,3.0000001 0 0 1 0.0068,0.212407 3.0000001,3.0000001 0 0 1 -0.01527,0.299171 3.0000001,3.0000001 0 0 1 -0.04525,0.296581 3.0000001,3.0000001 0 0 1 -0.07415,0.290364 3.0000001,3.0000001 0 0 1 -0.103086,0.281543 3.0000001,3.0000001 0 0 1 -0.130975,0.270156 3.0000001,3.0000001 0 0 1 -0.156812,0.255667 3.0000001,3.0000001 0 0 1 -0.181579,0.238601 3.0000001,3.0000001 0 0 1 -0.204829,0.218919 3.0000001,3.0000001 0 0 1 -0.225483,0.197716 3.0000001,3.0000001 0 0 1 -0.244064,0.17447 3.0000001,3.0000001 0 0 1 -0.260058,0.1486 3.0000001,3.0000001 0 0 1 -0.273993,0.122242 3.0000001,3.0000001 0 0 1 -0.2843,0.09435 3.0000001,3.0000001 0 0 1 -0.292545,0.06588 3.0000001,3.0000001 0 0 1 -0.298196,0.03544 3.0000001,3.0000001 0 0 1 -0.211882,0.0078 3.0000001,3.0000001 0 0 1 -0.299724,-0.01527 3.0000001,3.0000001 0 0 1 -0.296576,-0.04526 3.0000001,3.0000001 0 0 1 -0.290355,-0.07415 3.0000001,3.0000001 0 0 1 -0.281555,-0.103086 3.0000001,3.0000001 0 0 1 -0.269632,-0.130964 3.0000001,3.0000001 0 0 1 -0.255667,-0.156803 3.0000001,3.0000001 0 0 1 -0.238573,-0.181608 3.0000001,3.0000001 0 0 1 -0.06717,-0.06256 l -0.0067,7.768017 7.767999,0.0067 a 3.0000001,3.0000001 0 0 0 -0.06255,0.06715 3.0000001,3.0000001 0 0 0 -0.182112,0.238571 3.0000001,3.0000001 0 0 0 -0.156792,0.255664 3.0000001,3.0000001 0 0 0 -0.13048,0.269669 3.0000001,3.0000001 0 0 0 -0.103069,0.281528 3.0000001,3.0000001 0 0 0 -0.07466,0.290865 3.0000001,3.0000001 0 0 0 -0.04526,0.296591 3.0000001,3.0000001 0 0 0 -0.01526,0.299199 3.0000001,3.0000001 0 0 0 0.0078,0.212379 3.0000001,3.0000001 0 0 0 0.03593,0.297701 3.0000001,3.0000001 0 0 0 0.06565,0.292461 3.0000001,3.0000001 0 0 0 0.09435,0.284816 3.0000001,3.0000001 0 0 0 0.122322,0.273456 3.0000001,3.0000001 0 0 0 0.149082,0.260578 3.0000001,3.0000001 0 0 0 0.173937,0.244071 3.0000001,3.0000001 0 0 0 0.197726,0.225481 3.0000001,3.0000001 0 0 0 0.219457,0.204329 3.0000001,3.0000001 0 0 0 0.238576,0.18158 3.0000001,3.0000001 0 0 0 0.255158,0.157318 3.0000001,3.0000001 0 0 0 0.27016,0.130444 3.0000001,3.0000001 0 0 0 0.281533,0.103078 3.0000001,3.0000001 0 0 0 0.290358,0.07465 3.0000001,3.0000001 0 0 0 0.296589,0.04466 3.0000001,3.0000001 0 0 0 0.299719,0.01525 z"
       style="display:inline;fill:#ff0000;fill-rule:evenodd;stroke:#000000;stroke-width:0.1;stroke-linecap:round;stroke-linejoin:round;stroke-miterlimit:4;stroke-dasharray:none;stroke-opacity:1" />
    <g
       transform="matrix(0.05898049,5.11946e-5,-5.11946e-5,0.05898049,-3.7804885,43.128452)"
       id="g4147"
       style="display:inline;stroke-width:6.78190136;stroke-miterlimit:4;stroke-dasharray:none">
      <rect
         y="399.87881"
         x="-390.97113"
         height="65.958954"
         width="220.24062"
         id="rect4296-8-6-1"
         style="fill:#ffffff;fill-opacity:1;stroke-width:6.78190136;stroke-miterlimit:4;stroke-dasharray:none"
         inkscape:export-xdpi="180"
         inkscape:export-ydpi="180" />
      <rect
         y="483.37146"
         x="-390.97113"
         height="65.109695"
         width="165.32201"
         id="rect4298-04-0-03"
         style="fill:#ffffff;fill-opacity:1;stroke-width:6.78190136;stroke-miterlimit:4;stroke-dasharray:none"
         inkscape:export-xdpi="180"
         inkscape:export-ydpi="180" />
      <path
         inkscape:connector-curvature="0"
         id="rect4300-2-6-7"
         d="m -339.8895,567.00564 h 238.9611 V 630.983 h -238.9611 z"
         style="fill:url(#linearGradient7794);fill-opacity:1;stroke-width:6.78190136;stroke-miterlimit:4;stroke-dasharray:none"
         inkscape:export-xdpi="180"
         inkscape:export-ydpi="180"
         sodipodi:nodetypes="ccccc" />
    </g>
  </g>
</svg>
