<?xml version="1.0" encoding="UTF-8" standalone="no"?>
<!-- Created with Inkscape (http://www.inkscape.org/) -->

<svg
   xmlns:dc="http://purl.org/dc/elements/1.1/"
   xmlns:cc="http://creativecommons.org/ns#"
   xmlns:rdf="http://www.w3.org/1999/02/22-rdf-syntax-ns#"
   xmlns:svg="http://www.w3.org/2000/svg"
   xmlns="http://www.w3.org/2000/svg"
   xmlns:sodipodi="http://sodipodi.sourceforge.net/DTD/sodipodi-0.dtd"
   xmlns:inkscape="http://www.inkscape.org/namespaces/inkscape"
   width="29.264603mm"
   height="29.264608mm"
   viewBox="0 0 29.264603 29.264608"
   version="1.1"
   id="svg985"
   inkscape:version="0.92.3 (2405546, 2018-03-11)"
   sodipodi:docname="chapter-header-5.svg">
  <defs
     id="defs979" />
  <sodipodi:namedview
     id="base"
     pagecolor="#ffffff"
     bordercolor="#666666"
     borderopacity="1.0"
     inkscape:pageopacity="0.0"
     inkscape:pageshadow="2"
     inkscape:zoom="5.6"
     inkscape:cx="33.535822"
     inkscape:cy="70.413233"
     inkscape:document-units="mm"
     inkscape:current-layer="layer1"
     showgrid="false"
     showguides="false"
     inkscape:guide-bbox="true"
     fit-margin-top="2"
     fit-margin-left="2"
     fit-margin-right="2"
     fit-margin-bottom="2"
     inkscape:window-width="1916"
     inkscape:window-height="1076"
     inkscape:window-x="0"
     inkscape:window-y="0"
     inkscape:window-maximized="1" />
  <metadata
     id="metadata982">
    <rdf:RDF>
      <cc:Work
         rdf:about="">
        <dc:format>image/svg+xml</dc:format>
        <dc:type
           rdf:resource="http://purl.org/dc/dcmitype/StillImage" />
        <dc:title></dc:title>
      </cc:Work>
    </rdf:RDF>
  </metadata>
  <g
     inkscape:label="Layer 1"
     inkscape:groupmode="layer"
     id="layer1"
     transform="translate(-4.3987353,-56.181452)"
     style="opacity:0.99900004">
    <path
       inkscape:connector-curvature="0"
       d="m 11.531237,58.313744 v 7.76852 a 3.0000001,3.0000001 0 0 0 -2.0003899,-0.76895 3.0000001,3.0000001 0 0 0 -2.9998201,3.00034 3.0000001,3.0000001 0 0 0 2.9998201,2.99981 3.0000001,3.0000001 0 0 0 2.0003899,-0.76894 v 7.769026 h 7.76801 a 3.0000001,3.0000001 0 0 0 -0.76843,1.99988 3.0000001,3.0000001 0 0 0 3.00032,3.00034 3.0000001,3.0000001 0 0 0 2.99982,-3.00034 3.0000001,3.0000001 0 0 0 -0.76893,-1.99988 h 7.76902 v -7.769026 a 3.0000001,3.0000001 0 0 1 -1.99988,0.76894 3.0000001,3.0000001 0 0 1 -3.00033,-2.99981 3.0000001,3.0000001 0 0 1 3.00033,-3.00034 3.0000001,3.0000001 0 0 1 1.99988,0.76843 v -7.768 h -7.76852 a 3.0000001,3.0000001 0 0 1 0.76843,1.99988 3.0000001,3.0000001 0 0 1 -2.99982,2.99982 3.0000001,3.0000001 0 0 1 -3.00032,-2.99982 3.0000001,3.0000001 0 0 1 0.76843,-1.99988 z"
       style="display:inline;fill:#ff0000;stroke:none;stroke-width:0.26458332"
       id="path19199" />
    <g
       transform="translate(-148.10695,69.200377)"
       style="display:inline"
       id="g5446">
      <g
         transform="translate(1.4882813,0.03307292)"
         id="g5345">
        <circle
           style="opacity:1;fill:none;fill-opacity:1;stroke:#ffffff;stroke-width:0.375;stroke-linecap:round;stroke-linejoin:round;stroke-miterlimit:4;stroke-dasharray:none;stroke-opacity:1;paint-order:stroke fill markers"
           id="path5339"
           cx="169.6015"
           cy="-1.7420722"
           r="1.8368431" />
        <path
           style="fill:none;fill-rule:evenodd;stroke:#ffffff;stroke-width:0.36500001;stroke-linecap:butt;stroke-linejoin:miter;stroke-miterlimit:4;stroke-dasharray:none;stroke-opacity:1"
           d="m 165.15815,7.78179 1.40414,-6.5016617 c 0,0 0.29829,-1.12261331 3.07464,-1.16930222 2.48143,-0.04172914 2.88286,1.12253182 2.88286,1.12253182 l 1.4783,6.5484321 h -1.1693 L 171.42562,2.8703827 V 7.78179 h -3.695 V 2.6365227 L 166.51454,7.78179 Z"
           id="path5341"
           inkscape:connector-curvature="0"
           sodipodi:nodetypes="ccsccccccccc" />
      </g>
      <g
         transform="translate(-11.757422,10.616406)"
         id="g5392">
        <circle
           style="opacity:1;fill:none;fill-opacity:1;stroke:#ffffff;stroke-width:0.36500001;stroke-linecap:round;stroke-linejoin:round;stroke-miterlimit:4;stroke-dasharray:none;stroke-opacity:1;paint-order:stroke fill markers"
           id="path5349"
           cx="174.94713"
           cy="-6.3594909"
           r="2.1497395" />
        <path
           id="circle5360"
           style="opacity:1;fill:none;fill-opacity:1;stroke:#ffffff;stroke-width:0.36500001;stroke-linecap:round;stroke-linejoin:round;stroke-miterlimit:4;stroke-dasharray:none;stroke-opacity:1;paint-order:stroke fill markers"
           sodipodi:type="arc"
           sodipodi:cx="174.94713"
           sodipodi:cy="-6.3594909"
           sodipodi:rx="2.1497395"
           sodipodi:ry="2.1497395"
           sodipodi:start="0"
           sodipodi:end="1.8551811"
           d="m 177.09687,-6.3594909 a 2.1497395,2.1497395 0 0 1 -0.86041,1.7201725 2.1497395,2.1497395 0 0 1 -1.89248,0.3432216 l 0.60315,-2.0633941 z" />
        <path
           d="m 177.09687,-6.3594909 a 2.1497395,2.1497395 0 0 1 -1.2123,1.9345753 2.1497395,2.1497395 0 0 1 -2.2696,-0.2473447 2.1497395,2.1497395 0 0 1 -0.76712,-2.1502958 l 2.09928,0.4630652 z"
           sodipodi:end="3.3586995"
           sodipodi:start="0"
           sodipodi:ry="2.1497395"
           sodipodi:rx="2.1497395"
           sodipodi:cy="-6.3594909"
           sodipodi:cx="174.94713"
           sodipodi:type="arc"
           style="opacity:1;fill:none;fill-opacity:1;stroke:#ffffff;stroke-width:0.36500001;stroke-linecap:round;stroke-linejoin:round;stroke-miterlimit:4;stroke-dasharray:none;stroke-opacity:1;paint-order:stroke fill markers"
           id="path5362" />
      </g>
      <g
         transform="translate(1.2898438,1.5875)"
         id="g5398">
        <circle
           style="display:inline;opacity:1;fill:none;fill-opacity:1;stroke:#ffffff;stroke-width:0.36500001;stroke-linecap:round;stroke-linejoin:round;stroke-miterlimit:4;stroke-dasharray:none;stroke-opacity:1;paint-order:stroke fill markers"
           id="path5349-6"
           cx="164.62837"
           cy="-5.598804"
           r="2.1497395" />
        <path
           id="circle5379"
           style="display:inline;opacity:1;fill:none;fill-opacity:1;stroke:#ffffff;stroke-width:0.36500001;stroke-linecap:round;stroke-linejoin:round;stroke-miterlimit:4;stroke-dasharray:none;stroke-opacity:1;paint-order:stroke fill markers"
           sodipodi:type="arc"
           sodipodi:cx="164.62837"
           sodipodi:cy="-5.598804"
           sodipodi:rx="2.1497395"
           sodipodi:ry="2.1497395"
           sodipodi:start="0"
           sodipodi:end="5.7776042"
           d="m 166.77811,-5.598804 a 2.1497395,2.1497395 0 0 1 -1.87874,2.1325905 2.1497395,2.1497395 0 0 1 -2.35241,-1.594926 2.1497395,2.1497395 0 0 1 1.28566,-2.5347001 2.1497395,2.1497395 0 0 1 2.67654,0.9558825 l -1.88079,1.0411531 z" />
        <path
           d="m 166.77811,-5.598804 a 2.1497395,2.1497395 0 0 1 -1.58056,2.0730203 2.1497395,2.1497395 0 0 1 -2.41752,-0.9752841 2.1497395,2.1497395 0 0 1 0.3004,-2.5894671 2.1497395,2.1497395 0 0 1 2.57659,-0.3959285 l -1.02865,1.8876594 z"
           sodipodi:end="5.2113347"
           sodipodi:start="0"
           sodipodi:ry="2.1497395"
           sodipodi:rx="2.1497395"
           sodipodi:cy="-5.598804"
           sodipodi:cx="164.62837"
           sodipodi:type="arc"
           style="display:inline;opacity:1;fill:none;fill-opacity:1;stroke:#ffffff;stroke-width:0.36500001;stroke-linecap:round;stroke-linejoin:round;stroke-miterlimit:4;stroke-dasharray:none;stroke-opacity:1;paint-order:stroke fill markers"
           id="path5381" />
        <path
           id="path5383"
           style="display:inline;opacity:1;fill:none;fill-opacity:1;stroke:#ffffff;stroke-width:0.36500001;stroke-linecap:round;stroke-linejoin:round;stroke-miterlimit:4;stroke-dasharray:none;stroke-opacity:1;paint-order:stroke fill markers"
           sodipodi:type="arc"
           sodipodi:cx="164.62837"
           sodipodi:cy="-5.598804"
           sodipodi:rx="2.1497395"
           sodipodi:ry="2.1497395"
           sodipodi:start="0"
           sodipodi:end="3.9479373"
           d="m 166.77811,-5.598804 a 2.1497395,2.1497395 0 0 1 -1.60786,2.0803231 2.1497395,2.1497395 0 0 1 -2.41843,-1.0315551 2.1497395,2.1497395 0 0 1 0.38863,-2.6003682 l 1.48792,1.5516002 z" />
      </g>
      <path
         sodipodi:nodetypes="cc"
         inkscape:connector-curvature="0"
         id="path5385"
         d="m 167.86951,-3.0852638 3.14194,1.9347655"
         style="fill:none;fill-rule:evenodd;stroke:#ffffff;stroke-width:0.36500001;stroke-linecap:round;stroke-linejoin:round;stroke-miterlimit:4;stroke-dasharray:none;stroke-opacity:1" />
      <path
         sodipodi:nodetypes="cc"
         inkscape:connector-curvature="0"
         id="path5400"
         d="m 165.24021,5.4146546 h 5.39068"
         style="fill:none;fill-rule:evenodd;stroke:#ffffff;stroke-width:0.26499999;stroke-linecap:round;stroke-linejoin:round;stroke-miterlimit:4;stroke-dasharray:none;stroke-opacity:1" />
    </g>
  </g>
</svg>
