<?xml version="1.0" encoding="UTF-8" standalone="no"?>
<!-- Created with Inkscape (http://www.inkscape.org/) -->

<svg
   xmlns:dc="http://purl.org/dc/elements/1.1/"
   xmlns:cc="http://creativecommons.org/ns#"
   xmlns:rdf="http://www.w3.org/1999/02/22-rdf-syntax-ns#"
   xmlns:svg="http://www.w3.org/2000/svg"
   xmlns="http://www.w3.org/2000/svg"
   xmlns:sodipodi="http://sodipodi.sourceforge.net/DTD/sodipodi-0.dtd"
   xmlns:inkscape="http://www.inkscape.org/namespaces/inkscape"
   width="29.100883mm"
   height="29.101017mm"
   viewBox="0 0 29.100884 29.101017"
   version="1.1"
   id="svg985"
   inkscape:version="0.92.3 (2405546, 2018-03-11)"
   sodipodi:docname="chapter-header-base-circos.svg">
  <defs
     id="defs979" />
  <sodipodi:namedview
     id="base"
     pagecolor="#ffffff"
     bordercolor="#666666"
     borderopacity="1.0"
     inkscape:pageopacity="0.0"
     inkscape:pageshadow="2"
     inkscape:zoom="2.8"
     inkscape:cx="-166.52212"
     inkscape:cy="17.542073"
     inkscape:document-units="mm"
     inkscape:current-layer="layer1"
     showgrid="false"
     showguides="true"
     inkscape:guide-bbox="true"
     fit-margin-top="2"
     fit-margin-left="2"
     fit-margin-right="2"
     fit-margin-bottom="2"
     inkscape:window-width="1920"
     inkscape:window-height="1120"
     inkscape:window-x="0"
     inkscape:window-y="25"
     inkscape:window-maximized="1" />
  <metadata
     id="metadata982">
    <rdf:RDF>
      <cc:Work
         rdf:about="">
        <dc:format>image/svg+xml</dc:format>
        <dc:type
           rdf:resource="http://purl.org/dc/dcmitype/StillImage" />
        <dc:title></dc:title>
      </cc:Work>
    </rdf:RDF>
  </metadata>
  <g
     inkscape:label="Layer 1"
     inkscape:groupmode="layer"
     id="layer1"
     transform="translate(-5.5257219,-56.525361)"
     style="opacity:0.99900004">
    <g
       id="g5011"
       transform="rotate(132.22787,16.886225,68.902549)">
      <path
         style="display:inline;fill:#ff0000;fill-rule:evenodd;stroke:#000000;stroke-width:0.1;stroke-linecap:round;stroke-linejoin:round;stroke-miterlimit:4;stroke-dasharray:none;stroke-opacity:1"
         d="m 20.567625,51.125172 -5.75258,5.220152 a 3.0000001,3.0000001 0 0 0 0.001,-0.09174 3.0000001,3.0000001 0 0 0 -0.0261,-0.298702 3.0000001,3.0000001 0 0 0 -0.0559,-0.29465 3.0000001,3.0000001 0 0 0 -0.0845,-0.287616 3.0000001,3.0000001 0 0 0 -0.1131,-0.277674 3.0000001,3.0000001 0 0 0 -0.14044,-0.264731 3.0000001,3.0000001 0 0 0 -0.16601,-0.249904 3.0000001,3.0000001 0 0 0 -0.19031,-0.232037 3.0000001,3.0000001 0 0 0 -0.148304,-0.151524 3.0000001,3.0000001 0 0 0 -0.22681,-0.196819 3.0000001,3.0000001 0 0 0 -0.24551,-0.172178 3.0000001,3.0000001 0 0 0 -0.26105,-0.146911 3.0000001,3.0000001 0 0 0 -0.27476,-0.120521 3.0000001,3.0000001 0 0 0 -0.28488,-0.09249 3.0000001,3.0000001 0 0 0 -0.29326,-0.06325 3.0000001,3.0000001 0 0 0 -0.29798,-0.03385 3.0000001,3.0000001 0 0 0 -0.29976,-0.0043 3.0000001,3.0000001 0 0 0 -0.29871,0.02612 3.0000001,3.0000001 0 0 0 -0.29466,0.05596 3.0000001,3.0000001 0 0 0 -0.288,0.08481 3.0000001,3.0000001 0 0 0 -0.27767,0.113098 3.0000001,3.0000001 0 0 0 -0.26474,0.140444 3.0000001,3.0000001 0 0 0 -0.2499,0.166005 3.0000001,3.0000001 0 0 0 -0.2316198,0.189963 3.0000001,3.0000001 0 0 0 -0.15259,0.147932 3.0000001,3.0000001 0 0 0 -0.19612,0.226823 3.0000001,3.0000001 0 0 0 -0.17248,0.245139 3.0000001,3.0000001 0 0 0 -0.14727,0.261405 3.0000001,3.0000001 0 0 0 -0.12054,0.274754 3.0000001,3.0000001 0 0 0 -0.0921,0.285288 3.0000001,3.0000001 0 0 0 -0.0632,0.293268 3.0000001,3.0000001 0 0 0 -0.0338,0.297962 3.0000001,3.0000001 0 0 0 -0.004,0.299789 3.0000001,3.0000001 0 0 0 0.0261,0.298686 3.0000001,3.0000001 0 0 0 0.0559,0.294655 3.0000001,3.0000001 0 0 0 0.0852,0.287657 3.0000001,3.0000001 0 0 0 0.1131,0.277674 3.0000001,3.0000001 0 0 0 0.14007,0.265067 3.0000001,3.0000001 0 0 0 0.16601,0.249903 3.0000001,3.0000001 0 0 0 0.18996,0.231658 3.0000001,3.0000001 0 0 0 0.14865,0.151904 3.0000001,3.0000001 0 0 0 0.22683,0.196097 3.0000001,3.0000001 0 0 0 0.2451298,0.17252 3.0000001,3.0000001 0 0 0 0.2614,0.14729 3.0000001,3.0000001 0 0 0 0.27441,0.120141 3.0000001,3.0000001 0 0 0 0.28561,0.09252 3.0000001,3.0000001 0 0 0 0.29288,0.0636 3.0000001,3.0000001 0 0 0 0.17828,0.02035 l -5.7529378,5.220487 5.2201598,5.752569 a 3.0000001,3.0000001 0 0 0 -0.0918,-0.0011 3.0000001,3.0000001 0 0 0 -0.29871,0.02612 3.0000001,3.0000001 0 0 0 -0.29466,0.05595 3.0000001,3.0000001 0 0 0 -0.28726,0.08484 3.0000001,3.0000001 0 0 0 -0.2776698,0.113089 3.0000001,3.0000001 0 0 0 -0.26507,0.140076 3.0000001,3.0000001 0 0 0 -0.24991,0.166012 3.0000001,3.0000001 0 0 0 -0.23207,0.190286 3.0000001,3.0000001 0 0 0 -0.15151,0.148307 3.0000001,3.0000001 0 0 0 -0.19613,0.226831 3.0000001,3.0000001 0 0 0 -0.17292,0.245453 3.0000001,3.0000001 0 0 0 -0.14691,0.261037 3.0000001,3.0000001 0 0 0 -0.12054,0.274753 3.0000001,3.0000001 0 0 0 -0.0921,0.285281 3.0000001,3.0000001 0 0 0 -0.0636,0.292887 3.0000001,3.0000001 0 0 0 -0.0338,0.297969 3.0000001,3.0000001 0 0 0 -0.004,0.300165 3.0000001,3.0000001 0 0 0 0.0261,0.298687 3.0000001,3.0000001 0 0 0 0.0556,0.294278 3.0000001,3.0000001 0 0 0 0.0848,0.287997 3.0000001,3.0000001 0 0 0 0.11312,0.277662 3.0000001,3.0000001 0 0 0 0.14044,0.264731 3.0000001,3.0000001 0 0 0 0.166,0.249904 3.0000001,3.0000001 0 0 0 0.19032,0.232037 3.0000001,3.0000001 0 0 0 0.14756,0.152204 3.0000001,3.0000001 0 0 0 0.22683,0.196092 3.0000001,3.0000001 0 0 0 0.24549,0.172905 3.0000001,3.0000001 0 0 0 0.26105,0.146911 3.0000001,3.0000001 0 0 0 0.27474,0.120524 3.0000001,3.0000001 0 0 0 0.2852898,0.09211 3.0000001,3.0000001 0 0 0 0.29324,0.06326 3.0000001,3.0000001 0 0 0 0.29799,0.03384 3.0000001,3.0000001 0 0 0 0.29978,0.0043 3.0000001,3.0000001 0 0 0 0.29868,-0.02611 3.0000001,3.0000001 0 0 0 0.29465,-0.05594 3.0000001,3.0000001 0 0 0 0.28802,-0.08481 3.0000001,3.0000001 0 0 0 0.27767,-0.113107 3.0000001,3.0000001 0 0 0 0.26472,-0.140433 3.0000001,3.0000001 0 0 0 0.24991,-0.166013 3.0000001,3.0000001 0 0 0 0.23164,-0.189987 3.0000001,3.0000001 0 0 0 0.15186,-0.148659 3.0000001,3.0000001 0 0 0 0.19648,-0.226444 3.0000001,3.0000001 0 0 0 0.17222,-0.24548 3.0000001,3.0000001 0 0 0 0.14728,-0.261421 3.0000001,3.0000001 0 0 0 0.12052,-0.27473 3.0000001,3.0000001 0 0 0 0.0925,-0.284899 3.0000001,3.0000001 0 0 0 0.0632,-0.293267 3.0000001,3.0000001 0 0 0 0.0204,-0.178284 l 5.22048,5.752933 5.75333,-5.22084 a 3.0000001,3.0000001 0 0 1 -0.17902,-0.02037 3.0000001,3.0000001 0 0 1 -0.29288,-0.06359 3.0000001,3.0000001 0 0 1 -0.28525,-0.09214 3.0000001,3.0000001 0 0 1 -0.27477,-0.120514 3.0000001,3.0000001 0 0 1 -0.26105,-0.146909 3.0000001,3.0000001 0 0 1 -0.24549,-0.172905 3.0000001,3.0000001 0 0 1 -0.22683,-0.196098 3.0000001,3.0000001 0 0 1 -0.14831,-0.151529 3.0000001,3.0000001 0 0 1 -0.1903,-0.232032 3.0000001,3.0000001 0 0 1 -0.16601,-0.249904 3.0000001,3.0000001 0 0 1 -0.14007,-0.265067 3.0000001,3.0000001 0 0 1 -0.11309,-0.277688 3.0000001,3.0000001 0 0 1 -0.0852,-0.287653 3.0000001,3.0000001 0 0 1 -0.0556,-0.294271 3.0000001,3.0000001 0 0 1 -0.0261,-0.298687 3.0000001,3.0000001 0 0 1 0.004,-0.300172 3.0000001,3.0000001 0 0 1 0.0338,-0.297967 3.0000001,3.0000001 0 0 1 0.0636,-0.29288 3.0000001,3.0000001 0 0 1 0.0921,-0.285271 3.0000001,3.0000001 0 0 1 0.12054,-0.274764 3.0000001,3.0000001 0 0 1 0.14728,-0.261414 3.0000001,3.0000001 0 0 1 0.17248,-0.245138 3.0000001,3.0000001 0 0 1 0.19612,-0.226823 3.0000001,3.0000001 0 0 1 0.15197,-0.148638 3.0000001,3.0000001 0 0 1 0.23162,-0.189962 3.0000001,3.0000001 0 0 1 0.2499,-0.166004 3.0000001,3.0000001 0 0 1 0.26508,-0.140071 3.0000001,3.0000001 0 0 1 0.27732,-0.113487 3.0000001,3.0000001 0 0 1 0.28801,-0.0848 3.0000001,3.0000001 0 0 1 0.29465,-0.05594 3.0000001,3.0000001 0 0 1 0.29869,-0.02613 3.0000001,3.0000001 0 0 1 0.29979,0.0043 3.0000001,3.0000001 0 0 1 0.29796,0.03386 3.0000001,3.0000001 0 0 1 0.29328,0.06324 3.0000001,3.0000001 0 0 1 0.28488,0.09248 3.0000001,3.0000001 0 0 1 0.27475,0.120515 3.0000001,3.0000001 0 0 1 0.2614,0.147291 3.0000001,3.0000001 0 0 1 0.24551,0.172178 3.0000001,3.0000001 0 0 1 0.22646,0.196444 3.0000001,3.0000001 0 0 1 0.14865,0.151904 3.0000001,3.0000001 0 0 1 0.18996,0.231658 3.0000001,3.0000001 0 0 1 0.166,0.249898 3.0000001,3.0000001 0 0 1 0.14045,0.264739 3.0000001,3.0000001 0 0 1 0.1131,0.277671 3.0000001,3.0000001 0 0 1 0.0848,0.287995 3.0000001,3.0000001 0 0 1 0.0559,0.294656 3.0000001,3.0000001 0 0 1 0.0257,0.29832 3.0000001,3.0000001 0 0 1 -10e-4,0.09248 l 5.752956,-5.220487 -5.220842,-5.753322 a 3.0000001,3.0000001 0 0 1 -0.0204,0.179019 3.0000001,3.0000001 0 0 1 -0.0633,0.293268 3.0000001,3.0000001 0 0 1 -0.0925,0.284899 3.0000001,3.0000001 0 0 1 -0.12054,0.274745 3.0000001,3.0000001 0 0 1 -0.14692,0.261045 3.0000001,3.0000001 0 0 1 -0.17257,0.245841 3.0000001,3.0000001 0 0 1 -0.19647,0.226435 3.0000001,3.0000001 0 0 1 -0.15152,0.148315 3.0000001,3.0000001 0 0 1 -0.23207,0.190285 3.0000001,3.0000001 0 0 1 -0.24991,0.166012 3.0000001,3.0000001 0 0 1 -0.26474,0.140446 3.0000001,3.0000001 0 0 1 -0.27766,0.113095 3.0000001,3.0000001 0 0 1 -0.288,0.0848 3.0000001,3.0000001 0 0 1 -0.29429,0.05561 3.0000001,3.0000001 0 0 1 -0.29868,0.02611 3.0000001,3.0000001 0 0 1 -0.30017,-0.0039 3.0000001,3.0000001 0 0 1 -0.29796,-0.03386 3.0000001,3.0000001 0 0 1 -0.29288,-0.0636 3.0000001,3.0000001 0 0 1 -0.28528,-0.09212 3.0000001,3.0000001 0 0 1 -0.27476,-0.120515 3.0000001,3.0000001 0 0 1 -0.26105,-0.146911 3.0000001,3.0000001 0 0 1 -0.24549,-0.172905 3.0000001,3.0000001 0 0 1 -0.22683,-0.196098 3.0000001,3.0000001 0 0 1 -0.1483,-0.151523 3.0000001,3.0000001 0 0 1 -0.19031,-0.232038 3.0000001,3.0000001 0 0 1 -0.16608,-0.249832 3.0000001,3.0000001 0 0 1 -0.14007,-0.265069 3.0000001,3.0000001 0 0 1 -0.11312,-0.277661 3.0000001,3.0000001 0 0 1 -0.0852,-0.287665 3.0000001,3.0000001 0 0 1 -0.0556,-0.294267 3.0000001,3.0000001 0 0 1 -0.0261,-0.298694 3.0000001,3.0000001 0 0 1 0.004,-0.300162 3.0000001,3.0000001 0 0 1 0.0339,-0.29798 3.0000001,3.0000001 0 0 1 0.0636,-0.292866 3.0000001,3.0000001 0 0 1 0.0921,-0.285305 3.0000001,3.0000001 0 0 1 0.12053,-0.274731 3.0000001,3.0000001 0 0 1 0.14727,-0.261413 3.0000001,3.0000001 0 0 1 0.1725,-0.245163 3.0000001,3.0000001 0 0 1 0.19612,-0.226823 3.0000001,3.0000001 0 0 1 0.15187,-0.148668 3.0000001,3.0000001 0 0 1 0.23162,-0.189962 3.0000001,3.0000001 0 0 1 0.249911,-0.166005 3.0000001,3.0000001 0 0 1 0.265069,-0.140084 3.0000001,3.0000001 0 0 1 0.27768,-0.113106 3.0000001,3.0000001 0 0 1 0.287641,-0.08517 3.0000001,3.0000001 0 0 1 0.294659,-0.05595 3.0000001,3.0000001 0 0 1 0.298711,-0.02612 3.0000001,3.0000001 0 0 1 0.0918,0.0011 z"
         id="path1645"
         inkscape:connector-curvature="0" />
      <g
         id="g3696"
         transform="rotate(32.777908,19.467857,-234.58309)"
         style="display:inline;stroke:#fefefe;stroke-width:0.40000001;stroke-miterlimit:4;stroke-dasharray:none;stroke-opacity:1">
        <path
           sodipodi:nodetypes="cc"
           inkscape:connector-curvature="0"
           id="path3587"
           d="m 174.69199,19.451569 c 2.83731,-1.024049 4.97035,-3.060473 6.80357,-5.527902"
           style="fill:none;fill-rule:evenodd;stroke:#fefefe;stroke-width:0.40000001;stroke-linecap:butt;stroke-linejoin:miter;stroke-miterlimit:4;stroke-dasharray:none;stroke-opacity:1" />
        <path
           sodipodi:nodetypes="ccc"
           inkscape:connector-curvature="0"
           id="path3589"
           d="m 183.69255,15.648183 c -2.67329,0.643493 -5.45805,1.420898 -8.62258,0.897694 4.62106,1.425499 3.57913,3.804176 1.93713,6.283854"
           style="fill:none;fill-rule:evenodd;stroke:#eeeeee;stroke-width:0.40000001;stroke-linecap:butt;stroke-linejoin:miter;stroke-miterlimit:4;stroke-dasharray:none;stroke-opacity:1" />
        <path
           sodipodi:nodetypes="cccc"
           inkscape:connector-curvature="0"
           id="path3591"
           d="m 174.69199,19.451569 v 0 c 3.77118,-1.394557 6.54169,-0.307433 8.7407,2.196986 -2.68628,-1.729052 -5.43233,-1.963901 -8.2446,-0.54334"
           style="fill:none;fill-rule:evenodd;stroke:#d2d2d2;stroke-width:0.40000001;stroke-linecap:butt;stroke-linejoin:miter;stroke-miterlimit:4;stroke-dasharray:none;stroke-opacity:1" />
        <path
           sodipodi:nodetypes="ccc"
           inkscape:connector-curvature="0"
           id="path3593"
           d="m 184.63749,17.939664 c -4.5559,1.00855 -2.90103,3.126167 -2.43322,5.031808 -1.53013,-3.078931 -2.3736,-6.323227 -2.83482,-9.402158"
           style="fill:none;fill-rule:evenodd;stroke:#868686;stroke-width:0.40000001;stroke-linecap:butt;stroke-linejoin:miter;stroke-miterlimit:4;stroke-dasharray:none;stroke-opacity:1" />
        <path
           sodipodi:nodetypes="cc"
           inkscape:connector-curvature="0"
           id="path3595"
           d="m 174.64475,18.24677 c 3.5168,0.371764 5.97767,-1.368321 8.31547,-3.354539"
           style="fill:none;fill-rule:evenodd;stroke:#e9e9e9;stroke-width:0.40000001;stroke-linecap:butt;stroke-linejoin:miter;stroke-miterlimit:4;stroke-dasharray:none;stroke-opacity:1" />
        <path
           sodipodi:nodetypes="cc"
           inkscape:connector-curvature="0"
           id="path3597"
           d="m 184.35401,16.5695 c -2.85057,0.155959 -5.70114,0.416085 -8.55171,-1.01581"
           style="fill:none;fill-rule:evenodd;stroke:#d1d1d1;stroke-width:0.40000001;stroke-linecap:butt;stroke-linejoin:miter;stroke-miterlimit:4;stroke-dasharray:none;stroke-opacity:1" />
        <circle
           r="5.0344944"
           cy="18.601126"
           cx="179.67654"
           id="path3561-1"
           style="fill:none;fill-opacity:1;stroke:#b0b0b0;stroke-width:0.40000001;stroke-linejoin:round;stroke-miterlimit:4;stroke-dasharray:none;stroke-opacity:1" />
        <path
           transform="rotate(11.320108)"
           sodipodi:open="true"
           d="m 185.6461,-17.001814 a 5.7460041,5.7460041 0 0 1 -3.1423,5.122235 5.7460041,5.7460041 0 0 1 -5.99006,-0.48013"
           sodipodi:end="2.2010397"
           sodipodi:start="0"
           sodipodi:ry="5.7460041"
           sodipodi:rx="5.7460041"
           sodipodi:cy="-17.001814"
           sodipodi:cx="179.9001"
           sodipodi:type="arc"
           id="path3561-7"
           style="fill:none;fill-opacity:1;stroke:#fefefe;stroke-width:0.40000001;stroke-linejoin:round;stroke-miterlimit:4;stroke-dasharray:none;stroke-opacity:1" />
        <path
           transform="rotate(-173.09178)"
           sodipodi:open="true"
           d="m -174.83845,3.1927688 a 5.7460041,5.7460041 0 0 1 -3.19115,5.1467742 5.7460041,5.7460041 0 0 1 -6.02892,-0.5699392"
           sodipodi:end="2.2200672"
           sodipodi:start="0"
           sodipodi:ry="5.7460041"
           sodipodi:rx="5.7460041"
           sodipodi:cy="3.1927688"
           sodipodi:cx="-180.58446"
           sodipodi:type="arc"
           id="path3561-5"
           style="fill:none;fill-opacity:1;stroke:#fefefe;stroke-width:0.40000001;stroke-linejoin:round;stroke-miterlimit:4;stroke-dasharray:none;stroke-opacity:1" />
        <path
           transform="rotate(59.181262)"
           sodipodi:open="true"
           d="m 108.90684,-139.07256 a 5.7460041,5.7460041 0 0 1 -4.18971,-1.04747"
           sodipodi:end="2.2010397"
           sodipodi:start="1.4305266"
           sodipodi:ry="5.7460041"
           sodipodi:rx="5.7460041"
           sodipodi:cy="-144.76213"
           sodipodi:cx="108.10349"
           sodipodi:type="arc"
           id="path3561-7-9"
           style="fill:none;fill-opacity:1;stroke:#fefefe;stroke-width:0.40000001;stroke-linejoin:round;stroke-miterlimit:4;stroke-dasharray:none;stroke-opacity:1" />
        <path
           transform="rotate(-124.68068)"
           sodipodi:open="true"
           d="m -116.74114,142.90907 a 5.7460041,5.7460041 0 0 1 -4.67199,-1.44102"
           sodipodi:end="2.3094257"
           sodipodi:start="1.4305266"
           sodipodi:ry="5.7460041"
           sodipodi:rx="5.7460041"
           sodipodi:cy="137.2195"
           sodipodi:cx="-117.54449"
           sodipodi:type="arc"
           id="path3561-7-9-6"
           style="fill:none;fill-opacity:1;stroke:#fefefe;stroke-width:0.40000001;stroke-linejoin:round;stroke-miterlimit:4;stroke-dasharray:none;stroke-opacity:1" />
      </g>
    </g>
  </g>
</svg>
