<?xml version="1.0" encoding="UTF-8" standalone="no"?>
<!-- Created with Inkscape (http://www.inkscape.org/) -->

<svg
   xmlns:dc="http://purl.org/dc/elements/1.1/"
   xmlns:cc="http://creativecommons.org/ns#"
   xmlns:rdf="http://www.w3.org/1999/02/22-rdf-syntax-ns#"
   xmlns:svg="http://www.w3.org/2000/svg"
   xmlns="http://www.w3.org/2000/svg"
   xmlns:sodipodi="http://sodipodi.sourceforge.net/DTD/sodipodi-0.dtd"
   xmlns:inkscape="http://www.inkscape.org/namespaces/inkscape"
   width="29.021231mm"
   height="33.999569mm"
   viewBox="0 0 29.021231 33.999569"
   version="1.1"
   id="svg985"
   inkscape:version="0.92.3 (2405546, 2018-03-11)"
   sodipodi:docname="chapter-header-3.svg">
  <defs
     id="defs979" />
  <sodipodi:namedview
     id="base"
     pagecolor="#ffffff"
     bordercolor="#666666"
     borderopacity="1.0"
     inkscape:pageopacity="0.0"
     inkscape:pageshadow="2"
     inkscape:zoom="5.6"
     inkscape:cx="25.735169"
     inkscape:cy="84.768447"
     inkscape:document-units="mm"
     inkscape:current-layer="layer1"
     showgrid="false"
     showguides="true"
     inkscape:guide-bbox="true"
     fit-margin-top="2"
     fit-margin-left="2"
     fit-margin-right="2"
     fit-margin-bottom="2"
     inkscape:window-width="1916"
     inkscape:window-height="1076"
     inkscape:window-x="0"
     inkscape:window-y="0"
     inkscape:window-maximized="1" />
  <metadata
     id="metadata982">
    <rdf:RDF>
      <cc:Work
         rdf:about="">
        <dc:format>image/svg+xml</dc:format>
        <dc:type
           rdf:resource="http://purl.org/dc/dcmitype/StillImage" />
        <dc:title></dc:title>
      </cc:Work>
    </rdf:RDF>
  </metadata>
  <g
     inkscape:label="Layer 1"
     inkscape:groupmode="layer"
     id="layer1"
     transform="translate(-6.4626581,-55.244643)"
     style="opacity:0.99900004">
    <g
       style="display:inline;stroke:#ffffff;stroke-width:0.54208553;stroke-miterlimit:4;stroke-dasharray:none;stroke-opacity:1"
       id="g3737"
       transform="matrix(0.73789081,-4.8037252e-4,4.8037252e-4,0.73789081,-111.2269,40.838862)">
      <path
         style="fill:none;fill-rule:evenodd;stroke:#ffffff;stroke-width:0.54208553;stroke-linecap:butt;stroke-linejoin:miter;stroke-miterlimit:4;stroke-dasharray:none;stroke-opacity:1"
         d="m 171.28905,42.867269 7.51321,3.473732 7.02736,-3.473732 -7.02736,-3.326363 z"
         id="path3698"
         inkscape:connector-curvature="0"
         sodipodi:nodetypes="ccccc" />
      <path
         style="fill:none;fill-rule:evenodd;stroke:#ffffff;stroke-width:0.54208553;stroke-linecap:butt;stroke-linejoin:miter;stroke-miterlimit:4;stroke-dasharray:none;stroke-opacity:1"
         d="m 173.99141,45.072241 4.81085,2.101777 4.74403,-2.101777 v 2.101777 l -4.74403,2.271791 -4.81085,-2.271791 z"
         id="path3700"
         inkscape:connector-curvature="0"
         sodipodi:nodetypes="ccccccc" />
      <path
         style="fill:none;fill-rule:evenodd;stroke:#ffffff;stroke-width:0.54208553;stroke-linecap:butt;stroke-linejoin:miter;stroke-miterlimit:4;stroke-dasharray:none;stroke-opacity:1"
         d="m 184.84923,43.969756 v 4.977898 h -0.0334"
         id="path3720"
         inkscape:connector-curvature="0" />
    </g>
    <g
       id="g6036"
       transform="rotate(1.5,-534.32581,697.04785)">
      <path
         inkscape:connector-curvature="0"
         style="display:inline;fill:#ff0000;fill-rule:evenodd;stroke:none;stroke-width:0.40000001;stroke-linecap:butt;stroke-linejoin:miter;stroke-miterlimit:4;stroke-dasharray:none;stroke-opacity:1"
         d="m 6.4925885,42.863502 a 3.0000001,3.0000001 0 0 0 -0.2116,0.013 3.0000001,3.0000001 0 0 0 -0.29651,0.04462 3.0000001,3.0000001 0 0 0 -0.29103,0.07387 3.0000001,3.0000001 0 0 0 -0.28143,0.102614 3.0000001,3.0000001 0 0 0 -0.2703,0.130179 3.0000001,3.0000001 0 0 0 -0.25559,0.156643 3.0000001,3.0000001 0 0 0 -0.23889,0.18098 3.0000001,3.0000001 0 0 0 -0.21962,0.204244 3.0000001,3.0000001 0 0 0 -0.19832,0.225309 3.0000001,3.0000001 0 0 0 -0.17455,0.243802 3.0000001,3.0000001 0 0 0 -0.14927,0.260133 3.0000001,3.0000001 0 0 0 -0.12305,0.273346 3.0000001,3.0000001 0 0 0 -0.0948,0.28444 3.0000001,3.0000001 0 0 0 -0.0656,0.292916 3.0000001,3.0000001 0 0 0 -0.0366,0.297256 3.0000001,3.0000001 0 0 0 -0.007,0.300025 3.0000001,3.0000001 0 0 0 0.013,0.212116 3.0000001,3.0000001 0 0 0 0.0446,0.296515 3.0000001,3.0000001 0 0 0 0.0738,0.290495 3.0000001,3.0000001 0 0 0 0.10263,0.281946 3.0000001,3.0000001 0 0 0 0.13017,0.269791 3.0000001,3.0000001 0 0 0 0.15665,0.256125 3.0000001,3.0000001 0 0 0 0.18151,0.238844 3.0000001,3.0000001 0 0 0 0.12211,0.131473 l -7.7653601,0.220066 0.2200499,7.764892 a 3.0000001,3.0000001 0 0 0 -0.069,-0.06057 3.0000001,3.0000001 0 0 0 -0.24379,-0.174564 3.0000001,3.0000001 0 0 0 -0.2601201,-0.149271 3.0000001,3.0000001 0 0 0 -0.2733501,-0.123036 3.0000001,3.0000001 0 0 0 -0.2849599,-0.09481 3.0000001,3.0000001 0 0 0 -0.29239,-0.06564 3.0000001,3.0000001 0 0 0 -0.2977801,-0.03658 3.0000001,3.0000001 0 0 0 -0.2995199,-0.0066 3.0000001,3.0000001 0 0 0 -0.21208,0.01401 3.0000001,3.0000001 0 0 0 -0.29651,0.04412 3.0000001,3.0000001 0 0 0 -0.2905,0.07436 3.0000001,3.0000001 0 0 0 -0.28195,0.102628 3.0000001,3.0000001 0 0 0 -0.26979,0.130155 3.0000001,3.0000001 0 0 0 -0.25613,0.156149 3.0000001,3.0000001 0 0 0 -0.23886,0.181519 3.0000001,3.0000001 0 0 0 -0.21962,0.204223 3.0000001,3.0000001 0 0 0 -0.19783,0.224784 3.0000001,3.0000001 0 0 0 -0.17506,0.243817 3.0000001,3.0000001 0 0 0 -0.14927,0.260133 3.0000001,3.0000001 0 0 0 -0.12253,0.273851 3.0000001,3.0000001 0 0 0 -0.0948,0.28443 3.0000001,3.0000001 0 0 0 -0.0661,0.292431 3.0000001,3.0000001 0 0 0 -0.0366,0.297766 3.0000001,3.0000001 0 0 0 -0.007,0.299494 3.0000001,3.0000001 0 0 0 0.014,0.212109 3.0000001,3.0000001 0 0 0 0.0446,0.296515 3.0000001,3.0000001 0 0 0 0.0739,0.290484 3.0000001,3.0000001 0 0 0 0.10263,0.281956 3.0000001,3.0000001 0 0 0 0.13018,0.270321 3.0000001,3.0000001 0 0 0 0.15665,0.255574 3.0000001,3.0000001 0 0 0 0.18099,0.238899 3.0000001,3.0000001 0 0 0 0.20422,0.219593 3.0000001,3.0000001 0 0 0 0.22534,0.198357 3.0000001,3.0000001 0 0 0 0.24379,0.174534 3.0000001,3.0000001 0 0 0 0.26012,0.149271 3.0000001,3.0000001 0 0 0 0.27334,0.122536 3.0000001,3.0000001 0 0 0 0.28443,0.09481 3.0000001,3.0000001 0 0 0 0.29293,0.06613 3.0000001,3.0000001 0 0 0 0.2972699,0.03659 3.0000001,3.0000001 0 0 0 0.3000301,0.0066 3.0000001,3.0000001 0 0 0 0.2120799,-0.01401 3.0000001,3.0000001 0 0 0 0.2965,-0.04462 3.0000001,3.0000001 0 0 0 0.2905101,-0.07386 3.0000001,3.0000001 0 0 0 0.2814299,-0.102613 3.0000001,3.0000001 0 0 0 0.27031,-0.13018 3.0000001,3.0000001 0 0 0 0.2556002,-0.156634 3.0000001,3.0000001 0 0 0 0.2394,-0.181004 3.0000001,3.0000001 0 0 0 0.1314498,-0.122654 l 0.2200802,7.765922 7.7648802,-0.220052 a 3.0000001,3.0000001 0 0 0 -0.0606,0.06894 3.0000001,3.0000001 0 0 0 -0.17455,0.243802 3.0000001,3.0000001 0 0 0 -0.14926,0.260132 3.0000001,3.0000001 0 0 0 -0.12305,0.273337 3.0000001,3.0000001 0 0 0 -0.0948,0.284429 3.0000001,3.0000001 0 0 0 -0.0656,0.292409 3.0000001,3.0000001 0 0 0 -0.0366,0.297783 3.0000001,3.0000001 0 0 0 -0.007,0.300027 3.0000001,3.0000001 0 0 0 0.013,0.211585 3.0000001,3.0000001 0 0 0 0.0446,0.296526 3.0000001,3.0000001 0 0 0 0.0739,0.291013 3.0000001,3.0000001 0 0 0 0.10261,0.281427 3.0000001,3.0000001 0 0 0 0.13018,0.270311 3.0000001,3.0000001 0 0 0 0.15665,0.255593 3.0000001,3.0000001 0 0 0 0.18151,0.238887 3.0000001,3.0000001 0 0 0 0.20422,0.219591 3.0000001,3.0000001 0 0 0 0.22481,0.198361 3.0000001,3.0000001 0 0 0 0.2438,0.174545 3.0000001,3.0000001 0 0 0 0.26013,0.14927 3.0000001,3.0000001 0 0 0 0.27385,0.123042 3.0000001,3.0000001 0 0 0 0.28444,0.09479 3.0000001,3.0000001 0 0 0 0.2924,0.06564 3.0000001,3.0000001 0 0 0 0.29779,0.03658 3.0000001,3.0000001 0 0 0 0.29951,0.0066 3.0000001,3.0000001 0 0 0 0.2121,-0.01302 3.0000001,3.0000001 0 0 0 0.29652,-0.04462 3.0000001,3.0000001 0 0 0 0.29052,-0.07386 3.0000001,3.0000001 0 0 0 0.28194,-0.102629 3.0000001,3.0000001 0 0 0 0.27031,-0.130177 3.0000001,3.0000001 0 0 0 0.2556,-0.156665 3.0000001,3.0000001 0 0 0 0.23887,-0.181489 3.0000001,3.0000001 0 0 0 0.21961,-0.204245 3.0000001,3.0000001 0 0 0 0.19784,-0.224793 3.0000001,3.0000001 0 0 0 0.17506,-0.243776 3.0000001,3.0000001 0 0 0 0.14927,-0.260144 3.0000001,3.0000001 0 0 0 0.1225105,-0.273849 3.0000001,3.0000001 0 0 0 0.0948,-0.284443 3.0000001,3.0000001 0 0 0 0.0661,-0.292409 3.0000001,3.0000001 0 0 0 0.0366,-0.297776 3.0000001,3.0000001 0 0 0 0.007,-0.299524 3.0000001,3.0000001 0 0 0 -0.014,-0.212069 3.0000001,3.0000001 0 0 0 -0.0446,-0.296516 3.0000001,3.0000001 0 0 0 -0.0739,-0.290524 3.0000001,3.0000001 0 0 0 -0.10262,-0.281946 3.0000001,3.0000001 0 0 0 -0.1301805,-0.27029 3.0000001,3.0000001 0 0 0 -0.15666,-0.255595 3.0000001,3.0000001 0 0 0 -0.18099,-0.238889 3.0000001,3.0000001 0 0 0 -0.12211,-0.131474 l 7.7648425,-0.220055 -0.22006,-7.765442 a 3.0000001,3.0000001 0 0 1 -0.13147,0.122124 3.0000001,3.0000001 0 0 1 -0.23889,0.180989 3.0000001,3.0000001 0 0 1 -0.25611,0.156649 3.0000001,3.0000001 0 0 1 -0.26978,0.130164 3.0000001,3.0000001 0 0 1 -0.28194,0.102628 3.0000001,3.0000001 0 0 1 -0.29051,0.07386 3.0000001,3.0000001 0 0 1 -0.29652,0.04462 3.0000001,3.0000001 0 0 1 -0.21208,0.01401 3.0000001,3.0000001 0 0 1 -0.2995,-0.0066 3.0000001,3.0000001 0 0 1 -0.29778,-0.03658 3.0000001,3.0000001 0 0 1 -0.29241,-0.06614 3.0000001,3.0000001 0 0 1 -0.28443,-0.09482 3.0000001,3.0000001 0 0 1 -0.27385,-0.122522 3.0000001,3.0000001 0 0 1 -0.26013,-0.14927 3.0000001,3.0000001 0 0 1 -0.24379,-0.174535 3.0000001,3.0000001 0 0 1 -0.22481,-0.198371 3.0000001,3.0000001 0 0 1 -0.20422,-0.219593 3.0000001,3.0000001 0 0 1 -0.18151,-0.238874 3.0000001,3.0000001 0 0 1 -0.15664,-0.255595 3.0000001,3.0000001 0 0 1 -0.13019,-0.27031 3.0000001,3.0000001 0 0 1 -0.10263,-0.281956 3.0000001,3.0000001 0 0 1 -0.0739,-0.290495 3.0000001,3.0000001 0 0 1 -0.0446,-0.296505 3.0000001,3.0000001 0 0 1 -0.013,-0.212126 3.0000001,3.0000001 0 0 1 0.007,-0.299495 3.0000001,3.0000001 0 0 1 0.0366,-0.297786 3.0000001,3.0000001 0 0 1 0.0656,-0.292407 3.0000001,3.0000001 0 0 1 0.0948,-0.28442 3.0000001,3.0000001 0 0 1 0.12303,-0.273865 3.0000001,3.0000001 0 0 1 0.14927,-0.260133 3.0000001,3.0000001 0 0 1 0.17456,-0.243803 3.0000001,3.0000001 0 0 1 0.19833,-0.224808 3.0000001,3.0000001 0 0 1 0.21961,-0.204213 3.0000001,3.0000001 0 0 1 0.23887,-0.181519 3.0000001,3.0000001 0 0 1 0.25562,-0.156134 3.0000001,3.0000001 0 0 1 0.2703,-0.130179 3.0000001,3.0000001 0 0 1 0.28142,-0.102614 3.0000001,3.0000001 0 0 1 0.29049,-0.07436 3.0000001,3.0000001 0 0 1 0.29704,-0.04413 3.0000001,3.0000001 0 0 1 0.21157,-0.014 3.0000001,3.0000001 0 0 1 0.30004,0.0066 3.0000001,3.0000001 0 0 1 0.29776,0.03658 3.0000001,3.0000001 0 0 1 0.29241,0.06564 3.0000001,3.0000001 0 0 1 0.28443,0.09482 3.0000001,3.0000001 0 0 1 0.27333,0.123036 3.0000001,3.0000001 0 0 1 0.26014,0.149271 3.0000001,3.0000001 0 0 1 0.24379,0.174564 3.0000001,3.0000001 0 0 1 0.0689,0.06057 l -0.220052,-7.764894 -7.7647105,0.220047 a 3.0000001,3.0000001 0 0 0 0.0606,-0.06894 3.0000001,3.0000001 0 0 0 0.17506,-0.243787 3.0000001,3.0000001 0 0 0 0.14928,-0.260133 3.0000001,3.0000001 0 0 0 0.12253,-0.27335 3.0000001,3.0000001 0 0 0 0.0948,-0.28442 3.0000001,3.0000001 0 0 0 0.0661,-0.292931 3.0000001,3.0000001 0 0 0 0.0366,-0.297776 3.0000001,3.0000001 0 0 0 0.007,-0.299526 3.0000001,3.0000001 0 0 0 -0.014,-0.212067 3.0000001,3.0000001 0 0 0 -0.0445,-0.296518 3.0000001,3.0000001 0 0 0 -0.0739,-0.290514 3.0000001,3.0000001 0 0 0 -0.10263,-0.281956 3.0000001,3.0000001 0 0 0 -0.13017,-0.269791 3.0000001,3.0000001 0 0 0 -0.15666,-0.256095 3.0000001,3.0000001 0 0 0 -0.18099,-0.238879 3.0000001,3.0000001 0 0 0 -0.20425,-0.219622 3.0000001,3.0000001 0 0 0 -0.22531,-0.197827 3.0000001,3.0000001 0 0 0 -0.2438,-0.174534 3.0000001,3.0000001 0 0 0 -0.25962,-0.149816 3.0000001,3.0000001 0 0 0 -0.27385,-0.122491 3.0000001,3.0000001 0 0 0 -0.28444,-0.09483 3.0000001,3.0000001 0 0 0 -0.29241,-0.06614 3.0000001,3.0000001 0 0 0 -0.29777,-0.03598 3.0000001,3.0000001 0 0 0 -0.30003,-0.0066 z"
         id="path1627-0" />
      <g
         id="g5854"
         transform="rotate(-1.6232913,1859.4593,3319.5528)"
         style="display:inline;stroke-width:0.40000001;stroke-miterlimit:4;stroke-dasharray:none">
        <g
           id="g5809"
           style="stroke-width:0.40000001;stroke-miterlimit:4;stroke-dasharray:none">
          <rect
             style="fill:#fff9f5;fill-opacity:1;stroke:none;stroke-width:0.40000001;stroke-linecap:round;stroke-linejoin:round;stroke-miterlimit:4;stroke-dasharray:none;stroke-opacity:1"
             id="rect5212-0"
             width="0.69357407"
             height="2.8906913"
             x="91.972214"
             y="5.6393132" />
          <rect
             style="fill:#fff9f5;fill-opacity:1;stroke:none;stroke-width:0.40000001;stroke-linecap:round;stroke-linejoin:round;stroke-miterlimit:4;stroke-dasharray:none;stroke-opacity:1"
             id="rect5212-9-64"
             width="0.32282683"
             height="2.9572303"
             x="93.673317"
             y="5.6060438" />
          <rect
             style="fill:#fff9f5;fill-opacity:1;stroke:none;stroke-width:0.40000001;stroke-linecap:round;stroke-linejoin:round;stroke-miterlimit:4;stroke-dasharray:none;stroke-opacity:1"
             id="rect5212-9-8-5"
             width="1.5680826"
             height="2.9034781"
             x="96.859016"
             y="5.6329198" />
          <rect
             style="fill:#fff9f5;fill-opacity:1;stroke:none;stroke-width:0.40000001;stroke-linecap:round;stroke-linejoin:round;stroke-miterlimit:4;stroke-dasharray:none;stroke-opacity:1"
             id="rect5212-9-05-8"
             width="0.61071104"
             height="2.9034781"
             x="100.7738"
             y="5.6329198" />
          <rect
             style="fill:#fff9f5;fill-opacity:1;stroke:none;stroke-width:0.40000001;stroke-linecap:round;stroke-linejoin:round;stroke-miterlimit:4;stroke-dasharray:none;stroke-opacity:1"
             id="rect5212-9-6-1-6"
             width="0.13302194"
             height="2.9034781"
             x="95.96682"
             y="5.6329198" />
          <rect
             style="fill:#fff9f5;fill-opacity:1;stroke:none;stroke-width:0.40000001;stroke-linecap:round;stroke-linejoin:round;stroke-miterlimit:4;stroke-dasharray:none;stroke-opacity:1"
             id="rect5212-9-6-10-2"
             width="0.13302194"
             height="2.9034781"
             x="95.092575"
             y="5.6329198" />
          <rect
             style="fill:#fff9f5;fill-opacity:1;stroke:none;stroke-width:0.40000001;stroke-linecap:round;stroke-linejoin:round;stroke-miterlimit:4;stroke-dasharray:none;stroke-opacity:1"
             id="rect5212-9-6-8-8"
             width="0.13302194"
             height="2.9034781"
             x="98.952049"
             y="5.6329198" />
          <rect
             style="fill:#fff9f5;fill-opacity:1;stroke:none;stroke-width:0.40000001;stroke-linecap:round;stroke-linejoin:round;stroke-miterlimit:4;stroke-dasharray:none;stroke-opacity:1"
             id="rect5212-9-6-8-8-1"
             width="0.13302194"
             height="2.9034781"
             x="100.1709"
             y="5.6329198" />
          <rect
             style="fill:#fafafa;fill-opacity:1;stroke:none;stroke-width:0.40000001;stroke-linecap:round;stroke-linejoin:round;stroke-miterlimit:4;stroke-dasharray:none;stroke-opacity:1"
             id="rect5670"
             width="9.2958527"
             height="0.33072916"
             x="92.021515"
             y="6.9192944" />
        </g>
        <g
           id="g5820"
           style="stroke-width:0.40000001;stroke-miterlimit:4;stroke-dasharray:none">
          <rect
             style="fill:#fafafa;fill-opacity:1;stroke:none;stroke-width:0.40000001;stroke-linecap:round;stroke-linejoin:round;stroke-miterlimit:4;stroke-dasharray:none;stroke-opacity:1"
             id="rect5670-3"
             width="11.066513"
             height="0.33072916"
             x="92.221855"
             y="11.094191" />
          <rect
             style="fill:#fff9f5;fill-opacity:1;stroke:none;stroke-width:0.40000001;stroke-linecap:round;stroke-linejoin:round;stroke-miterlimit:4;stroke-dasharray:none;stroke-opacity:1"
             id="rect5212-9-8-5-0"
             width="1.5680826"
             height="2.9034781"
             x="91.972214"
             y="9.8078165" />
          <rect
             style="fill:#fff9f5;fill-opacity:1;stroke:none;stroke-width:0.40000001;stroke-linecap:round;stroke-linejoin:round;stroke-miterlimit:4;stroke-dasharray:none;stroke-opacity:1"
             id="rect5212-9-05-8-3"
             width="0.61071104"
             height="2.9034781"
             x="96.689949"
             y="9.8078165" />
          <rect
             style="fill:#fff9f5;fill-opacity:1;stroke:none;stroke-width:0.40000001;stroke-linecap:round;stroke-linejoin:round;stroke-miterlimit:4;stroke-dasharray:none;stroke-opacity:1"
             id="rect5212-9-6-1-6-4"
             width="0.13302194"
             height="2.9034781"
             x="95.955696"
             y="9.8078165" />
          <rect
             style="fill:#fff9f5;fill-opacity:1;stroke:none;stroke-width:0.40000001;stroke-linecap:round;stroke-linejoin:round;stroke-miterlimit:4;stroke-dasharray:none;stroke-opacity:1"
             id="rect5212-9-6-10-2-0"
             width="0.13302194"
             height="2.9034781"
             x="95.081444"
             y="9.8078165" />
          <rect
             style="fill:#fff9f5;fill-opacity:1;stroke:none;stroke-width:0.40000001;stroke-linecap:round;stroke-linejoin:round;stroke-miterlimit:4;stroke-dasharray:none;stroke-opacity:1"
             id="rect5212-9-6-8-8-3"
             width="0.13302194"
             height="2.9034781"
             x="98.94091"
             y="9.8078165" />
          <rect
             style="fill:#fff9f5;fill-opacity:1;stroke:none;stroke-width:0.40000001;stroke-linecap:round;stroke-linejoin:round;stroke-miterlimit:4;stroke-dasharray:none;stroke-opacity:1"
             id="rect5212-9-6-8-8-8-9"
             width="0.13302194"
             height="2.9034781"
             x="99.520073"
             y="9.8078165" />
          <rect
             style="fill:#fff9f5;fill-opacity:1;stroke:none;stroke-width:0.40000001;stroke-linecap:round;stroke-linejoin:round;stroke-miterlimit:4;stroke-dasharray:none;stroke-opacity:1"
             id="rect5212-9-6-8-8-1-1"
             width="0.13302194"
             height="2.9034781"
             x="100.15977"
             y="9.8078165" />
          <rect
             style="fill:#fff9f5;fill-opacity:1;stroke:none;stroke-width:0.40000001;stroke-linecap:round;stroke-linejoin:round;stroke-miterlimit:4;stroke-dasharray:none;stroke-opacity:1"
             id="rect5212-9-8-5-0-6"
             width="1.5680826"
             height="2.9034781"
             x="102.49144"
             y="9.8078165" />
        </g>
        <g
           id="g5798"
           style="stroke-width:0.40000001;stroke-miterlimit:4;stroke-dasharray:none">
          <rect
             style="fill:#fff9f5;fill-opacity:1;stroke:none;stroke-width:0.40000001;stroke-linecap:round;stroke-linejoin:round;stroke-miterlimit:4;stroke-dasharray:none;stroke-opacity:1"
             id="rect5212"
             width="0.69357407"
             height="2.8906913"
             x="91.972214"
             y="1.0643382" />
          <rect
             style="fill:#fff9f5;fill-opacity:1;stroke:none;stroke-width:0.40000001;stroke-linecap:round;stroke-linejoin:round;stroke-miterlimit:4;stroke-dasharray:none;stroke-opacity:1"
             id="rect5212-9"
             width="0.32282683"
             height="2.9572303"
             x="93.003532"
             y="1.0310687" />
          <rect
             style="fill:#fff9f5;fill-opacity:1;stroke:none;stroke-width:0.40000001;stroke-linecap:round;stroke-linejoin:round;stroke-miterlimit:4;stroke-dasharray:none;stroke-opacity:1"
             id="rect5212-9-3"
             width="0.18013506"
             height="2.9034781"
             x="94.690796"
             y="1.0579448" />
          <rect
             style="fill:#fff9f5;fill-opacity:1;stroke:none;stroke-width:0.40000001;stroke-linecap:round;stroke-linejoin:round;stroke-miterlimit:4;stroke-dasharray:none;stroke-opacity:1"
             id="rect5212-9-6"
             width="0.13302194"
             height="2.9034781"
             x="96.456772"
             y="1.0579448" />
          <rect
             style="fill:#fff9f5;fill-opacity:1;stroke:none;stroke-width:0.40000001;stroke-linecap:round;stroke-linejoin:round;stroke-miterlimit:4;stroke-dasharray:none;stroke-opacity:1"
             id="rect5212-9-8"
             width="1.5680826"
             height="2.9034781"
             x="97.818558"
             y="1.0579448" />
          <rect
             style="fill:#fff9f5;fill-opacity:1;stroke:none;stroke-width:0.40000001;stroke-linecap:round;stroke-linejoin:round;stroke-miterlimit:4;stroke-dasharray:none;stroke-opacity:1"
             id="rect5212-9-05"
             width="0.61071104"
             height="2.9034781"
             x="100.77379"
             y="1.0579448" />
          <rect
             style="fill:#fff9f5;fill-opacity:1;stroke:none;stroke-width:0.40000001;stroke-linecap:round;stroke-linejoin:round;stroke-miterlimit:4;stroke-dasharray:none;stroke-opacity:1"
             id="rect5212-9-6-1"
             width="0.13302194"
             height="2.9034781"
             x="95.96682"
             y="1.0579448" />
          <rect
             style="fill:#fff9f5;fill-opacity:1;stroke:none;stroke-width:0.40000001;stroke-linecap:round;stroke-linejoin:round;stroke-miterlimit:4;stroke-dasharray:none;stroke-opacity:1"
             id="rect5212-9-6-10"
             width="0.13302194"
             height="2.9034781"
             x="95.092575"
             y="1.0579448" />
          <rect
             style="fill:#fff9f5;fill-opacity:1;stroke:none;stroke-width:0.40000001;stroke-linecap:round;stroke-linejoin:round;stroke-miterlimit:4;stroke-dasharray:none;stroke-opacity:1"
             id="rect5212-9-6-8"
             width="0.13302194"
             height="2.9034781"
             x="99.804977"
             y="1.0579448" />
          <rect
             style="fill:#fff9f5;fill-opacity:1;stroke:none;stroke-width:0.40000001;stroke-linecap:round;stroke-linejoin:round;stroke-miterlimit:4;stroke-dasharray:none;stroke-opacity:1"
             id="rect5212-9-8-9"
             width="2.8313043"
             height="2.9034781"
             x="102.72854"
             y="1.0579448" />
          <rect
             style="fill:#fafafa;fill-opacity:1;stroke:none;stroke-width:0.40000001;stroke-linecap:round;stroke-linejoin:round;stroke-miterlimit:4;stroke-dasharray:none;stroke-opacity:1"
             id="rect5670-38"
             width="11.55094"
             height="0.33072916"
             x="92.336449"
             y="2.3443193" />
        </g>
      </g>
    </g>
  </g>
</svg>
