<?xml version="1.0" encoding="UTF-8" standalone="no"?>
<!-- Created with Inkscape (http://www.inkscape.org/) -->

<svg
   xmlns:dc="http://purl.org/dc/elements/1.1/"
   xmlns:cc="http://creativecommons.org/ns#"
   xmlns:rdf="http://www.w3.org/1999/02/22-rdf-syntax-ns#"
   xmlns:svg="http://www.w3.org/2000/svg"
   xmlns="http://www.w3.org/2000/svg"
   xmlns:sodipodi="http://sodipodi.sourceforge.net/DTD/sodipodi-0.dtd"
   xmlns:inkscape="http://www.inkscape.org/namespaces/inkscape"
   width="34.001522mm"
   height="24.013096mm"
   viewBox="0 0 34.001522 24.013096"
   version="1.1"
   id="svg985"
   inkscape:version="0.92.3 (2405546, 2018-03-11)"
   sodipodi:docname="chapter-header-2.svg">
  <defs
     id="defs979" />
  <sodipodi:namedview
     id="base"
     pagecolor="#ffffff"
     bordercolor="#666666"
     borderopacity="1.0"
     inkscape:pageopacity="0.0"
     inkscape:pageshadow="2"
     inkscape:zoom="5.6"
     inkscape:cx="37.040889"
     inkscape:cy="70.247967"
     inkscape:document-units="mm"
     inkscape:current-layer="layer1"
     showgrid="false"
     showguides="true"
     inkscape:guide-bbox="true"
     fit-margin-top="2"
     fit-margin-left="2"
     fit-margin-right="2"
     fit-margin-bottom="2"
     inkscape:window-width="1916"
     inkscape:window-height="1076"
     inkscape:window-x="0"
     inkscape:window-y="0"
     inkscape:window-maximized="1" />
  <metadata
     id="metadata982">
    <rdf:RDF>
      <cc:Work
         rdf:about="">
        <dc:format>image/svg+xml</dc:format>
        <dc:type
           rdf:resource="http://purl.org/dc/dcmitype/StillImage" />
        <dc:title></dc:title>
      </cc:Work>
    </rdf:RDF>
  </metadata>
  <g
     inkscape:label="Layer 1"
     inkscape:groupmode="layer"
     id="layer1"
     transform="translate(-3.4713529,-61.389238)"
     style="opacity:0.99900004">
    <path
       inkscape:connector-curvature="0"
       id="path1630"
       d="m 10.465077,63.402582 0.0051,7.767977 a 3.0000001,3.0000001 0 0 0 -0.0672,-0.06246 3.0000001,3.0000001 0 0 0 -0.23887,-0.181218 A 3.0000001,3.0000001 0 0 0 9.9081679,70.769933 3.0000001,3.0000001 0 0 0 9.63833,70.63988 3.0000001,3.0000001 0 0 0 9.3561174,70.537251 a 3.0000001,3.0000001 0 0 0 -0.2904689,-0.0742 3.0000001,3.0000001 0 0 0 -0.2966474,-0.04419 3.0000001,3.0000001 0 0 0 -0.2992235,-0.01481 3.0000001,3.0000001 0 0 0 -0.2123824,0.0073 3.0000001,3.0000001 0 0 0 -0.2976373,0.03639 3.0000001,3.0000001 0 0 0 -0.2924468,0.06578 3.0000001,3.0000001 0 0 0 -0.2846753,0.0948 3.0000001,3.0000001 0 0 0 -0.2732869,0.122657 3.0000001,3.0000001 0 0 0 -0.2603477,0.149517 3.0000001,3.0000001 0 0 0 -0.2438004,0.174314 3.0000001,3.0000001 0 0 0 -0.2251766,0.198053 3.0000001,3.0000001 0 0 0 -0.2039807,0.219763 3.0000001,3.0000001 0 0 0 -0.1817415,0.23888 3.0000001,3.0000001 0 0 0 -0.1564161,0.255873 3.0000001,3.0000001 0 0 0 -0.1300555,0.269855 3.0000001,3.0000001 0 0 0 -0.1026568,0.281697 3.0000001,3.0000001 0 0 0 -0.074207,0.290977 3.0000001,3.0000001 0 0 0 -0.044806,0.29615 3.0000001,3.0000001 0 0 0 -0.014807,0.299729 3.0000001,3.0000001 0 0 0 0.00813,0.212378 3.0000001,3.0000001 0 0 0 0.036389,0.297638 3.0000001,3.0000001 0 0 0 0.065827,0.292439 3.0000001,3.0000001 0 0 0 0.094828,0.284657 3.0000001,3.0000001 0 0 0 0.1226851,0.273276 3.0000001,3.0000001 0 0 0 0.1495276,0.260325 3.0000001,3.0000001 0 0 0 0.1743427,0.24379 3.0000001,3.0000001 0 0 0 0.198017,0.225216 3.0000001,3.0000001 0 0 0 0.219765,0.203975 3.0000001,3.0000001 0 0 0 0.2388606,0.181223 3.0000001,3.0000001 0 0 0 0.255903,0.156934 3.0000001,3.0000001 0 0 0 0.2698294,0.130056 3.0000001,3.0000001 0 0 0 0.2817109,0.102636 3.0000001,3.0000001 0 0 0 0.2909845,0.0742 3.0000001,3.0000001 0 0 0 0.2961323,0.04419 3.0000001,3.0000001 0 0 0 0.2997441,0.01483 3.0000001,3.0000001 0 0 0 0.2123825,-0.0073 3.0000001,3.0000001 0 0 0 0.2976261,-0.03639 3.0000001,3.0000001 0 0 0 0.2924467,-0.06578 3.0000001,3.0000001 0 0 0 0.2841601,-0.09481 3.0000001,3.0000001 0 0 0 0.2738107,-0.122665 3.0000001,3.0000001 0 0 0 0.2598241,-0.149532 3.0000001,3.0000001 0 0 0 0.244322,-0.174812 3.0000001,3.0000001 0 0 0 0.134787,-0.118962 l 0.0051,7.769036 7.768524,-0.0051 a 3.0000001,3.0000001 0 0 1 -0.118424,-0.134807 3.0000001,3.0000001 0 0 1 -0.174789,-0.243791 3.0000001,3.0000001 0 0 1 -0.149451,-0.260389 3.0000001,3.0000001 0 0 1 -0.122688,-0.273282 3.0000001,3.0000001 0 0 1 -0.09484,-0.284661 3.0000001,3.0000001 0 0 1 -0.06581,-0.292421 3.0000001,3.0000001 0 0 1 -0.03638,-0.29764 3.0000001,3.0000001 0 0 1 -0.0073,-0.212404 3.0000001,3.0000001 0 0 1 0.01486,-0.29974 3.0000001,3.0000001 0 0 1 0.04478,-0.296115 3.0000001,3.0000001 0 0 1 0.07371,-0.290991 3.0000001,3.0000001 0 0 1 0.102658,-0.281717 3.0000001,3.0000001 0 0 1 0.130564,-0.269824 3.0000001,3.0000001 0 0 1 0.156402,-0.255902 3.0000001,3.0000001 0 0 1 0.181238,-0.238878 3.0000001,3.0000001 0 0 1 0.2045,-0.219734 3.0000001,3.0000001 0 0 1 0.225181,-0.198089 3.0000001,3.0000001 0 0 1 0.243791,-0.174309 3.0000001,3.0000001 0 0 1 0.259838,-0.149508 3.0000001,3.0000001 0 0 1 0.273811,-0.122641 3.0000001,3.0000001 0 0 1 0.284155,-0.09479 3.0000001,3.0000001 0 0 1 0.292957,-0.06579 3.0000001,3.0000001 0 0 1 0.297637,-0.0364 3.0000001,3.0000001 0 0 1 0.211868,-0.0073 3.0000001,3.0000001 0 0 1 0.299735,0.01483 3.0000001,3.0000001 0 0 1 0.296648,0.04419 3.0000001,3.0000001 0 0 1 0.290468,0.07419 3.0000001,3.0000001 0 0 1 0.28171,0.102655 3.0000001,3.0000001 0 0 1 0.270352,0.130025 3.0000001,3.0000001 0 0 1 0.255383,0.156944 3.0000001,3.0000001 0 0 1 0.238855,0.181217 3.0000001,3.0000001 0 0 1 0.219769,0.203981 3.0000001,3.0000001 0 0 1 0.198108,0.225175 3.0000001,3.0000001 0 0 1 0.174341,0.243787 3.0000001,3.0000001 0 0 1 0.149531,0.260332 3.0000001,3.0000001 0 0 1 0.122692,0.273286 3.0000001,3.0000001 0 0 1 0.09484,0.284655 3.0000001,3.0000001 0 0 1 0.06582,0.292431 3.0000001,3.0000001 0 0 1 0.0364,0.297633 3.0000001,3.0000001 0 0 1 0.0083,0.212368 3.0000001,3.0000001 0 0 1 -0.01482,0.299221 3.0000001,3.0000001 0 0 1 -0.04479,0.29666 3.0000001,3.0000001 0 0 1 -0.07419,0.290979 3.0000001,3.0000001 0 0 1 -0.102642,0.281683 3.0000001,3.0000001 0 0 1 -0.130053,0.269855 3.0000001,3.0000001 0 0 1 -0.156425,0.255903 3.0000001,3.0000001 0 0 1 -0.181751,0.238861 3.0000001,3.0000001 0 0 1 -0.06241,0.06724 l 7.767991,-0.0051 -0.0051,-7.768515 a 3.0000001,3.0000001 0 0 0 0.06777,0.06293 3.0000001,3.0000001 0 0 0 0.238859,0.181223 3.0000001,3.0000001 0 0 0 0.255389,0.15693 3.0000001,3.0000001 0 0 0 0.270343,0.130056 3.0000001,3.0000001 0 0 0 0.281703,0.102639 3.0000001,3.0000001 0 0 0 0.290468,0.07419 3.0000001,3.0000001 0 0 0 0.296648,0.04419 3.0000001,3.0000001 0 0 0 0.299739,0.01482 3.0000001,3.0000001 0 0 0 0.211868,-0.0073 3.0000001,3.0000001 0 0 0 0.297637,-0.0364 3.0000001,3.0000001 0 0 0 0.292957,-0.06579 3.0000001,3.0000001 0 0 0 0.28416,-0.09481 3.0000001,3.0000001 0 0 0 0.273797,-0.122667 3.0000001,3.0000001 0 0 0 0.259837,-0.14953 3.0000001,3.0000001 0 0 0 0.243806,-0.174797 3.0000001,3.0000001 0 0 0 0.22518,-0.198088 3.0000001,3.0000001 0 0 0 0.2045,-0.219242 3.0000001,3.0000001 0 0 0 0.181237,-0.238883 3.0000001,3.0000001 0 0 0 0.156389,-0.255879 3.0000001,3.0000001 0 0 0 0.130572,-0.269833 3.0000001,3.0000001 0 0 0 0.102662,-0.281689 3.0000001,3.0000001 0 0 0 0.0737,-0.291008 3.0000001,3.0000001 0 0 0 0.04479,-0.29613 3.0000001,3.0000001 0 0 0 0.01482,-0.299737 3.0000001,3.0000001 0 0 0 -0.0083,-0.212377 3.0000001,3.0000001 0 0 0 -0.0359,-0.297626 3.0000001,3.0000001 0 0 0 -0.0664,-0.292471 3.0000001,3.0000001 0 0 0 -0.09419,-0.284694 3.0000001,3.0000001 0 0 0 -0.123226,-0.273261 3.0000001,3.0000001 0 0 0 -0.148982,-0.260351 3.0000001,3.0000001 0 0 0 -0.17479,-0.24379 3.0000001,3.0000001 0 0 0 -0.198114,-0.225184 3.0000001,3.0000001 0 0 0 -0.219238,-0.203975 3.0000001,3.0000001 0 0 0 -0.238869,-0.181215 3.0000001,3.0000001 0 0 0 -0.2559,-0.156954 3.0000001,3.0000001 0 0 0 -0.270339,-0.130044 3.0000001,3.0000001 0 0 0 -0.281712,-0.102636 3.0000001,3.0000001 0 0 0 -0.290479,-0.07419 3.0000001,3.0000001 0 0 0 -0.296636,-0.04419 3.0000001,3.0000001 0 0 0 -0.299215,-0.01482 3.0000001,3.0000001 0 0 0 -0.212406,0.0073 3.0000001,3.0000001 0 0 0 -0.297628,0.03639 3.0000001,3.0000001 0 0 0 -0.292455,0.06579 3.0000001,3.0000001 0 0 0 -0.284666,0.0948 3.0000001,3.0000001 0 0 0 -0.273811,0.122666 3.0000001,3.0000001 0 0 0 -0.259829,0.149523 3.0000001,3.0000001 0 0 0 -0.243791,0.174309 3.0000001,3.0000001 0 0 0 -0.135315,0.118938 l -0.0051,-7.768492 -7.767989,0.0051 a 3.0000001,3.0000001 0 0 1 0.118414,0.134789 3.0000001,3.0000001 0 0 1 0.174343,0.243791 3.0000001,3.0000001 0 0 1 0.149548,0.26036 3.0000001,3.0000001 0 0 1 0.122583,0.273299 3.0000001,3.0000001 0 0 1 0.09484,0.284663 3.0000001,3.0000001 0 0 1 0.06581,0.292408 3.0000001,3.0000001 0 0 1 0.0364,0.297631 3.0000001,3.0000001 0 0 1 0.0083,0.212393 3.0000001,3.0000001 0 0 1 -0.01482,0.299739 3.0000001,3.0000001 0 0 1 -0.0448,0.296133 3.0000001,3.0000001 0 0 1 -0.07419,0.290976 3.0000001,3.0000001 0 0 1 -0.102635,0.281717 3.0000001,3.0000001 0 0 1 -0.130061,0.269822 3.0000001,3.0000001 0 0 1 -0.156413,0.255902 3.0000001,3.0000001 0 0 1 -0.181751,0.238883 3.0000001,3.0000001 0 0 1 -0.203971,0.219738 3.0000001,3.0000001 0 0 1 -0.225176,0.198076 3.0000001,3.0000001 0 0 1 -0.243791,0.174309 3.0000001,3.0000001 0 0 1 -0.259856,0.149494 3.0000001,3.0000001 0 0 1 -0.273793,0.122654 3.0000001,3.0000001 0 0 1 -0.284689,0.0948 3.0000001,3.0000001 0 0 1 -0.292446,0.06578 3.0000001,3.0000001 0 0 1 -0.297615,0.03639 3.0000001,3.0000001 0 0 1 -0.212404,0.0073 3.0000001,3.0000001 0 0 1 -0.299216,-0.01482 3.0000001,3.0000001 0 0 1 -0.296648,-0.04419 3.0000001,3.0000001 0 0 1 -0.290469,-0.07419 3.0000001,3.0000001 0 0 1 -0.281706,-0.102648 3.0000001,3.0000001 0 0 1 -0.270342,-0.130053 3.0000001,3.0000001 0 0 1 -0.255915,-0.15693 3.0000001,3.0000001 0 0 1 -0.238855,-0.181238 3.0000001,3.0000001 0 0 1 -0.21925,-0.203953 3.0000001,3.0000001 0 0 1 -0.198102,-0.225163 3.0000001,3.0000001 0 0 1 -0.174806,-0.243819 3.0000001,3.0000001 0 0 1 -0.149452,-0.260395 3.0000001,3.0000001 0 0 1 -0.122687,-0.273283 3.0000001,3.0000001 0 0 1 -0.09483,-0.284633 3.0000001,3.0000001 0 0 1 -0.06583,-0.29245 3.0000001,3.0000001 0 0 1 -0.03637,-0.297629 3.0000001,3.0000001 0 0 1 -0.0073,-0.212386 3.0000001,3.0000001 0 0 1 0.01486,-0.299741 3.0000001,3.0000001 0 0 1 0.04478,-0.296147 3.0000001,3.0000001 0 0 1 0.0737,-0.290979 3.0000001,3.0000001 0 0 1 0.102644,-0.281695 3.0000001,3.0000001 0 0 1 0.130569,-0.269857 3.0000001,3.0000001 0 0 1 0.156415,-0.255902 3.0000001,3.0000001 0 0 1 0.18123,-0.238846 3.0000001,3.0000001 0 0 1 0.06241,-0.06723 z"
       style="display:inline;fill:#ff0000;fill-rule:evenodd;stroke:none;stroke-width:0.40000001;stroke-linecap:butt;stroke-linejoin:miter;stroke-miterlimit:4;stroke-dasharray:none;stroke-opacity:1" />
    <g
       style="display:inline;stroke:#ffffff;stroke-width:0.54208553;stroke-miterlimit:4;stroke-dasharray:none;stroke-opacity:1"
       id="g3737"
       transform="matrix(0.73789081,-4.8037252e-4,4.8037252e-4,0.73789081,-111.2269,40.838862)">
      <path
         style="fill:none;fill-rule:evenodd;stroke:#ffffff;stroke-width:0.54208553;stroke-linecap:butt;stroke-linejoin:miter;stroke-miterlimit:4;stroke-dasharray:none;stroke-opacity:1"
         d="m 171.28905,42.867269 7.51321,3.473732 7.02736,-3.473732 -7.02736,-3.326363 z"
         id="path3698"
         inkscape:connector-curvature="0"
         sodipodi:nodetypes="ccccc" />
      <path
         style="fill:none;fill-rule:evenodd;stroke:#ffffff;stroke-width:0.54208553;stroke-linecap:butt;stroke-linejoin:miter;stroke-miterlimit:4;stroke-dasharray:none;stroke-opacity:1"
         d="m 173.99141,45.072241 4.81085,2.101777 4.74403,-2.101777 v 2.101777 l -4.74403,2.271791 -4.81085,-2.271791 z"
         id="path3700"
         inkscape:connector-curvature="0"
         sodipodi:nodetypes="ccccccc" />
      <path
         style="fill:none;fill-rule:evenodd;stroke:#ffffff;stroke-width:0.54208553;stroke-linecap:butt;stroke-linejoin:miter;stroke-miterlimit:4;stroke-dasharray:none;stroke-opacity:1"
         d="m 184.84923,43.969756 v 4.977898 h -0.0334"
         id="path3720"
         inkscape:connector-curvature="0" />
    </g>
  </g>
</svg>
