<?xml version="1.0" encoding="UTF-8" standalone="no"?>
<!-- Created with Inkscape (http://www.inkscape.org/) -->

<svg
   xmlns:dc="http://purl.org/dc/elements/1.1/"
   xmlns:cc="http://creativecommons.org/ns#"
   xmlns:rdf="http://www.w3.org/1999/02/22-rdf-syntax-ns#"
   xmlns:svg="http://www.w3.org/2000/svg"
   xmlns="http://www.w3.org/2000/svg"
   xmlns:sodipodi="http://sodipodi.sourceforge.net/DTD/sodipodi-0.dtd"
   xmlns:inkscape="http://www.inkscape.org/namespaces/inkscape"
   width="210mm"
   height="297mm"
   viewBox="0 0 210 297"
   version="1.1"
   id="svg8"
   inkscape:version="0.92.3 (2405546, 2018-03-11)"
   sodipodi:docname="pieces.svg">
  <defs
     id="defs2" />
  <sodipodi:namedview
     id="base"
     pagecolor="#ffffff"
     bordercolor="#666666"
     borderopacity="1.0"
     inkscape:pageopacity="0.0"
     inkscape:pageshadow="2"
     inkscape:zoom="0.24748737"
     inkscape:cx="-1108.6396"
     inkscape:cy="-275.90586"
     inkscape:document-units="mm"
     inkscape:current-layer="layer1"
     showgrid="false"
     inkscape:object-nodes="true"
     inkscape:snap-others="false"
     inkscape:snap-nodes="true"
     inkscape:object-paths="true"
     inkscape:snap-global="true"
     inkscape:snap-intersection-paths="true"
     inkscape:snap-smooth-nodes="true"
     inkscape:window-width="1920"
     inkscape:window-height="995"
     inkscape:window-x="0"
     inkscape:window-y="25"
     inkscape:window-maximized="1" />
  <metadata
     id="metadata5">
    <rdf:RDF>
      <cc:Work
         rdf:about="">
        <dc:format>image/svg+xml</dc:format>
        <dc:type
           rdf:resource="http://purl.org/dc/dcmitype/StillImage" />
        <dc:title></dc:title>
      </cc:Work>
    </rdf:RDF>
  </metadata>
  <g
     inkscape:label="Layer 1"
     inkscape:groupmode="layer"
     id="layer1">
    <path
       id="path870"
       style="opacity:0.51399997;fill:none;fill-opacity:1;stroke:#000000;stroke-width:1.32291663;stroke-linecap:round;stroke-linejoin:round;stroke-miterlimit:4;stroke-dasharray:none"
       d="m 62.76286,158.27017 a 39.026041,78.062925 0 0 0 12.66831,-45.625 m 0.008,-25.780802 a 9.5976254,9.5921517 0 0 1 -12.82623,-0.67166 19.195251,19.184304 0 0 0 -13.2932,-5.6169 v 0 a 19.195251,19.184304 0 0 0 -13.85308,5.6169 19.195251,19.184304 0 0 0 0,27.130802 19.195251,19.184304 0 0 0 27.14628,0 9.5976254,9.5921517 0 0 1 6.92629,-2.8087 9.5976254,9.5921517 0 0 1 5.89179,2.13036 M 62.79876,41.229088 a 39.026041,78.062925 0 0 1 12.66831,45.62501 m 104.37277,-45.58911 a 78.062925,39.026041 0 0 0 -45.625,-12.66831 m -25.7808,-0.008 a 9.5921517,9.5976254 0 0 1 -0.67166,12.82623 19.184304,19.195251 0 0 0 -5.6169,13.2932 v 0 a 19.184304,19.195251 0 0 0 5.6169,13.85308 19.184304,19.195251 0 0 0 27.1308,0 19.184304,19.195251 0 0 0 0,-27.14628 9.5921517,9.5976254 0 0 1 -2.8087,-6.92629 9.5921517,9.5976254 0 0 1 2.13036,-5.89179 m -71.41608,12.63226 a 78.062925,39.026041 0 0 1 45.62501,-12.66831 m 71.41607,12.70421 A 39.026041,78.062925 0 0 0 167.17153,86.88999 m -0.008,25.7808 a 9.5976254,9.5921517 0 0 1 12.82623,0.67166 19.195251,19.184304 0 0 0 13.2932,5.6169 v 0 a 19.195251,19.184304 0 0 0 13.85308,-5.6169 19.195251,19.184304 0 0 0 0,-27.1308 19.195251,19.184304 0 0 0 -27.14628,0 9.5976254,9.5921517 0 0 1 -6.92629,2.8087 9.5976254,9.5921517 0 0 1 -5.89179,-2.13036 m 12.63226,71.41608 A 39.026041,78.062925 0 0 1 167.13563,112.68106 M 62.762853,158.27017 a 78.062925,39.026041 0 0 0 45.625007,12.66831 m 25.7808,0.008 a 9.5921517,9.5976254 0 0 1 0.67166,-12.82623 19.184304,19.195251 0 0 0 5.6169,-13.2932 v 0 a 19.184304,19.195251 0 0 0 -5.6169,-13.85308 19.184304,19.195251 0 0 0 -27.1308,0 19.184304,19.195251 0 0 0 0,27.14628 9.5921517,9.5976254 0 0 1 2.8087,6.92629 9.5921517,9.5976254 0 0 1 -2.13036,5.89179 m 71.41608,-12.63226 a 78.062925,39.026041 0 0 1 -45.62501,12.66831" />
    <path
       id="path890"
       style="opacity:0.51399997;fill:#000000;fill-opacity:0;stroke:#000000;stroke-width:1.32291663;stroke-linecap:round;stroke-linejoin:round;stroke-miterlimit:4;stroke-dasharray:none"
       d="m -79.4475,143.33898 a 39.026041,78.062925 0 0 0 12.66831,-45.625002 m 0.008,-25.780803 a 9.5976254,9.5921517 0 0 1 -12.82623,-0.67166 19.195251,19.184304 0 0 0 -13.2932,-5.6169 v 0 a 19.195251,19.184304 0 0 0 -13.85308,5.6169 19.195251,19.184304 0 0 0 0,27.130803 19.195251,19.184304 0 0 0 27.14628,0 9.5976254,9.5921517 0 0 1 6.92629,-2.8087 9.5976254,9.5921517 0 0 1 5.89179,2.13036 M -79.4116,26.297895 a 39.026041,78.062925 0 0 1 12.66831,45.62501 m -129.70939,-45.66091 a 78.062925,39.026041 0 0 0 45.625,12.668313 m 25.7808,0.008 a 9.5921517,9.5976254 0 0 1 0.67166,-12.826233 19.184304,19.195251 0 0 0 5.6169,-13.2932 v 0 a 19.184304,19.195251 0 0 0 -5.6169,-13.85308 19.184304,19.195251 0 0 0 -27.1308,0 19.184304,19.195251 0 0 0 0,27.14628 9.5921517,9.5976254 0 0 1 2.8087,6.926293 9.5921517,9.5976254 0 0 1 -2.13036,5.89179 M -79.4116,26.297895 a 78.062925,39.026041 0 0 1 -45.62501,12.668313 M -79.4475,143.33898 a 78.062925,39.026041 0 0 0 -45.625,-12.66831 m -25.7808,-0.008 a 9.5921517,9.5976254 0 0 1 -0.67166,12.82623 19.184304,19.195251 0 0 0 -5.6169,13.2932 v 0 a 19.184304,19.195251 0 0 0 5.6169,13.85308 19.184304,19.195251 0 0 0 27.1308,0 19.184304,19.195251 0 0 0 0,-27.14628 9.5921517,9.5976254 0 0 1 -2.8087,-6.92629 9.5921517,9.5976254 0 0 1 2.13036,-5.89179 m -71.41608,12.63226 a 78.062925,39.026041 0 0 1 45.62501,-12.66831 m -45.62501,12.66831 a 39.026041,78.062925 0 0 0 12.66831,-45.625002 m 0.008,-25.780803 a 9.5976254,9.5921517 0 0 1 -12.82623,-0.67166 19.195251,19.184304 0 0 0 -13.2932,-5.6169 v 0 a 19.195251,19.184304 0 0 0 -13.85308,5.6169 19.195251,19.184304 0 0 0 0,27.130803 19.195251,19.184304 0 0 0 27.14628,0 9.5976254,9.5921517 0 0 1 6.92629,-2.8087 9.5976254,9.5921517 0 0 1 5.89179,2.13036 m -12.63226,-71.416083 a 39.026041,78.062925 0 0 1 12.66831,45.62501" />
    <path
       id="path922"
       style="opacity:0.51399997;fill:none;fill-opacity:1;stroke:#000000;stroke-width:1.32291663;stroke-linecap:round;stroke-linejoin:round;stroke-miterlimit:4;stroke-dasharray:none"
       d="m 415.03703,43.937684 a 39.026041,78.062925 0 0 0 -12.66831,45.625 m -0.008,25.780796 a 9.5976254,9.5921517 0 0 1 12.82623,0.67166 19.195251,19.184304 0 0 0 13.2932,5.6169 v 0 a 19.195251,19.184304 0 0 0 13.85308,-5.6169 19.195251,19.184304 0 0 0 0,-27.130796 19.195251,19.184304 0 0 0 -27.14628,0 9.5976254,9.5921517 0 0 1 -6.92629,2.8087 9.5976254,9.5921517 0 0 1 -5.89179,-2.13036 m 12.63226,71.416076 A 39.026041,78.062925 0 0 1 402.33282,115.35375 M 297.99595,43.901784 a 78.062925,39.026041 0 0 0 45.625,12.668313 m 25.7808,0.008 a 9.5921517,9.5976254 0 0 1 0.67166,-12.826233 19.184304,19.195251 0 0 0 5.6169,-13.2932 v 0 a 19.184304,19.195251 0 0 0 -5.6169,-13.85308 19.184304,19.195251 0 0 0 -27.1308,0 19.184304,19.195251 0 0 0 0,27.14628 9.5921517,9.5976254 0 0 1 2.8087,6.926293 9.5921517,9.5976254 0 0 1 -2.13036,5.89179 m 71.41608,-12.632263 a 78.062925,39.026041 0 0 1 -45.62501,12.668313 m 45.58911,104.372773 a 78.062925,39.026041 0 0 0 -45.625,-12.66831 m -25.7808,-0.008 a 9.5921517,9.5976254 0 0 1 -0.67166,12.82623 19.184304,19.195251 0 0 0 -5.6169,13.2932 v 0 a 19.184304,19.195251 0 0 0 5.6169,13.85308 19.184304,19.195251 0 0 0 27.1308,0 19.184304,19.195251 0 0 0 0,-27.14628 9.5921517,9.5976254 0 0 1 -2.8087,-6.92629 9.5921517,9.5976254 0 0 1 2.13036,-5.89179 m -71.41608,12.63226 a 78.062925,39.026041 0 0 1 45.62501,-12.66831 m -45.62501,12.66831 a 39.026041,78.062925 0 0 0 12.66831,-45.625 m 0.008,-25.780806 a 9.5976254,9.5921517 0 0 1 -12.82623,-0.67166 19.195251,19.184304 0 0 0 -13.2932,-5.6169 v 0 a 19.195251,19.184304 0 0 0 -13.85308,5.6169 19.195251,19.184304 0 0 0 0,27.130806 19.195251,19.184304 0 0 0 27.14628,0 9.5976254,9.5921517 0 0 1 6.92629,-2.8087 9.5976254,9.5921517 0 0 1 5.89179,2.13036 M 297.99595,43.901784 a 39.026041,78.062925 0 0 1 12.66831,45.62501" />
    <path
       id="path930"
       style="opacity:0.51399997;fill:#000000;fill-opacity:0;stroke:#000000;stroke-width:1.32291663;stroke-linecap:round;stroke-linejoin:round;stroke-miterlimit:4;stroke-dasharray:none"
       d="m -74.911786,364.83303 a 39.026041,78.062925 0 0 0 12.66831,-45.625 m 0.008,-25.78081 a 9.5976254,9.5921517 0 0 1 -12.82623,-0.67166 19.195251,19.184304 0 0 0 -13.2932,-5.6169 v 0 a 19.195251,19.184304 0 0 0 -13.853084,5.6169 19.195251,19.184304 0 0 0 0,27.13081 19.195251,19.184304 0 0 0 27.146284,0 9.5976254,9.5921517 0 0 1 6.92629,-2.8087 9.5976254,9.5921517 0 0 1 5.89179,2.13036 m -12.63226,-71.41609 a 39.026041,78.062925 0 0 1 12.66831,45.62501 m -12.66831,-45.62501 a 78.062925,39.026041 0 0 0 -45.625004,-12.66832 m -25.7808,-0.008 a 9.5921517,9.5976254 0 0 1 -0.67166,12.82624 19.184304,19.195251 0 0 0 -5.6169,13.2932 v 0 a 19.184304,19.195251 0 0 0 5.6169,13.85308 19.184304,19.195251 0 0 0 27.1308,0 19.184304,19.195251 0 0 0 0,-27.14628 9.5921517,9.5976254 0 0 1 -2.8087,-6.9263 9.5921517,9.5976254 0 0 1 2.13036,-5.89179 m -71.41609,12.63227 a 78.062925,39.026041 0 0 1 45.62502,-12.66832 m 71.380174,129.74531 a 78.062925,39.026041 0 0 0 -45.625004,-12.66831 m -25.7808,-0.008 a 9.5921517,9.5976254 0 0 1 -0.67166,12.82623 19.184304,19.195251 0 0 0 -5.6169,13.2932 v 0 a 19.184304,19.195251 0 0 0 5.6169,13.85308 19.184304,19.195251 0 0 0 27.1308,0 19.184304,19.195251 0 0 0 0,-27.14628 9.5921517,9.5976254 0 0 1 -2.8087,-6.92629 9.5921517,9.5976254 0 0 1 2.13036,-5.89179 m -71.41608,12.63226 a 78.062925,39.026041 0 0 1 45.62501,-12.66831 m -45.62501,12.66831 a 39.026041,78.062925 0 0 0 12.66831,-45.625 m 0.008,-25.78081 a 9.5976254,9.5921517 0 0 1 -12.82623,-0.67166 19.195251,19.184304 0 0 0 -13.2932,-5.6169 v 0 a 19.195251,19.184304 0 0 0 -13.85308,5.6169 19.195251,19.184304 0 0 0 0,27.13081 19.195251,19.184304 0 0 0 27.14628,0 9.5976254,9.5921517 0 0 1 6.92629,-2.8087 9.5976254,9.5921517 0 0 1 5.89179,2.13036 m -12.63226,-71.41609 a 39.026041,78.062925 0 0 1 12.66831,45.62501" />
    <path
       id="path938"
       style="opacity:0.51399997;fill:#000000;fill-opacity:0;stroke:#000000;stroke-width:1.32291663;stroke-linecap:round;stroke-linejoin:round;stroke-miterlimit:4;stroke-dasharray:none"
       d="m 166.99298,367.10089 a 39.026041,78.062925 0 0 0 12.66831,-45.625 m 0.008,-25.78081 a 9.5976254,9.5921517 0 0 1 -12.82623,-0.67166 19.195251,19.184304 0 0 0 -13.2932,-5.6169 v 0 a 19.195251,19.184304 0 0 0 -13.85309,5.6169 19.195251,19.184304 0 0 0 0,27.13081 19.195251,19.184304 0 0 0 27.14629,0 9.5976254,9.5921517 0 0 1 6.92629,-2.8087 9.5976254,9.5921517 0 0 1 5.89179,2.13036 M 167.02888,250.0598 a 39.026041,78.062925 0 0 1 12.66831,45.62501 M 167.02888,250.0598 a 78.062925,39.026041 0 0 0 -45.62501,-12.66832 m -25.780798,-0.008 a 9.5921517,9.5976254 0 0 1 -0.67166,12.82624 19.184304,19.195251 0 0 0 -5.6169,13.2932 v 0 a 19.184304,19.195251 0 0 0 5.6169,13.85308 19.184304,19.195251 0 0 0 27.130798,0 19.184304,19.195251 0 0 0 0,-27.14628 9.5921517,9.5976254 0 0 1 -2.8087,-6.9263 9.5921517,9.5976254 0 0 1 2.13036,-5.89179 M 49.987782,250.0239 a 78.062925,39.026041 0 0 1 45.62502,-12.66832 M 49.951893,367.06499 a 78.062925,39.026041 0 0 0 45.62501,12.66831 m 25.780797,0.008 a 9.5921517,9.5976254 0 0 1 0.67166,-12.82623 19.184304,19.195251 0 0 0 5.6169,-13.2932 v 0 a 19.184304,19.195251 0 0 0 -5.6169,-13.85308 19.184304,19.195251 0 0 0 -27.130797,0 19.184304,19.195251 0 0 0 0,27.14628 9.5921517,9.5976254 0 0 1 2.8087,6.92629 9.5921517,9.5976254 0 0 1 -2.13036,5.89179 M 166.99298,367.10089 A 78.062925,39.026041 0 0 1 121.36797,379.7692 M 49.951892,367.06499 a 39.026041,78.062925 0 0 0 12.66831,-45.625 m 0.008,-25.78081 a 9.5976254,9.5921517 0 0 1 -12.82623,-0.67166 19.195251,19.184304 0 0 0 -13.2932,-5.6169 v 0 a 19.195251,19.184304 0 0 0 -13.85308,5.6169 19.195251,19.184304 0 0 0 0,27.13081 19.195251,19.184304 0 0 0 27.14628,0 9.5976254,9.5921517 0 0 1 6.92629,-2.8087 9.5976254,9.5921517 0 0 1 5.89179,2.13036 M 49.987792,250.0239 a 39.026041,78.062925 0 0 1 12.66831,45.62501" />
    <path
       id="path946"
       style="opacity:0.51399997;fill:#800000;fill-opacity:0;stroke:#000000;stroke-width:1.32291663;stroke-linecap:round;stroke-linejoin:round;stroke-miterlimit:4;stroke-dasharray:none"
       d="m 422.52475,361.93057 a 39.026041,78.062925 0 0 0 12.66831,-45.625 m 0.008,-25.78081 a 9.5976254,9.5921517 0 0 1 -12.82623,-0.67166 19.195251,19.184304 0 0 0 -13.2932,-5.6169 v 0 a 19.195251,19.184304 0 0 0 -13.85309,5.6169 19.195251,19.184304 0 0 0 0,27.13081 19.195251,19.184304 0 0 0 27.14629,0 9.5976254,9.5921517 0 0 1 6.92629,-2.8087 9.5976254,9.5921517 0 0 1 5.89179,2.13036 m -12.63226,-71.41609 a 39.026041,78.062925 0 0 1 12.66831,45.62501 m -12.66831,-45.62501 a 78.062925,39.026041 0 0 0 -45.62501,-12.66832 m -25.7808,-0.008 a 9.5921517,9.5976254 0 0 1 -0.67166,12.82624 19.184304,19.195251 0 0 0 -5.6169,13.2932 v 0 a 19.184304,19.195251 0 0 0 5.6169,13.85308 19.184304,19.195251 0 0 0 27.1308,0 19.184304,19.195251 0 0 0 0,-27.14628 9.5921517,9.5976254 0 0 1 -2.8087,-6.9263 9.5921517,9.5976254 0 0 1 2.13036,-5.89179 m -71.41609,12.63227 a 78.062925,39.026041 0 0 1 45.62502,-12.66832 m -45.6609,129.70941 a 78.062925,39.026041 0 0 0 45.62501,12.66831 m 25.78079,0.008 a 9.5921517,9.5976254 0 0 1 0.67166,-12.82623 19.184304,19.195251 0 0 0 5.6169,-13.2932 v 0 a 19.184304,19.195251 0 0 0 -5.6169,-13.85308 19.184304,19.195251 0 0 0 -27.13079,0 19.184304,19.195251 0 0 0 0,27.14628 9.5921517,9.5976254 0 0 1 2.8087,6.92629 9.5921517,9.5976254 0 0 1 -2.13036,5.89179 m 71.41607,-12.63226 a 78.062925,39.026041 0 0 1 -45.62501,12.66831 m -71.38019,-129.7453 a 39.026041,78.062925 0 0 0 -12.66831,45.625 m -0.008,25.78081 a 9.5976254,9.5921517 0 0 1 12.82623,0.67166 19.195251,19.184304 0 0 0 13.2932,5.6169 v 0 a 19.195251,19.184304 0 0 0 13.85308,-5.6169 19.195251,19.184304 0 0 0 0,-27.13081 19.195251,19.184304 0 0 0 -27.14628,0 9.5976254,9.5921517 0 0 1 -6.92629,2.8087 9.5976254,9.5921517 0 0 1 -5.89179,-2.13036 m 12.63226,71.41609 a 39.026041,78.062925 0 0 1 -12.66831,-45.62501"
       inkscape:connector-curvature="0" />
    <path
       style="color:#000000;font-style:normal;font-variant:normal;font-weight:normal;font-stretch:normal;font-size:medium;line-height:normal;font-family:sans-serif;font-variant-ligatures:normal;font-variant-position:normal;font-variant-caps:normal;font-variant-numeric:normal;font-variant-alternates:normal;font-feature-settings:normal;text-indent:0;text-align:start;text-decoration:none;text-decoration-line:none;text-decoration-style:solid;text-decoration-color:#000000;letter-spacing:normal;word-spacing:normal;text-transform:none;writing-mode:lr-tb;direction:ltr;text-orientation:mixed;dominant-baseline:auto;baseline-shift:baseline;text-anchor:start;white-space:normal;shape-padding:0;clip-rule:nonzero;display:inline;overflow:visible;visibility:visible;opacity:0.51399997;isolation:auto;mix-blend-mode:normal;color-interpolation:sRGB;color-interpolation-filters:linearRGB;solid-color:#000000;solid-opacity:1;vector-effect:none;fill:#000080;fill-opacity:1;fill-rule:nonzero;stroke:none;stroke-width:1.32291663;stroke-linecap:round;stroke-linejoin:round;stroke-miterlimit:4;stroke-dasharray:none;stroke-dashoffset:0;stroke-opacity:1;color-rendering:auto;image-rendering:auto;shape-rendering:auto;text-rendering:auto;enable-background:accumulate"
       d="m -656.50097,161.10683 v 5.3e-4 a 0.66152444,0.66152444 0 0 0 -0.0449,0.002 c -17.67645,1.48183 -33.8001,5.9464 -45.75173,12.68347 a 0.66152444,0.66152444 0 0 0 -0.45527,0.44544 0.66152444,0.66152444 0 0 0 -0.0233,0.0977 0.66152444,0.66152444 0 0 0 0.11523,0.49248 0.66152444,0.66152444 0 0 0 0.003,0.004 c 6.5767,11.63641 10.99257,27.48132 12.50003,44.87117 -3.54637,2.67258 -8.5122,2.39211 -11.67577,-0.76946 -3.65284,-3.65076 -8.58488,-5.73523 -13.75008,-5.8105 -5.36583,-0.0782 -10.53722,2.01795 -14.33195,5.8105 -7.74912,7.74464 -7.74912,20.32185 0,28.0665 7.74909,7.74471 20.33294,7.74471 28.08203,0 1.70786,-1.70703 4.03392,-2.65044 6.44922,-2.61535 1.88486,0.0276 3.68562,0.69288 5.19141,1.81643 -1.50656,17.39566 -5.9232,33.24532 -12.50209,44.8846 a 0.66152444,0.66152444 0 0 0 -0.10181,0.55862 0.66152444,0.66152444 0 0 0 0.004,0.0196 0.66152444,0.66152444 0 0 0 0.003,0.004 0.66152444,0.66152444 0 0 0 0.45887,0.45682 c 11.92085,6.71953 27.99463,11.1711 45.61739,12.66435 a 0.66152444,0.66152444 0 0 0 0.44905,-0.0315 0.66152444,0.66152444 0 0 0 0.008,-0.002 0.66152444,0.66152444 0 0 0 0.004,-0.002 0.66152444,0.66152444 0 0 0 0.37155,-0.4222 c 1.33768,-1.7476 2.11595,-3.86272 2.14821,-6.06836 0.0403,-2.77204 -1.04251,-5.44175 -3.00189,-7.40213 -7.23931,-7.24338 -7.23931,-18.96794 0,-26.21132 7.23924,-7.24343 18.95605,-7.24343 26.19529,0 3.5402,3.54222 5.49494,8.36635 5.42189,13.37541 -0.0703,4.8217 -2.01411,9.42619 -5.42189,12.83591 -3.64046,3.64279 -3.96103,9.40349 -0.84749,13.47049 a 0.66152444,0.66152444 0 0 0 0.70901,0.51005 c 17.67718,-1.48189 33.80202,-5.94644 45.75378,-12.68398 a 0.66152444,0.66152444 0 0 0 0.4372,-0.39998 0.66152444,0.66152444 0 0 0 0.004,-0.0103 0.66152444,0.66152444 0 0 0 0.003,-0.006 0.66152444,0.66152444 0 0 0 0.0175,-0.0568 0.66152444,0.66152444 0 0 0 0.003,-0.006 0.66152444,0.66152444 0 0 0 0.003,-0.008 0.66152444,0.66152444 0 0 0 -0.10541,-0.5488 0.66152444,0.66152444 0 0 0 -0.003,-0.004 c -6.57667,-11.63639 -10.9905,-27.48132 -12.49794,-44.87116 3.54634,-2.67259 8.51011,-2.39212 11.67371,0.76946 3.65283,3.65074 8.58694,5.73574 13.75211,5.81101 5.36583,0.0782 10.53515,-2.01846 14.32989,-5.81101 7.74911,-7.74465 7.74911,-20.32134 0,-28.06599 -7.74907,-7.7447 -20.33294,-7.7447 -28.082,0 -1.70789,1.70703 -4.03395,2.64992 -6.44922,2.61483 -1.88489,-0.0276 -3.68356,-0.69287 -5.18935,-1.81642 1.50677,-17.39555 5.92248,-33.24773 12.50156,-44.88667 a 0.66152444,0.66152444 0 0 0 0.0997,-0.56017 0.66152444,0.66152444 0 0 0 -0.003,-0.0139 0.66152444,0.66152444 0 0 0 -0.003,-0.006 0.66152444,0.66152444 0 0 0 -0.46249,-0.45527 c -11.91834,-6.71737 -27.98805,-11.1704 -45.60549,-12.66435 a 0.66152444,0.66152444 0 0 0 -0.40256,0.008 0.66152444,0.66152444 0 0 0 -0.008,0.002 0.66152444,0.66152444 0 0 0 -0.0548,0.0217 0.66152444,0.66152444 0 0 0 -0.0233,0.0119 0.66152444,0.66152444 0 0 0 -0.0413,0.0212 0.66152444,0.66152444 0 0 0 -0.30851,0.38293 c -1.34107,1.7489 -2.11796,3.86753 -2.15024,6.07611 -0.0403,2.77204 1.04248,5.44227 3.00188,7.40265 7.23929,7.24338 7.23929,18.96743 0,26.2108 -7.23924,7.24343 -18.95607,7.24343 -26.19531,0 -3.54018,-3.54221 -5.49698,-8.36582 -5.42396,-13.37489 0.0703,-4.8217 2.01618,-9.42619 5.42396,-12.83591 3.63897,-3.6413 3.95692,-9.39859 0.84749,-13.46533 a 0.66152444,0.66152444 0 0 0 -0.66403,-0.51728 z"
       id="path996"
       inkscape:connector-curvature="0" />
    <path
       style="color:#000000;font-style:normal;font-variant:normal;font-weight:normal;font-stretch:normal;font-size:medium;line-height:normal;font-family:sans-serif;font-variant-ligatures:normal;font-variant-position:normal;font-variant-caps:normal;font-variant-numeric:normal;font-variant-alternates:normal;font-feature-settings:normal;text-indent:0;text-align:start;text-decoration:none;text-decoration-line:none;text-decoration-style:solid;text-decoration-color:#000000;letter-spacing:normal;word-spacing:normal;text-transform:none;writing-mode:lr-tb;direction:ltr;text-orientation:mixed;dominant-baseline:auto;baseline-shift:baseline;text-anchor:start;white-space:normal;shape-padding:0;clip-rule:nonzero;display:inline;overflow:visible;visibility:visible;opacity:0.51399997;isolation:auto;mix-blend-mode:normal;color-interpolation:sRGB;color-interpolation-filters:linearRGB;solid-color:#000000;solid-opacity:1;vector-effect:none;fill:#000080;fill-opacity:1;fill-rule:nonzero;stroke:none;stroke-width:1.32291663;stroke-linecap:round;stroke-linejoin:round;stroke-miterlimit:4;stroke-dasharray:none;stroke-dashoffset:0;stroke-opacity:1;color-rendering:auto;image-rendering:auto;shape-rendering:auto;text-rendering:auto;enable-background:accumulate"
       d="m -320.3163,46.989546 c 2.67232,3.54633 2.39202,8.51178 -0.76946,11.67526 -3.65075,3.65283 -5.73574,8.58488 -5.81102,13.75006 -0.0782,5.36582 2.01845,10.53567 5.81102,14.33039 7.74464,7.74913 20.32132,7.74913 28.06599,0 7.7447,-7.74906 7.7447,-20.33138 0,-28.08045 -1.70704,-1.70788 -2.64993,-4.03393 -2.61482,-6.44922 0.0276,-1.88488 0.69286,-3.68562 1.81642,-5.19141 17.17159,1.48714 32.80036,5.83017 44.39626,12.26953 -6.57646,11.87311 -10.95558,27.72715 -12.42976,45.124904 a 0.66152444,0.66152444 0 0 0 0.031,0.44958 0.66152444,0.66152444 0 0 0 0.003,0.008 0.66152444,0.66152444 0 0 0 0.003,0.004 0.66152444,0.66152444 0 0 0 0.42011,0.37104 c 1.74784,1.33828 3.86219,2.11643 6.06838,2.1487 a 0.66152444,0.66152444 0 0 0 0.003,0 c 2.77204,0.0403 5.44177,-1.04455 7.40215,-3.00395 7.24336,-7.239304 18.96742,-7.239304 26.21078,0 7.24345,7.23924 7.24345,18.95606 0,26.1953 -3.54221,3.54019 -8.36583,5.49647 -13.37489,5.42344 -4.82169,-0.0703 -9.42618,-2.01567 -12.83589,-5.42344 -3.64131,-3.63898 -9.39808,-3.95745 -13.46484,-0.84801 a 0.66152444,0.66152444 0 0 0 -0.51572,0.71107 c 1.46299,17.45167 5.85327,33.35344 12.4473,45.2577 -11.59276,6.43764 -27.21871,10.77971 -44.38489,12.26799 -2.67256,-3.54635 -2.3921,-8.51064 0.76946,-11.67423 3.65077,-3.65284 5.73574,-8.58642 5.81102,-13.75161 0.0782,-5.36581 -2.01846,-10.53567 -5.81102,-14.33039 -7.74464,-7.74912 -20.32132,-7.74912 -28.06597,0 -7.74472,7.74908 -7.74472,20.33293 0,28.082 1.70702,1.70788 2.64991,4.03237 2.61483,6.44767 -0.0276,1.88489 -0.69443,3.68562 -1.81798,5.19142 -17.17077,-1.48733 -32.80138,-5.83043 -44.39677,-12.26954 6.57621,-11.87268 10.95537,-27.72635 12.42973,-45.12334 a 0.66152444,0.66152444 0 0 0 -0.0233,-0.43357 0.66152444,0.66152444 0 0 0 -0.0119,-0.0294 0.66152444,0.66152444 0 0 0 -0.0289,-0.0584 0.66152444,0.66152444 0 0 0 -0.38706,-0.31057 c -1.74848,-1.33998 -3.86434,-2.1159 -6.07197,-2.14819 -2.77205,-0.0403 -5.44434,1.04249 -7.40472,3.00188 -7.24338,7.2393 -18.96742,7.2393 -26.21081,0 -7.24342,-7.23924 -7.24342,-18.95605 0,-26.1953 3.54222,-3.54019 8.36791,-5.496994 13.37697,-5.423964 4.82168,0.0703 9.4241,2.016194 12.83384,5.423964 3.64171,3.63941 9.40213,3.9581 13.46894,0.8475 a 0.66152444,0.66152444 0 0 0 0.51366,-0.70901 c -1.46291,-17.450994 -5.85367,-33.353594 -12.4473,-45.257704 11.59317,-6.43785 27.21801,-10.78141 44.38489,-12.26953 z"
       id="path963"
       inkscape:connector-curvature="0" />
    <path
       inkscape:connector-curvature="0"
       id="path1000"
       d="m -371.02578,307.62606 h -5.3e-4 a 0.66152444,0.66152444 0 0 0 -0.002,-0.0449 c -1.48183,-17.67645 -5.9464,-33.8001 -12.68347,-45.75173 a 0.66152444,0.66152444 0 0 0 -0.44544,-0.45527 0.66152444,0.66152444 0 0 0 -0.0977,-0.0233 0.66152444,0.66152444 0 0 0 -0.49248,0.11523 0.66152444,0.66152444 0 0 0 -0.004,0.003 c -11.63641,6.5767 -27.48132,10.99257 -44.87117,12.50003 -2.67258,-3.54637 -2.39211,-8.5122 0.76946,-11.67577 3.65076,-3.65284 5.73523,-8.58488 5.8105,-13.75008 0.0782,-5.36583 -2.01795,-10.53722 -5.8105,-14.33195 -7.74464,-7.74912 -20.32185,-7.74912 -28.0665,0 -7.74471,7.74909 -7.74471,20.33294 0,28.08203 1.70703,1.70786 2.65044,4.03392 2.61535,6.44922 -0.0276,1.88486 -0.69288,3.68562 -1.81643,5.19141 -17.39566,-1.50656 -33.24532,-5.9232 -44.8846,-12.50209 a 0.66152444,0.66152444 0 0 0 -0.55862,-0.10181 0.66152444,0.66152444 0 0 0 -0.0196,0.004 0.66152444,0.66152444 0 0 0 -0.004,0.003 0.66152444,0.66152444 0 0 0 -0.45682,0.45887 c -6.71953,11.92085 -11.1711,27.99463 -12.66435,45.61739 a 0.66152444,0.66152444 0 0 0 0.0315,0.44905 0.66152444,0.66152444 0 0 0 0.002,0.008 0.66152444,0.66152444 0 0 0 0.002,0.004 0.66152444,0.66152444 0 0 0 0.4222,0.37155 c 1.7476,1.33768 3.86272,2.11595 6.06836,2.14821 2.77204,0.0403 5.44175,-1.04251 7.40213,-3.00189 7.24338,-7.23931 18.96794,-7.23931 26.21132,0 7.24343,7.23924 7.24343,18.95605 0,26.19529 -3.54222,3.5402 -8.36635,5.49494 -13.37541,5.42189 -4.8217,-0.0703 -9.42619,-2.01411 -12.83591,-5.42189 -3.64279,-3.64046 -9.40349,-3.96103 -13.47049,-0.84749 a 0.66152444,0.66152444 0 0 0 -0.51005,0.70901 c 1.48189,17.67718 5.94644,33.80202 12.68398,45.75378 a 0.66152444,0.66152444 0 0 0 0.39998,0.4372 0.66152444,0.66152444 0 0 0 0.0103,0.004 0.66152444,0.66152444 0 0 0 0.006,0.003 0.66152444,0.66152444 0 0 0 0.0568,0.0175 0.66152444,0.66152444 0 0 0 0.006,0.003 0.66152444,0.66152444 0 0 0 0.008,0.003 0.66152444,0.66152444 0 0 0 0.5488,-0.10541 0.66152444,0.66152444 0 0 0 0.004,-0.003 c 11.63639,-6.57667 27.48132,-10.9905 44.87116,-12.49794 2.67259,3.54634 2.39212,8.51011 -0.76946,11.67371 -3.65074,3.65283 -5.73574,8.58694 -5.81101,13.75211 -0.0782,5.36583 2.01846,10.53515 5.81101,14.32989 7.74465,7.74911 20.32134,7.74911 28.06599,0 7.7447,-7.74907 7.7447,-20.33294 0,-28.082 -1.70703,-1.70789 -2.64992,-4.03395 -2.61483,-6.44922 0.0276,-1.88489 0.69287,-3.68356 1.81642,-5.18935 17.39555,1.50677 33.24773,5.92248 44.88667,12.50156 a 0.66152444,0.66152444 0 0 0 0.56017,0.0997 0.66152444,0.66152444 0 0 0 0.0139,-0.003 0.66152444,0.66152444 0 0 0 0.006,-0.003 0.66152444,0.66152444 0 0 0 0.45527,-0.46249 c 6.71737,-11.91834 11.1704,-27.98805 12.66435,-45.60549 a 0.66152444,0.66152444 0 0 0 -0.008,-0.40256 0.66152444,0.66152444 0 0 0 -0.002,-0.008 0.66152444,0.66152444 0 0 0 -0.0217,-0.0548 0.66152444,0.66152444 0 0 0 -0.0119,-0.0233 0.66152444,0.66152444 0 0 0 -0.0212,-0.0413 0.66152444,0.66152444 0 0 0 -0.38293,-0.30851 c -1.7489,-1.34107 -3.86753,-2.11796 -6.07611,-2.15024 -2.77204,-0.0403 -5.44227,1.04248 -7.40265,3.00188 -7.24338,7.23929 -18.96743,7.23929 -26.2108,0 -7.24343,-7.23924 -7.24343,-18.95607 0,-26.19531 3.54221,-3.54018 8.36582,-5.49698 13.37489,-5.42396 4.8217,0.0703 9.42619,2.01618 12.83591,5.42396 3.6413,3.63897 9.39859,3.95692 13.46533,0.84749 a 0.66152444,0.66152444 0 0 0 0.51728,-0.66403 z"
       style="color:#000000;font-style:normal;font-variant:normal;font-weight:normal;font-stretch:normal;font-size:medium;line-height:normal;font-family:sans-serif;font-variant-ligatures:normal;font-variant-position:normal;font-variant-caps:normal;font-variant-numeric:normal;font-variant-alternates:normal;font-feature-settings:normal;text-indent:0;text-align:start;text-decoration:none;text-decoration-line:none;text-decoration-style:solid;text-decoration-color:#000000;letter-spacing:normal;word-spacing:normal;text-transform:none;writing-mode:lr-tb;direction:ltr;text-orientation:mixed;dominant-baseline:auto;baseline-shift:baseline;text-anchor:start;white-space:normal;shape-padding:0;clip-rule:nonzero;display:inline;overflow:visible;visibility:visible;opacity:0.51399997;isolation:auto;mix-blend-mode:normal;color-interpolation:sRGB;color-interpolation-filters:linearRGB;solid-color:#000000;solid-opacity:1;vector-effect:none;fill:#000080;fill-opacity:1;fill-rule:nonzero;stroke:none;stroke-width:1.32291663;stroke-linecap:round;stroke-linejoin:round;stroke-miterlimit:4;stroke-dasharray:none;stroke-dashoffset:0;stroke-opacity:1;color-rendering:auto;image-rendering:auto;shape-rendering:auto;text-rendering:auto;enable-background:accumulate" />
  </g>
</svg>
